  0
SECTION
  2
HEADER
  9
$ANGBASE
  50
0.0
  9
$ANGDIR
  70
1
  9
$MEASUREMENT
  70
0
  0
ENDSEC
  0
SECTION
  2
TABLES
  0
TABLE
  2
LTYPE
  70
4
  0
LTYPE
  5
40F
  2
CONTINUOUS
  70
0
  3
Solid line
  72
65
  73
0
  40
0.0
  0
LTYPE
  5
410
  2
DASHDOT
 70
0
  3
Dash Dot ____ _ ____ _
 72
65
 73
4
 40
2.0
 49
1.25
 49
-0.25
 49
0.25
 49
-0.25
  0
LTYPE
  5
411
  2
DASHED
 70
0
  3
Dashed __ __ __ __ __
 72
65
 73
2
 40
0.75
 49
0.5
 49
-0.25
  0
LTYPE
  5
43B
  2
DOTTED
 70
0
  3
Dotted .  .  .  .
 72
65
 73
2
 40
0.2
 49
0.0
 49
-0.2
  0
ENDTAB
  0
TABLE
  2
STYLE
  70
4
  0
STYLE
  2
KICAD
  70
0
  40
0
  41
1
  42
1
  50
0
  71
0
  3
isocp.shx
  0
STYLE
  2
KICADB
  70
0
  40
0
  41
1
  42
1
  50
0
  71
0
  3
isocp.shx
  0
STYLE
  2
KICADI
  70
0
  40
0
  41
1
  42
1
  50
15
  71
0
  3
isocp.shx
  0
STYLE
  2
KICADBI
  70
0
  40
0
  41
1
  42
1
  50
15
  71
0
  3
isocp.shx
  0
ENDTAB
  0
TABLE
  2
LAYER
  70
1
  0
LAYER
  2
BLACK
  70
0
  62
7
  6
CONTINUOUS
  0
ENDTAB
  0
ENDSEC
  0
SECTION
  2
ENTITIES
0
LINE
8
BLACK
6
CONTINUOUS
10
5.80005
20
-0.889016
11
5.80005
21
-0.889016
0
LINE
8
BLACK
6
CONTINUOUS
10
5.80005
20
-0.889016
11
5.80019
21
-0.88903
0
LINE
8
BLACK
6
CONTINUOUS
10
5.80019
20
-0.88903
11
5.80038
21
-0.889086
0
LINE
8
BLACK
6
CONTINUOUS
10
5.80038
20
-0.889086
11
5.80055
21
-0.889178
0
LINE
8
BLACK
6
CONTINUOUS
10
5.80055
20
-0.889178
11
5.8007
21
-0.889301
0
LINE
8
BLACK
6
CONTINUOUS
10
5.8007
20
-0.889301
11
5.80082
21
-0.889451
0
LINE
8
BLACK
6
CONTINUOUS
10
5.80082
20
-0.889451
11
5.80091
21
-0.889622
0
LINE
8
BLACK
6
CONTINUOUS
10
5.80091
20
-0.889622
11
5.80097
21
-0.889807
0
LINE
8
BLACK
6
CONTINUOUS
10
5.80097
20
-0.889807
11
5.80099
21
-0.89
0
LINE
8
BLACK
6
CONTINUOUS
10
5.80099
20
-0.89
11
5.80098
21
-0.890048
0
LINE
8
BLACK
6
CONTINUOUS
10
5.80098
20
-0.890048
11
5.80098
21
-2.33995
0
LINE
8
BLACK
6
CONTINUOUS
10
5.80098
20
-2.33995
11
5.80099
21
-2.34
0
LINE
8
BLACK
6
CONTINUOUS
10
5.80099
20
-2.34
11
5.80098
21
-2.34005
0
LINE
8
BLACK
6
CONTINUOUS
10
5.80098
20
-2.34005
11
5.80098
21
-2.34005
0
LINE
8
BLACK
6
CONTINUOUS
10
5.80098
20
-2.34005
11
5.80097
21
-2.34019
0
LINE
8
BLACK
6
CONTINUOUS
10
5.80097
20
-2.34019
11
5.80091
21
-2.34038
0
LINE
8
BLACK
6
CONTINUOUS
10
5.80091
20
-2.34038
11
5.80082
21
-2.34055
0
LINE
8
BLACK
6
CONTINUOUS
10
5.80082
20
-2.34055
11
5.8007
21
-2.3407
0
LINE
8
BLACK
6
CONTINUOUS
10
5.8007
20
-2.3407
11
5.80055
21
-2.34082
0
LINE
8
BLACK
6
CONTINUOUS
10
5.80055
20
-2.34082
11
5.80038
21
-2.34091
0
LINE
8
BLACK
6
CONTINUOUS
10
5.80038
20
-2.34091
11
5.80019
21
-2.34097
0
LINE
8
BLACK
6
CONTINUOUS
10
5.80019
20
-2.34097
11
5.8
21
-2.34099
0
LINE
8
BLACK
6
CONTINUOUS
10
5.8
20
-2.34099
11
5.79995
21
-2.34098
0
LINE
8
BLACK
6
CONTINUOUS
10
5.79995
20
-2.34098
11
2.99505
21
-2.34098
0
LINE
8
BLACK
6
CONTINUOUS
10
2.99505
20
-2.34098
11
2.995
21
-2.34099
0
LINE
8
BLACK
6
CONTINUOUS
10
2.995
20
-2.34099
11
2.99481
21
-2.34097
0
LINE
8
BLACK
6
CONTINUOUS
10
2.99481
20
-2.34097
11
2.99462
21
-2.34091
0
LINE
8
BLACK
6
CONTINUOUS
10
2.99462
20
-2.34091
11
2.99445
21
-2.34082
0
LINE
8
BLACK
6
CONTINUOUS
10
2.99445
20
-2.34082
11
2.9943
21
-2.3407
0
LINE
8
BLACK
6
CONTINUOUS
10
2.9943
20
-2.3407
11
2.99418
21
-2.34055
0
LINE
8
BLACK
6
CONTINUOUS
10
2.99418
20
-2.34055
11
2.99409
21
-2.34038
0
LINE
8
BLACK
6
CONTINUOUS
10
2.99409
20
-2.34038
11
2.99403
21
-2.34019
0
LINE
8
BLACK
6
CONTINUOUS
10
2.99403
20
-2.34019
11
2.99401
21
-2.34
0
LINE
8
BLACK
6
CONTINUOUS
10
2.99401
20
-2.34
11
2.99402
21
-2.33995
0
LINE
8
BLACK
6
CONTINUOUS
10
2.99402
20
-2.33995
11
2.99402
21
-0.890048
0
LINE
8
BLACK
6
CONTINUOUS
10
2.99402
20
-0.890048
11
2.99401
21
-0.89
0
LINE
8
BLACK
6
CONTINUOUS
10
2.99401
20
-0.89
11
2.99403
21
-0.889807
0
LINE
8
BLACK
6
CONTINUOUS
10
2.99403
20
-0.889807
11
2.99409
21
-0.889622
0
LINE
8
BLACK
6
CONTINUOUS
10
2.99409
20
-0.889622
11
2.99418
21
-0.889451
0
LINE
8
BLACK
6
CONTINUOUS
10
2.99418
20
-0.889451
11
2.9943
21
-0.889301
0
LINE
8
BLACK
6
CONTINUOUS
10
2.9943
20
-0.889301
11
2.99445
21
-0.889178
0
LINE
8
BLACK
6
CONTINUOUS
10
2.99445
20
-0.889178
11
2.99462
21
-0.889086
0
LINE
8
BLACK
6
CONTINUOUS
10
2.99462
20
-0.889086
11
2.99481
21
-0.88903
0
LINE
8
BLACK
6
CONTINUOUS
10
2.99481
20
-0.88903
11
2.99495
21
-0.889016
0
LINE
8
BLACK
6
CONTINUOUS
10
2.99495
20
-0.889016
11
2.99495
21
-0.889016
0
LINE
8
BLACK
6
CONTINUOUS
10
2.99495
20
-0.889016
11
2.995
21
-0.889011
0
LINE
8
BLACK
6
CONTINUOUS
10
2.995
20
-0.889011
11
2.99505
21
-0.889016
0
LINE
8
BLACK
6
CONTINUOUS
10
2.99505
20
-0.889016
11
5.79995
21
-0.889016
0
LINE
8
BLACK
6
CONTINUOUS
10
5.79995
20
-0.889016
11
5.8
21
-0.889011
0
LINE
8
BLACK
6
CONTINUOUS
10
5.8
20
-0.889011
11
5.80005
21
-0.889016
0
LINE
8
BLACK
6
CONTINUOUS
10
2.99598
20
-0.890984
11
2.99598
21
-2.33902
0
LINE
8
BLACK
6
CONTINUOUS
10
2.99598
20
-2.33902
11
5.79902
21
-2.33902
0
LINE
8
BLACK
6
CONTINUOUS
10
5.79902
20
-2.33902
11
5.79902
21
-0.890984
0
LINE
8
BLACK
6
CONTINUOUS
10
5.79902
20
-0.890984
11
2.99598
21
-0.890984
  0
ENDSEC
  0
EOF
