  0
SECTION
  2
HEADER
  9
$ANGBASE
  50
0.0
  9
$ANGDIR
  70
1
  9
$MEASUREMENT
  70
0
  0
ENDSEC
  0
SECTION
  2
TABLES
  0
TABLE
  2
LTYPE
  70
4
  0
LTYPE
  5
40F
  2
CONTINUOUS
  70
0
  3
Solid line
  72
65
  73
0
  40
0.0
  0
LTYPE
  5
410
  2
DASHDOT
 70
0
  3
Dash Dot ____ _ ____ _
 72
65
 73
4
 40
2.0
 49
1.25
 49
-0.25
 49
0.25
 49
-0.25
  0
LTYPE
  5
411
  2
DASHED
 70
0
  3
Dashed __ __ __ __ __
 72
65
 73
2
 40
0.75
 49
0.5
 49
-0.25
  0
LTYPE
  5
43B
  2
DOTTED
 70
0
  3
Dotted .  .  .  .
 72
65
 73
2
 40
0.2
 49
0.0
 49
-0.2
  0
ENDTAB
  0
TABLE
  2
STYLE
  70
4
  0
STYLE
  2
KICAD
  70
0
  40
0
  41
1
  42
1
  50
0
  71
0
  3
isocp.shx
  0
STYLE
  2
KICADB
  70
0
  40
0
  41
1
  42
1
  50
0
  71
0
  3
isocp.shx
  0
STYLE
  2
KICADI
  70
0
  40
0
  41
1
  42
1
  50
15
  71
0
  3
isocp.shx
  0
STYLE
  2
KICADBI
  70
0
  40
0
  41
1
  42
1
  50
15
  71
0
  3
isocp.shx
  0
ENDTAB
  0
TABLE
  2
LAYER
  70
1
  0
LAYER
  2
BLACK
  70
0
  62
7
  6
CONTINUOUS
  0
ENDTAB
  0
ENDSEC
  0
SECTION
  2
ENTITIES
0
LINE
8
BLACK
6
CONTINUOUS
10
4.2526
20
-2.28051
11
3.8274
21
-2.28051
0
LINE
8
BLACK
6
CONTINUOUS
10
3.8274
20
-2.28051
11
3.8274
21
-1.91043
0
LINE
8
BLACK
6
CONTINUOUS
10
3.8274
20
-1.91043
11
4.2526
21
-1.91043
0
LINE
8
BLACK
6
CONTINUOUS
10
4.2526
20
-1.91043
11
4.2526
21
-2.28051
0
LINE
8
BLACK
6
CONTINUOUS
10
3.39232
20
-2.27087
11
3.34114
21
-2.27087
0
LINE
8
BLACK
6
CONTINUOUS
10
3.34114
20
-2.27087
11
3.34114
21
-2.21969
0
LINE
8
BLACK
6
CONTINUOUS
10
3.34114
20
-2.21969
11
3.39232
21
-2.21969
0
LINE
8
BLACK
6
CONTINUOUS
10
3.39232
20
-2.21969
11
3.39232
21
-2.27087
0
LINE
8
BLACK
6
CONTINUOUS
10
3.60886
20
-2.23937
11
3.55768
21
-2.23937
0
LINE
8
BLACK
6
CONTINUOUS
10
3.55768
20
-2.23937
11
3.55768
21
-2.16063
0
LINE
8
BLACK
6
CONTINUOUS
10
3.55768
20
-2.16063
11
3.60886
21
-2.16063
0
LINE
8
BLACK
6
CONTINUOUS
10
3.60886
20
-2.16063
11
3.60886
21
-2.23937
0
LINE
8
BLACK
6
CONTINUOUS
10
5.7003
20
-2.02377
11
5.71964
21
-2.03178
0
LINE
8
BLACK
6
CONTINUOUS
10
5.71964
20
-2.03178
11
5.73705
21
-2.04342
0
LINE
8
BLACK
6
CONTINUOUS
10
5.73705
20
-2.04342
11
5.75186
21
-2.05822
0
LINE
8
BLACK
6
CONTINUOUS
10
5.75186
20
-2.05822
11
5.76349
21
-2.07563
0
LINE
8
BLACK
6
CONTINUOUS
10
5.76349
20
-2.07563
11
5.77151
21
-2.09498
0
LINE
8
BLACK
6
CONTINUOUS
10
5.77151
20
-2.09498
11
5.77559
21
-2.11551
0
LINE
8
BLACK
6
CONTINUOUS
10
5.77559
20
-2.11551
11
5.77559
21
-2.13645
0
LINE
8
BLACK
6
CONTINUOUS
10
5.77559
20
-2.13645
11
5.77151
21
-2.15699
0
LINE
8
BLACK
6
CONTINUOUS
10
5.77151
20
-2.15699
11
5.76349
21
-2.17634
0
LINE
8
BLACK
6
CONTINUOUS
10
5.76349
20
-2.17634
11
5.75186
21
-2.19375
0
LINE
8
BLACK
6
CONTINUOUS
10
5.75186
20
-2.19375
11
5.73705
21
-2.20855
0
LINE
8
BLACK
6
CONTINUOUS
10
5.73705
20
-2.20855
11
5.71964
21
-2.22019
0
LINE
8
BLACK
6
CONTINUOUS
10
5.71964
20
-2.22019
11
5.7003
21
-2.2282
0
LINE
8
BLACK
6
CONTINUOUS
10
5.7003
20
-2.2282
11
5.67976
21
-2.23228
0
LINE
8
BLACK
6
CONTINUOUS
10
5.67976
20
-2.23228
11
5.65882
21
-2.23228
0
LINE
8
BLACK
6
CONTINUOUS
10
5.65882
20
-2.23228
11
5.63828
21
-2.2282
0
LINE
8
BLACK
6
CONTINUOUS
10
5.63828
20
-2.2282
11
5.61894
21
-2.22019
0
LINE
8
BLACK
6
CONTINUOUS
10
5.61894
20
-2.22019
11
5.60153
21
-2.20855
0
LINE
8
BLACK
6
CONTINUOUS
10
5.60153
20
-2.20855
11
5.58672
21
-2.19375
0
LINE
8
BLACK
6
CONTINUOUS
10
5.58672
20
-2.19375
11
5.57509
21
-2.17634
0
LINE
8
BLACK
6
CONTINUOUS
10
5.57509
20
-2.17634
11
5.56708
21
-2.15699
0
LINE
8
BLACK
6
CONTINUOUS
10
5.56708
20
-2.15699
11
5.56299
21
-2.13645
0
LINE
8
BLACK
6
CONTINUOUS
10
5.56299
20
-2.13645
11
5.56299
21
-2.11551
0
LINE
8
BLACK
6
CONTINUOUS
10
5.56299
20
-2.11551
11
5.56708
21
-2.09498
0
LINE
8
BLACK
6
CONTINUOUS
10
5.56708
20
-2.09498
11
5.57509
21
-2.07563
0
LINE
8
BLACK
6
CONTINUOUS
10
5.57509
20
-2.07563
11
5.58672
21
-2.05822
0
LINE
8
BLACK
6
CONTINUOUS
10
5.58672
20
-2.05822
11
5.60153
21
-2.04342
0
LINE
8
BLACK
6
CONTINUOUS
10
5.60153
20
-2.04342
11
5.61894
21
-2.03178
0
LINE
8
BLACK
6
CONTINUOUS
10
5.61894
20
-2.03178
11
5.63828
21
-2.02377
0
LINE
8
BLACK
6
CONTINUOUS
10
5.63828
20
-2.02377
11
5.65882
21
-2.01969
0
LINE
8
BLACK
6
CONTINUOUS
10
5.65882
20
-2.01969
11
5.67976
21
-2.01969
0
LINE
8
BLACK
6
CONTINUOUS
10
5.67976
20
-2.01969
11
5.7003
21
-2.02377
0
LINE
8
BLACK
6
CONTINUOUS
10
3.16601
20
-2.02279
11
3.18535
21
-2.0308
0
LINE
8
BLACK
6
CONTINUOUS
10
3.18535
20
-2.0308
11
3.20276
21
-2.04243
0
LINE
8
BLACK
6
CONTINUOUS
10
3.20276
20
-2.04243
11
3.21757
21
-2.05724
0
LINE
8
BLACK
6
CONTINUOUS
10
3.21757
20
-2.05724
11
3.2292
21
-2.07465
0
LINE
8
BLACK
6
CONTINUOUS
10
3.2292
20
-2.07465
11
3.23721
21
-2.09399
0
LINE
8
BLACK
6
CONTINUOUS
10
3.23721
20
-2.09399
11
3.2413
21
-2.11453
0
LINE
8
BLACK
6
CONTINUOUS
10
3.2413
20
-2.11453
11
3.2413
21
-2.13547
0
LINE
8
BLACK
6
CONTINUOUS
10
3.2413
20
-2.13547
11
3.23721
21
-2.15601
0
LINE
8
BLACK
6
CONTINUOUS
10
3.23721
20
-2.15601
11
3.2292
21
-2.17535
0
LINE
8
BLACK
6
CONTINUOUS
10
3.2292
20
-2.17535
11
3.21757
21
-2.19276
0
LINE
8
BLACK
6
CONTINUOUS
10
3.21757
20
-2.19276
11
3.20276
21
-2.20757
0
LINE
8
BLACK
6
CONTINUOUS
10
3.20276
20
-2.20757
11
3.18535
21
-2.2192
0
LINE
8
BLACK
6
CONTINUOUS
10
3.18535
20
-2.2192
11
3.16601
21
-2.22721
0
LINE
8
BLACK
6
CONTINUOUS
10
3.16601
20
-2.22721
11
3.14547
21
-2.2313
0
LINE
8
BLACK
6
CONTINUOUS
10
3.14547
20
-2.2313
11
3.12453
21
-2.2313
0
LINE
8
BLACK
6
CONTINUOUS
10
3.12453
20
-2.2313
11
3.10399
21
-2.22721
0
LINE
8
BLACK
6
CONTINUOUS
10
3.10399
20
-2.22721
11
3.08465
21
-2.2192
0
LINE
8
BLACK
6
CONTINUOUS
10
3.08465
20
-2.2192
11
3.06724
21
-2.20757
0
LINE
8
BLACK
6
CONTINUOUS
10
3.06724
20
-2.20757
11
3.05243
21
-2.19276
0
LINE
8
BLACK
6
CONTINUOUS
10
3.05243
20
-2.19276
11
3.0408
21
-2.17535
0
LINE
8
BLACK
6
CONTINUOUS
10
3.0408
20
-2.17535
11
3.03279
21
-2.15601
0
LINE
8
BLACK
6
CONTINUOUS
10
3.03279
20
-2.15601
11
3.0287
21
-2.13547
0
LINE
8
BLACK
6
CONTINUOUS
10
3.0287
20
-2.13547
11
3.0287
21
-2.11453
0
LINE
8
BLACK
6
CONTINUOUS
10
3.0287
20
-2.11453
11
3.03279
21
-2.09399
0
LINE
8
BLACK
6
CONTINUOUS
10
3.03279
20
-2.09399
11
3.0408
21
-2.07465
0
LINE
8
BLACK
6
CONTINUOUS
10
3.0408
20
-2.07465
11
3.05243
21
-2.05724
0
LINE
8
BLACK
6
CONTINUOUS
10
3.05243
20
-2.05724
11
3.06724
21
-2.04243
0
LINE
8
BLACK
6
CONTINUOUS
10
3.06724
20
-2.04243
11
3.08465
21
-2.0308
0
LINE
8
BLACK
6
CONTINUOUS
10
3.08465
20
-2.0308
11
3.10399
21
-2.02279
0
LINE
8
BLACK
6
CONTINUOUS
10
3.10399
20
-2.02279
11
3.12453
21
-2.0187
0
LINE
8
BLACK
6
CONTINUOUS
10
3.12453
20
-2.0187
11
3.14547
21
-2.0187
0
LINE
8
BLACK
6
CONTINUOUS
10
3.14547
20
-2.0187
11
3.16601
21
-2.02279
0
LINE
8
BLACK
6
CONTINUOUS
10
3.39232
20
-2.18031
11
3.34114
21
-2.18031
0
LINE
8
BLACK
6
CONTINUOUS
10
3.34114
20
-2.18031
11
3.34114
21
-2.12913
0
LINE
8
BLACK
6
CONTINUOUS
10
3.34114
20
-2.12913
11
3.39232
21
-2.12913
0
LINE
8
BLACK
6
CONTINUOUS
10
3.39232
20
-2.12913
11
3.39232
21
-2.18031
0
LINE
8
BLACK
6
CONTINUOUS
10
5.53739
20
-2.08885
11
5.53924
21
-2.08941
0
LINE
8
BLACK
6
CONTINUOUS
10
5.53924
20
-2.08941
11
5.54094
21
-2.09032
0
LINE
8
BLACK
6
CONTINUOUS
10
5.54094
20
-2.09032
11
5.54243
21
-2.09154
0
LINE
8
BLACK
6
CONTINUOUS
10
5.54243
20
-2.09154
11
5.54366
21
-2.09304
0
LINE
8
BLACK
6
CONTINUOUS
10
5.54366
20
-2.09304
11
5.54457
21
-2.09474
0
LINE
8
BLACK
6
CONTINUOUS
10
5.54457
20
-2.09474
11
5.54513
21
-2.09658
0
LINE
8
BLACK
6
CONTINUOUS
10
5.54513
20
-2.09658
11
5.54531
21
-2.0985
0
LINE
8
BLACK
6
CONTINUOUS
10
5.54531
20
-2.0985
11
5.54531
21
-2.1615
0
LINE
8
BLACK
6
CONTINUOUS
10
5.54531
20
-2.1615
11
5.54513
21
-2.16342
0
LINE
8
BLACK
6
CONTINUOUS
10
5.54513
20
-2.16342
11
5.54457
21
-2.16526
0
LINE
8
BLACK
6
CONTINUOUS
10
5.54457
20
-2.16526
11
5.54366
21
-2.16696
0
LINE
8
BLACK
6
CONTINUOUS
10
5.54366
20
-2.16696
11
5.54243
21
-2.16846
0
LINE
8
BLACK
6
CONTINUOUS
10
5.54243
20
-2.16846
11
5.54094
21
-2.16968
0
LINE
8
BLACK
6
CONTINUOUS
10
5.54094
20
-2.16968
11
5.53924
21
-2.17059
0
LINE
8
BLACK
6
CONTINUOUS
10
5.53924
20
-2.17059
11
5.53739
21
-2.17115
0
LINE
8
BLACK
6
CONTINUOUS
10
5.53739
20
-2.17115
11
5.53547
21
-2.17134
0
LINE
8
BLACK
6
CONTINUOUS
10
5.53547
20
-2.17134
11
5.37799
21
-2.17134
0
LINE
8
BLACK
6
CONTINUOUS
10
5.37799
20
-2.17134
11
5.37607
21
-2.17115
0
LINE
8
BLACK
6
CONTINUOUS
10
5.37607
20
-2.17115
11
5.37423
21
-2.17059
0
LINE
8
BLACK
6
CONTINUOUS
10
5.37423
20
-2.17059
11
5.37252
21
-2.16968
0
LINE
8
BLACK
6
CONTINUOUS
10
5.37252
20
-2.16968
11
5.37103
21
-2.16846
0
LINE
8
BLACK
6
CONTINUOUS
10
5.37103
20
-2.16846
11
5.36981
21
-2.16696
0
LINE
8
BLACK
6
CONTINUOUS
10
5.36981
20
-2.16696
11
5.3689
21
-2.16526
0
LINE
8
BLACK
6
CONTINUOUS
10
5.3689
20
-2.16526
11
5.36834
21
-2.16342
0
LINE
8
BLACK
6
CONTINUOUS
10
5.36834
20
-2.16342
11
5.36815
21
-2.1615
0
LINE
8
BLACK
6
CONTINUOUS
10
5.36815
20
-2.1615
11
5.36815
21
-2.0985
0
LINE
8
BLACK
6
CONTINUOUS
10
5.36815
20
-2.0985
11
5.36834
21
-2.09658
0
LINE
8
BLACK
6
CONTINUOUS
10
5.36834
20
-2.09658
11
5.3689
21
-2.09474
0
LINE
8
BLACK
6
CONTINUOUS
10
5.3689
20
-2.09474
11
5.36981
21
-2.09304
0
LINE
8
BLACK
6
CONTINUOUS
10
5.36981
20
-2.09304
11
5.37103
21
-2.09154
0
LINE
8
BLACK
6
CONTINUOUS
10
5.37103
20
-2.09154
11
5.37252
21
-2.09032
0
LINE
8
BLACK
6
CONTINUOUS
10
5.37252
20
-2.09032
11
5.37423
21
-2.08941
0
LINE
8
BLACK
6
CONTINUOUS
10
5.37423
20
-2.08941
11
5.37607
21
-2.08885
0
LINE
8
BLACK
6
CONTINUOUS
10
5.37607
20
-2.08885
11
5.37799
21
-2.08866
0
LINE
8
BLACK
6
CONTINUOUS
10
5.37799
20
-2.08866
11
5.53547
21
-2.08866
0
LINE
8
BLACK
6
CONTINUOUS
10
5.53547
20
-2.08866
11
5.53739
21
-2.08885
0
LINE
8
BLACK
6
CONTINUOUS
10
5.25393
20
-2.08885
11
5.25577
21
-2.08941
0
LINE
8
BLACK
6
CONTINUOUS
10
5.25577
20
-2.08941
11
5.25748
21
-2.09032
0
LINE
8
BLACK
6
CONTINUOUS
10
5.25748
20
-2.09032
11
5.25897
21
-2.09154
0
LINE
8
BLACK
6
CONTINUOUS
10
5.25897
20
-2.09154
11
5.26019
21
-2.09304
0
LINE
8
BLACK
6
CONTINUOUS
10
5.26019
20
-2.09304
11
5.2611
21
-2.09474
0
LINE
8
BLACK
6
CONTINUOUS
10
5.2611
20
-2.09474
11
5.26166
21
-2.09658
0
LINE
8
BLACK
6
CONTINUOUS
10
5.26166
20
-2.09658
11
5.26185
21
-2.0985
0
LINE
8
BLACK
6
CONTINUOUS
10
5.26185
20
-2.0985
11
5.26185
21
-2.1615
0
LINE
8
BLACK
6
CONTINUOUS
10
5.26185
20
-2.1615
11
5.26166
21
-2.16342
0
LINE
8
BLACK
6
CONTINUOUS
10
5.26166
20
-2.16342
11
5.2611
21
-2.16526
0
LINE
8
BLACK
6
CONTINUOUS
10
5.2611
20
-2.16526
11
5.26019
21
-2.16696
0
LINE
8
BLACK
6
CONTINUOUS
10
5.26019
20
-2.16696
11
5.25897
21
-2.16846
0
LINE
8
BLACK
6
CONTINUOUS
10
5.25897
20
-2.16846
11
5.25748
21
-2.16968
0
LINE
8
BLACK
6
CONTINUOUS
10
5.25748
20
-2.16968
11
5.25577
21
-2.17059
0
LINE
8
BLACK
6
CONTINUOUS
10
5.25577
20
-2.17059
11
5.25393
21
-2.17115
0
LINE
8
BLACK
6
CONTINUOUS
10
5.25393
20
-2.17115
11
5.25201
21
-2.17134
0
LINE
8
BLACK
6
CONTINUOUS
10
5.25201
20
-2.17134
11
5.09453
21
-2.17134
0
LINE
8
BLACK
6
CONTINUOUS
10
5.09453
20
-2.17134
11
5.09261
21
-2.17115
0
LINE
8
BLACK
6
CONTINUOUS
10
5.09261
20
-2.17115
11
5.09076
21
-2.17059
0
LINE
8
BLACK
6
CONTINUOUS
10
5.09076
20
-2.17059
11
5.08906
21
-2.16968
0
LINE
8
BLACK
6
CONTINUOUS
10
5.08906
20
-2.16968
11
5.08757
21
-2.16846
0
LINE
8
BLACK
6
CONTINUOUS
10
5.08757
20
-2.16846
11
5.08634
21
-2.16696
0
LINE
8
BLACK
6
CONTINUOUS
10
5.08634
20
-2.16696
11
5.08543
21
-2.16526
0
LINE
8
BLACK
6
CONTINUOUS
10
5.08543
20
-2.16526
11
5.08487
21
-2.16342
0
LINE
8
BLACK
6
CONTINUOUS
10
5.08487
20
-2.16342
11
5.08469
21
-2.1615
0
LINE
8
BLACK
6
CONTINUOUS
10
5.08469
20
-2.1615
11
5.08469
21
-2.0985
0
LINE
8
BLACK
6
CONTINUOUS
10
5.08469
20
-2.0985
11
5.08487
21
-2.09658
0
LINE
8
BLACK
6
CONTINUOUS
10
5.08487
20
-2.09658
11
5.08543
21
-2.09474
0
LINE
8
BLACK
6
CONTINUOUS
10
5.08543
20
-2.09474
11
5.08634
21
-2.09304
0
LINE
8
BLACK
6
CONTINUOUS
10
5.08634
20
-2.09304
11
5.08757
21
-2.09154
0
LINE
8
BLACK
6
CONTINUOUS
10
5.08757
20
-2.09154
11
5.08906
21
-2.09032
0
LINE
8
BLACK
6
CONTINUOUS
10
5.08906
20
-2.09032
11
5.09076
21
-2.08941
0
LINE
8
BLACK
6
CONTINUOUS
10
5.09076
20
-2.08941
11
5.09261
21
-2.08885
0
LINE
8
BLACK
6
CONTINUOUS
10
5.09261
20
-2.08885
11
5.09453
21
-2.08866
0
LINE
8
BLACK
6
CONTINUOUS
10
5.09453
20
-2.08866
11
5.25201
21
-2.08866
0
LINE
8
BLACK
6
CONTINUOUS
10
5.25201
20
-2.08866
11
5.25393
21
-2.08885
0
LINE
8
BLACK
6
CONTINUOUS
10
3.53562
20
-2.05531
11
3.53747
21
-2.05587
0
LINE
8
BLACK
6
CONTINUOUS
10
3.53747
20
-2.05587
11
3.53917
21
-2.05678
0
LINE
8
BLACK
6
CONTINUOUS
10
3.53917
20
-2.05678
11
3.54066
21
-2.058
0
LINE
8
BLACK
6
CONTINUOUS
10
3.54066
20
-2.058
11
3.54188
21
-2.05949
0
LINE
8
BLACK
6
CONTINUOUS
10
3.54188
20
-2.05949
11
3.54279
21
-2.06119
0
LINE
8
BLACK
6
CONTINUOUS
10
3.54279
20
-2.06119
11
3.54335
21
-2.06304
0
LINE
8
BLACK
6
CONTINUOUS
10
3.54335
20
-2.06304
11
3.54354
21
-2.06496
0
LINE
8
BLACK
6
CONTINUOUS
10
3.54354
20
-2.06496
11
3.54354
21
-2.08465
0
LINE
8
BLACK
6
CONTINUOUS
10
3.54354
20
-2.08465
11
3.54335
21
-2.08657
0
LINE
8
BLACK
6
CONTINUOUS
10
3.54335
20
-2.08657
11
3.54279
21
-2.08841
0
LINE
8
BLACK
6
CONTINUOUS
10
3.54279
20
-2.08841
11
3.54188
21
-2.09011
0
LINE
8
BLACK
6
CONTINUOUS
10
3.54188
20
-2.09011
11
3.54066
21
-2.09161
0
LINE
8
BLACK
6
CONTINUOUS
10
3.54066
20
-2.09161
11
3.53917
21
-2.09283
0
LINE
8
BLACK
6
CONTINUOUS
10
3.53917
20
-2.09283
11
3.53747
21
-2.09374
0
LINE
8
BLACK
6
CONTINUOUS
10
3.53747
20
-2.09374
11
3.53562
21
-2.0943
0
LINE
8
BLACK
6
CONTINUOUS
10
3.53562
20
-2.0943
11
3.5337
21
-2.09449
0
LINE
8
BLACK
6
CONTINUOUS
10
3.5337
20
-2.09449
11
3.4963
21
-2.09449
0
LINE
8
BLACK
6
CONTINUOUS
10
3.4963
20
-2.09449
11
3.49438
21
-2.0943
0
LINE
8
BLACK
6
CONTINUOUS
10
3.49438
20
-2.0943
11
3.49253
21
-2.09374
0
LINE
8
BLACK
6
CONTINUOUS
10
3.49253
20
-2.09374
11
3.49083
21
-2.09283
0
LINE
8
BLACK
6
CONTINUOUS
10
3.49083
20
-2.09283
11
3.48934
21
-2.09161
0
LINE
8
BLACK
6
CONTINUOUS
10
3.48934
20
-2.09161
11
3.48812
21
-2.09011
0
LINE
8
BLACK
6
CONTINUOUS
10
3.48812
20
-2.09011
11
3.48721
21
-2.08841
0
LINE
8
BLACK
6
CONTINUOUS
10
3.48721
20
-2.08841
11
3.48665
21
-2.08657
0
LINE
8
BLACK
6
CONTINUOUS
10
3.48665
20
-2.08657
11
3.48646
21
-2.08465
0
LINE
8
BLACK
6
CONTINUOUS
10
3.48646
20
-2.08465
11
3.48646
21
-2.06496
0
LINE
8
BLACK
6
CONTINUOUS
10
3.48646
20
-2.06496
11
3.48665
21
-2.06304
0
LINE
8
BLACK
6
CONTINUOUS
10
3.48665
20
-2.06304
11
3.48721
21
-2.06119
0
LINE
8
BLACK
6
CONTINUOUS
10
3.48721
20
-2.06119
11
3.48812
21
-2.05949
0
LINE
8
BLACK
6
CONTINUOUS
10
3.48812
20
-2.05949
11
3.48934
21
-2.058
0
LINE
8
BLACK
6
CONTINUOUS
10
3.48934
20
-2.058
11
3.49083
21
-2.05678
0
LINE
8
BLACK
6
CONTINUOUS
10
3.49083
20
-2.05678
11
3.49253
21
-2.05587
0
LINE
8
BLACK
6
CONTINUOUS
10
3.49253
20
-2.05587
11
3.49438
21
-2.05531
0
LINE
8
BLACK
6
CONTINUOUS
10
3.49438
20
-2.05531
11
3.4963
21
-2.05512
0
LINE
8
BLACK
6
CONTINUOUS
10
3.4963
20
-2.05512
11
3.5337
21
-2.05512
0
LINE
8
BLACK
6
CONTINUOUS
10
3.5337
20
-2.05512
11
3.53562
21
-2.05531
0
LINE
8
BLACK
6
CONTINUOUS
10
3.60964
20
-2.05186
11
3.61148
21
-2.05242
0
LINE
8
BLACK
6
CONTINUOUS
10
3.61148
20
-2.05242
11
3.61318
21
-2.05333
0
LINE
8
BLACK
6
CONTINUOUS
10
3.61318
20
-2.05333
11
3.61468
21
-2.05456
0
LINE
8
BLACK
6
CONTINUOUS
10
3.61468
20
-2.05456
11
3.6159
21
-2.05605
0
LINE
8
BLACK
6
CONTINUOUS
10
3.6159
20
-2.05605
11
3.61681
21
-2.05775
0
LINE
8
BLACK
6
CONTINUOUS
10
3.61681
20
-2.05775
11
3.61737
21
-2.0596
0
LINE
8
BLACK
6
CONTINUOUS
10
3.61737
20
-2.0596
11
3.61756
21
-2.06152
0
LINE
8
BLACK
6
CONTINUOUS
10
3.61756
20
-2.06152
11
3.61756
21
-2.08219
0
LINE
8
BLACK
6
CONTINUOUS
10
3.61756
20
-2.08219
11
3.61737
21
-2.08411
0
LINE
8
BLACK
6
CONTINUOUS
10
3.61737
20
-2.08411
11
3.61681
21
-2.08595
0
LINE
8
BLACK
6
CONTINUOUS
10
3.61681
20
-2.08595
11
3.6159
21
-2.08765
0
LINE
8
BLACK
6
CONTINUOUS
10
3.6159
20
-2.08765
11
3.61468
21
-2.08914
0
LINE
8
BLACK
6
CONTINUOUS
10
3.61468
20
-2.08914
11
3.61318
21
-2.09037
0
LINE
8
BLACK
6
CONTINUOUS
10
3.61318
20
-2.09037
11
3.61148
21
-2.09128
0
LINE
8
BLACK
6
CONTINUOUS
10
3.61148
20
-2.09128
11
3.60964
21
-2.09184
0
LINE
8
BLACK
6
CONTINUOUS
10
3.60964
20
-2.09184
11
3.60772
21
-2.09203
0
LINE
8
BLACK
6
CONTINUOUS
10
3.60772
20
-2.09203
11
3.57228
21
-2.09203
0
LINE
8
BLACK
6
CONTINUOUS
10
3.57228
20
-2.09203
11
3.57036
21
-2.09184
0
LINE
8
BLACK
6
CONTINUOUS
10
3.57036
20
-2.09184
11
3.56852
21
-2.09128
0
LINE
8
BLACK
6
CONTINUOUS
10
3.56852
20
-2.09128
11
3.56682
21
-2.09037
0
LINE
8
BLACK
6
CONTINUOUS
10
3.56682
20
-2.09037
11
3.56532
21
-2.08914
0
LINE
8
BLACK
6
CONTINUOUS
10
3.56532
20
-2.08914
11
3.5641
21
-2.08765
0
LINE
8
BLACK
6
CONTINUOUS
10
3.5641
20
-2.08765
11
3.56319
21
-2.08595
0
LINE
8
BLACK
6
CONTINUOUS
10
3.56319
20
-2.08595
11
3.56263
21
-2.08411
0
LINE
8
BLACK
6
CONTINUOUS
10
3.56263
20
-2.08411
11
3.56244
21
-2.08219
0
LINE
8
BLACK
6
CONTINUOUS
10
3.56244
20
-2.08219
11
3.56244
21
-2.06152
0
LINE
8
BLACK
6
CONTINUOUS
10
3.56244
20
-2.06152
11
3.56263
21
-2.0596
0
LINE
8
BLACK
6
CONTINUOUS
10
3.56263
20
-2.0596
11
3.56319
21
-2.05775
0
LINE
8
BLACK
6
CONTINUOUS
10
3.56319
20
-2.05775
11
3.5641
21
-2.05605
0
LINE
8
BLACK
6
CONTINUOUS
10
3.5641
20
-2.05605
11
3.56532
21
-2.05456
0
LINE
8
BLACK
6
CONTINUOUS
10
3.56532
20
-2.05456
11
3.56682
21
-2.05333
0
LINE
8
BLACK
6
CONTINUOUS
10
3.56682
20
-2.05333
11
3.56852
21
-2.05242
0
LINE
8
BLACK
6
CONTINUOUS
10
3.56852
20
-2.05242
11
3.57036
21
-2.05186
0
LINE
8
BLACK
6
CONTINUOUS
10
3.57036
20
-2.05186
11
3.57228
21
-2.05167
0
LINE
8
BLACK
6
CONTINUOUS
10
3.57228
20
-2.05167
11
3.60772
21
-2.05167
0
LINE
8
BLACK
6
CONTINUOUS
10
3.60772
20
-2.05167
11
3.60964
21
-2.05186
0
LINE
8
BLACK
6
CONTINUOUS
10
3.33445
20
-2.06752
11
3.31673
21
-2.06752
0
LINE
8
BLACK
6
CONTINUOUS
10
3.31673
20
-2.06752
11
3.31673
21
-2.03996
0
LINE
8
BLACK
6
CONTINUOUS
10
3.31673
20
-2.03996
11
3.33445
21
-2.03996
0
LINE
8
BLACK
6
CONTINUOUS
10
3.33445
20
-2.03996
11
3.33445
21
-2.06752
0
LINE
8
BLACK
6
CONTINUOUS
10
3.28327
20
-2.06752
11
3.26555
21
-2.06752
0
LINE
8
BLACK
6
CONTINUOUS
10
3.26555
20
-2.06752
11
3.26555
21
-2.03996
0
LINE
8
BLACK
6
CONTINUOUS
10
3.26555
20
-2.03996
11
3.28327
21
-2.03996
0
LINE
8
BLACK
6
CONTINUOUS
10
3.28327
20
-2.03996
11
3.28327
21
-2.06752
0
LINE
8
BLACK
6
CONTINUOUS
10
4.60208
20
-1.9267
11
4.61118
21
-1.93047
0
LINE
8
BLACK
6
CONTINUOUS
10
4.61118
20
-1.93047
11
4.61937
21
-1.93595
0
LINE
8
BLACK
6
CONTINUOUS
10
4.61937
20
-1.93595
11
4.62634
21
-1.94291
0
LINE
8
BLACK
6
CONTINUOUS
10
4.62634
20
-1.94291
11
4.63181
21
-1.9511
0
LINE
8
BLACK
6
CONTINUOUS
10
4.63181
20
-1.9511
11
4.63558
21
-1.9602
0
LINE
8
BLACK
6
CONTINUOUS
10
4.63558
20
-1.9602
11
4.6375
21
-1.96986
0
LINE
8
BLACK
6
CONTINUOUS
10
4.6375
20
-1.96986
11
4.6375
21
-1.97971
0
LINE
8
BLACK
6
CONTINUOUS
10
4.6375
20
-1.97971
11
4.63558
21
-1.98937
0
LINE
8
BLACK
6
CONTINUOUS
10
4.63558
20
-1.98937
11
4.63181
21
-1.99847
0
LINE
8
BLACK
6
CONTINUOUS
10
4.63181
20
-1.99847
11
4.62634
21
-2.00666
0
LINE
8
BLACK
6
CONTINUOUS
10
4.62634
20
-2.00666
11
4.61937
21
-2.01362
0
LINE
8
BLACK
6
CONTINUOUS
10
4.61937
20
-2.01362
11
4.61118
21
-2.01909
0
LINE
8
BLACK
6
CONTINUOUS
10
4.61118
20
-2.01909
11
4.60208
21
-2.02286
0
LINE
8
BLACK
6
CONTINUOUS
10
4.60208
20
-2.02286
11
4.59242
21
-2.02478
0
LINE
8
BLACK
6
CONTINUOUS
10
4.59242
20
-2.02478
11
4.58258
21
-2.02478
0
LINE
8
BLACK
6
CONTINUOUS
10
4.58258
20
-2.02478
11
4.57292
21
-2.02286
0
LINE
8
BLACK
6
CONTINUOUS
10
4.57292
20
-2.02286
11
4.56382
21
-2.01909
0
LINE
8
BLACK
6
CONTINUOUS
10
4.56382
20
-2.01909
11
4.55563
21
-2.01362
0
LINE
8
BLACK
6
CONTINUOUS
10
4.55563
20
-2.01362
11
4.54866
21
-2.00666
0
LINE
8
BLACK
6
CONTINUOUS
10
4.54866
20
-2.00666
11
4.54319
21
-1.99847
0
LINE
8
BLACK
6
CONTINUOUS
10
4.54319
20
-1.99847
11
4.53942
21
-1.98937
0
LINE
8
BLACK
6
CONTINUOUS
10
4.53942
20
-1.98937
11
4.5375
21
-1.97971
0
LINE
8
BLACK
6
CONTINUOUS
10
4.5375
20
-1.97971
11
4.5375
21
-1.96986
0
LINE
8
BLACK
6
CONTINUOUS
10
4.5375
20
-1.96986
11
4.53942
21
-1.9602
0
LINE
8
BLACK
6
CONTINUOUS
10
4.53942
20
-1.9602
11
4.54319
21
-1.9511
0
LINE
8
BLACK
6
CONTINUOUS
10
4.54319
20
-1.9511
11
4.54866
21
-1.94291
0
LINE
8
BLACK
6
CONTINUOUS
10
4.54866
20
-1.94291
11
4.55563
21
-1.93595
0
LINE
8
BLACK
6
CONTINUOUS
10
4.55563
20
-1.93595
11
4.56382
21
-1.93047
0
LINE
8
BLACK
6
CONTINUOUS
10
4.56382
20
-1.93047
11
4.57292
21
-1.9267
0
LINE
8
BLACK
6
CONTINUOUS
10
4.57292
20
-1.9267
11
4.58258
21
-1.92478
0
LINE
8
BLACK
6
CONTINUOUS
10
4.58258
20
-1.92478
11
4.59242
21
-1.92478
0
LINE
8
BLACK
6
CONTINUOUS
10
4.59242
20
-1.92478
11
4.60208
21
-1.9267
0
LINE
8
BLACK
6
CONTINUOUS
10
3.60964
20
-1.98001
11
3.61148
21
-1.98057
0
LINE
8
BLACK
6
CONTINUOUS
10
3.61148
20
-1.98057
11
3.61318
21
-1.98148
0
LINE
8
BLACK
6
CONTINUOUS
10
3.61318
20
-1.98148
11
3.61468
21
-1.98271
0
LINE
8
BLACK
6
CONTINUOUS
10
3.61468
20
-1.98271
11
3.6159
21
-1.9842
0
LINE
8
BLACK
6
CONTINUOUS
10
3.6159
20
-1.9842
11
3.61681
21
-1.9859
0
LINE
8
BLACK
6
CONTINUOUS
10
3.61681
20
-1.9859
11
3.61737
21
-1.98775
0
LINE
8
BLACK
6
CONTINUOUS
10
3.61737
20
-1.98775
11
3.61756
21
-1.98967
0
LINE
8
BLACK
6
CONTINUOUS
10
3.61756
20
-1.98967
11
3.61756
21
-2.01033
0
LINE
8
BLACK
6
CONTINUOUS
10
3.61756
20
-2.01033
11
3.61737
21
-2.01225
0
LINE
8
BLACK
6
CONTINUOUS
10
3.61737
20
-2.01225
11
3.61681
21
-2.0141
0
LINE
8
BLACK
6
CONTINUOUS
10
3.61681
20
-2.0141
11
3.6159
21
-2.0158
0
LINE
8
BLACK
6
CONTINUOUS
10
3.6159
20
-2.0158
11
3.61468
21
-2.01729
0
LINE
8
BLACK
6
CONTINUOUS
10
3.61468
20
-2.01729
11
3.61318
21
-2.01852
0
LINE
8
BLACK
6
CONTINUOUS
10
3.61318
20
-2.01852
11
3.61148
21
-2.01943
0
LINE
8
BLACK
6
CONTINUOUS
10
3.61148
20
-2.01943
11
3.60964
21
-2.01999
0
LINE
8
BLACK
6
CONTINUOUS
10
3.60964
20
-2.01999
11
3.60772
21
-2.02018
0
LINE
8
BLACK
6
CONTINUOUS
10
3.60772
20
-2.02018
11
3.57228
21
-2.02018
0
LINE
8
BLACK
6
CONTINUOUS
10
3.57228
20
-2.02018
11
3.57036
21
-2.01999
0
LINE
8
BLACK
6
CONTINUOUS
10
3.57036
20
-2.01999
11
3.56852
21
-2.01943
0
LINE
8
BLACK
6
CONTINUOUS
10
3.56852
20
-2.01943
11
3.56682
21
-2.01852
0
LINE
8
BLACK
6
CONTINUOUS
10
3.56682
20
-2.01852
11
3.56532
21
-2.01729
0
LINE
8
BLACK
6
CONTINUOUS
10
3.56532
20
-2.01729
11
3.5641
21
-2.0158
0
LINE
8
BLACK
6
CONTINUOUS
10
3.5641
20
-2.0158
11
3.56319
21
-2.0141
0
LINE
8
BLACK
6
CONTINUOUS
10
3.56319
20
-2.0141
11
3.56263
21
-2.01225
0
LINE
8
BLACK
6
CONTINUOUS
10
3.56263
20
-2.01225
11
3.56244
21
-2.01033
0
LINE
8
BLACK
6
CONTINUOUS
10
3.56244
20
-2.01033
11
3.56244
21
-1.98967
0
LINE
8
BLACK
6
CONTINUOUS
10
3.56244
20
-1.98967
11
3.56263
21
-1.98775
0
LINE
8
BLACK
6
CONTINUOUS
10
3.56263
20
-1.98775
11
3.56319
21
-1.9859
0
LINE
8
BLACK
6
CONTINUOUS
10
3.56319
20
-1.9859
11
3.5641
21
-1.9842
0
LINE
8
BLACK
6
CONTINUOUS
10
3.5641
20
-1.9842
11
3.56532
21
-1.98271
0
LINE
8
BLACK
6
CONTINUOUS
10
3.56532
20
-1.98271
11
3.56682
21
-1.98148
0
LINE
8
BLACK
6
CONTINUOUS
10
3.56682
20
-1.98148
11
3.56852
21
-1.98057
0
LINE
8
BLACK
6
CONTINUOUS
10
3.56852
20
-1.98057
11
3.57036
21
-1.98001
0
LINE
8
BLACK
6
CONTINUOUS
10
3.57036
20
-1.98001
11
3.57228
21
-1.97982
0
LINE
8
BLACK
6
CONTINUOUS
10
3.57228
20
-1.97982
11
3.60772
21
-1.97982
0
LINE
8
BLACK
6
CONTINUOUS
10
3.60772
20
-1.97982
11
3.60964
21
-1.98001
0
LINE
8
BLACK
6
CONTINUOUS
10
3.53562
20
-1.9805
11
3.53747
21
-1.98106
0
LINE
8
BLACK
6
CONTINUOUS
10
3.53747
20
-1.98106
11
3.53917
21
-1.98197
0
LINE
8
BLACK
6
CONTINUOUS
10
3.53917
20
-1.98197
11
3.54066
21
-1.9832
0
LINE
8
BLACK
6
CONTINUOUS
10
3.54066
20
-1.9832
11
3.54188
21
-1.98469
0
LINE
8
BLACK
6
CONTINUOUS
10
3.54188
20
-1.98469
11
3.54279
21
-1.98639
0
LINE
8
BLACK
6
CONTINUOUS
10
3.54279
20
-1.98639
11
3.54335
21
-1.98824
0
LINE
8
BLACK
6
CONTINUOUS
10
3.54335
20
-1.98824
11
3.54354
21
-1.99016
0
LINE
8
BLACK
6
CONTINUOUS
10
3.54354
20
-1.99016
11
3.54354
21
-2.00984
0
LINE
8
BLACK
6
CONTINUOUS
10
3.54354
20
-2.00984
11
3.54335
21
-2.01176
0
LINE
8
BLACK
6
CONTINUOUS
10
3.54335
20
-2.01176
11
3.54279
21
-2.01361
0
LINE
8
BLACK
6
CONTINUOUS
10
3.54279
20
-2.01361
11
3.54188
21
-2.01531
0
LINE
8
BLACK
6
CONTINUOUS
10
3.54188
20
-2.01531
11
3.54066
21
-2.0168
0
LINE
8
BLACK
6
CONTINUOUS
10
3.54066
20
-2.0168
11
3.53917
21
-2.01803
0
LINE
8
BLACK
6
CONTINUOUS
10
3.53917
20
-2.01803
11
3.53747
21
-2.01894
0
LINE
8
BLACK
6
CONTINUOUS
10
3.53747
20
-2.01894
11
3.53562
21
-2.0195
0
LINE
8
BLACK
6
CONTINUOUS
10
3.53562
20
-2.0195
11
3.5337
21
-2.01969
0
LINE
8
BLACK
6
CONTINUOUS
10
3.5337
20
-2.01969
11
3.4963
21
-2.01969
0
LINE
8
BLACK
6
CONTINUOUS
10
3.4963
20
-2.01969
11
3.49438
21
-2.0195
0
LINE
8
BLACK
6
CONTINUOUS
10
3.49438
20
-2.0195
11
3.49253
21
-2.01894
0
LINE
8
BLACK
6
CONTINUOUS
10
3.49253
20
-2.01894
11
3.49083
21
-2.01803
0
LINE
8
BLACK
6
CONTINUOUS
10
3.49083
20
-2.01803
11
3.48934
21
-2.0168
0
LINE
8
BLACK
6
CONTINUOUS
10
3.48934
20
-2.0168
11
3.48812
21
-2.01531
0
LINE
8
BLACK
6
CONTINUOUS
10
3.48812
20
-2.01531
11
3.48721
21
-2.01361
0
LINE
8
BLACK
6
CONTINUOUS
10
3.48721
20
-2.01361
11
3.48665
21
-2.01176
0
LINE
8
BLACK
6
CONTINUOUS
10
3.48665
20
-2.01176
11
3.48646
21
-2.00984
0
LINE
8
BLACK
6
CONTINUOUS
10
3.48646
20
-2.00984
11
3.48646
21
-1.99016
0
LINE
8
BLACK
6
CONTINUOUS
10
3.48646
20
-1.99016
11
3.48665
21
-1.98824
0
LINE
8
BLACK
6
CONTINUOUS
10
3.48665
20
-1.98824
11
3.48721
21
-1.98639
0
LINE
8
BLACK
6
CONTINUOUS
10
3.48721
20
-1.98639
11
3.48812
21
-1.98469
0
LINE
8
BLACK
6
CONTINUOUS
10
3.48812
20
-1.98469
11
3.48934
21
-1.9832
0
LINE
8
BLACK
6
CONTINUOUS
10
3.48934
20
-1.9832
11
3.49083
21
-1.98197
0
LINE
8
BLACK
6
CONTINUOUS
10
3.49083
20
-1.98197
11
3.49253
21
-1.98106
0
LINE
8
BLACK
6
CONTINUOUS
10
3.49253
20
-1.98106
11
3.49438
21
-1.9805
0
LINE
8
BLACK
6
CONTINUOUS
10
3.49438
20
-1.9805
11
3.4963
21
-1.98031
0
LINE
8
BLACK
6
CONTINUOUS
10
3.4963
20
-1.98031
11
3.5337
21
-1.98031
0
LINE
8
BLACK
6
CONTINUOUS
10
3.5337
20
-1.98031
11
3.53562
21
-1.9805
0
LINE
8
BLACK
6
CONTINUOUS
10
3.30886
20
-1.98878
11
3.29114
21
-1.98878
0
LINE
8
BLACK
6
CONTINUOUS
10
3.29114
20
-1.98878
11
3.29114
21
-1.96122
0
LINE
8
BLACK
6
CONTINUOUS
10
3.29114
20
-1.96122
11
3.30886
21
-1.96122
0
LINE
8
BLACK
6
CONTINUOUS
10
3.30886
20
-1.96122
11
3.30886
21
-1.98878
0
LINE
8
BLACK
6
CONTINUOUS
10
3.18562
20
-1.9055
11
3.18747
21
-1.90606
0
LINE
8
BLACK
6
CONTINUOUS
10
3.18747
20
-1.90606
11
3.18917
21
-1.90697
0
LINE
8
BLACK
6
CONTINUOUS
10
3.18917
20
-1.90697
11
3.19066
21
-1.9082
0
LINE
8
BLACK
6
CONTINUOUS
10
3.19066
20
-1.9082
11
3.19188
21
-1.90969
0
LINE
8
BLACK
6
CONTINUOUS
10
3.19188
20
-1.90969
11
3.19279
21
-1.91139
0
LINE
8
BLACK
6
CONTINUOUS
10
3.19279
20
-1.91139
11
3.19335
21
-1.91324
0
LINE
8
BLACK
6
CONTINUOUS
10
3.19335
20
-1.91324
11
3.19354
21
-1.91516
0
LINE
8
BLACK
6
CONTINUOUS
10
3.19354
20
-1.91516
11
3.19354
21
-1.93484
0
LINE
8
BLACK
6
CONTINUOUS
10
3.19354
20
-1.93484
11
3.19335
21
-1.93676
0
LINE
8
BLACK
6
CONTINUOUS
10
3.19335
20
-1.93676
11
3.19279
21
-1.93861
0
LINE
8
BLACK
6
CONTINUOUS
10
3.19279
20
-1.93861
11
3.19188
21
-1.94031
0
LINE
8
BLACK
6
CONTINUOUS
10
3.19188
20
-1.94031
11
3.19066
21
-1.9418
0
LINE
8
BLACK
6
CONTINUOUS
10
3.19066
20
-1.9418
11
3.18917
21
-1.94303
0
LINE
8
BLACK
6
CONTINUOUS
10
3.18917
20
-1.94303
11
3.18747
21
-1.94394
0
LINE
8
BLACK
6
CONTINUOUS
10
3.18747
20
-1.94394
11
3.18562
21
-1.9445
0
LINE
8
BLACK
6
CONTINUOUS
10
3.18562
20
-1.9445
11
3.1837
21
-1.94469
0
LINE
8
BLACK
6
CONTINUOUS
10
3.1837
20
-1.94469
11
3.1463
21
-1.94469
0
LINE
8
BLACK
6
CONTINUOUS
10
3.1463
20
-1.94469
11
3.14438
21
-1.9445
0
LINE
8
BLACK
6
CONTINUOUS
10
3.14438
20
-1.9445
11
3.14253
21
-1.94394
0
LINE
8
BLACK
6
CONTINUOUS
10
3.14253
20
-1.94394
11
3.14083
21
-1.94303
0
LINE
8
BLACK
6
CONTINUOUS
10
3.14083
20
-1.94303
11
3.13934
21
-1.9418
0
LINE
8
BLACK
6
CONTINUOUS
10
3.13934
20
-1.9418
11
3.13812
21
-1.94031
0
LINE
8
BLACK
6
CONTINUOUS
10
3.13812
20
-1.94031
11
3.13721
21
-1.93861
0
LINE
8
BLACK
6
CONTINUOUS
10
3.13721
20
-1.93861
11
3.13665
21
-1.93676
0
LINE
8
BLACK
6
CONTINUOUS
10
3.13665
20
-1.93676
11
3.13646
21
-1.93484
0
LINE
8
BLACK
6
CONTINUOUS
10
3.13646
20
-1.93484
11
3.13646
21
-1.91516
0
LINE
8
BLACK
6
CONTINUOUS
10
3.13646
20
-1.91516
11
3.13665
21
-1.91324
0
LINE
8
BLACK
6
CONTINUOUS
10
3.13665
20
-1.91324
11
3.13721
21
-1.91139
0
LINE
8
BLACK
6
CONTINUOUS
10
3.13721
20
-1.91139
11
3.13812
21
-1.90969
0
LINE
8
BLACK
6
CONTINUOUS
10
3.13812
20
-1.90969
11
3.13934
21
-1.9082
0
LINE
8
BLACK
6
CONTINUOUS
10
3.13934
20
-1.9082
11
3.14083
21
-1.90697
0
LINE
8
BLACK
6
CONTINUOUS
10
3.14083
20
-1.90697
11
3.14253
21
-1.90606
0
LINE
8
BLACK
6
CONTINUOUS
10
3.14253
20
-1.90606
11
3.14438
21
-1.9055
0
LINE
8
BLACK
6
CONTINUOUS
10
3.14438
20
-1.9055
11
3.1463
21
-1.90531
0
LINE
8
BLACK
6
CONTINUOUS
10
3.1463
20
-1.90531
11
3.1837
21
-1.90531
0
LINE
8
BLACK
6
CONTINUOUS
10
3.1837
20
-1.90531
11
3.18562
21
-1.9055
0
LINE
8
BLACK
6
CONTINUOUS
10
3.34562
20
-1.90291
11
3.34747
21
-1.90347
0
LINE
8
BLACK
6
CONTINUOUS
10
3.34747
20
-1.90347
11
3.34917
21
-1.90438
0
LINE
8
BLACK
6
CONTINUOUS
10
3.34917
20
-1.90438
11
3.35066
21
-1.9056
0
LINE
8
BLACK
6
CONTINUOUS
10
3.35066
20
-1.9056
11
3.35188
21
-1.90709
0
LINE
8
BLACK
6
CONTINUOUS
10
3.35188
20
-1.90709
11
3.35279
21
-1.90879
0
LINE
8
BLACK
6
CONTINUOUS
10
3.35279
20
-1.90879
11
3.35335
21
-1.91064
0
LINE
8
BLACK
6
CONTINUOUS
10
3.35335
20
-1.91064
11
3.35354
21
-1.91256
0
LINE
8
BLACK
6
CONTINUOUS
10
3.35354
20
-1.91256
11
3.35354
21
-1.93224
0
LINE
8
BLACK
6
CONTINUOUS
10
3.35354
20
-1.93224
11
3.35335
21
-1.93416
0
LINE
8
BLACK
6
CONTINUOUS
10
3.35335
20
-1.93416
11
3.35279
21
-1.93601
0
LINE
8
BLACK
6
CONTINUOUS
10
3.35279
20
-1.93601
11
3.35188
21
-1.93771
0
LINE
8
BLACK
6
CONTINUOUS
10
3.35188
20
-1.93771
11
3.35066
21
-1.9392
0
LINE
8
BLACK
6
CONTINUOUS
10
3.35066
20
-1.9392
11
3.34917
21
-1.94043
0
LINE
8
BLACK
6
CONTINUOUS
10
3.34917
20
-1.94043
11
3.34747
21
-1.94134
0
LINE
8
BLACK
6
CONTINUOUS
10
3.34747
20
-1.94134
11
3.34562
21
-1.9419
0
LINE
8
BLACK
6
CONTINUOUS
10
3.34562
20
-1.9419
11
3.3437
21
-1.94209
0
LINE
8
BLACK
6
CONTINUOUS
10
3.3437
20
-1.94209
11
3.3063
21
-1.94209
0
LINE
8
BLACK
6
CONTINUOUS
10
3.3063
20
-1.94209
11
3.30438
21
-1.9419
0
LINE
8
BLACK
6
CONTINUOUS
10
3.30438
20
-1.9419
11
3.30253
21
-1.94134
0
LINE
8
BLACK
6
CONTINUOUS
10
3.30253
20
-1.94134
11
3.30083
21
-1.94043
0
LINE
8
BLACK
6
CONTINUOUS
10
3.30083
20
-1.94043
11
3.29934
21
-1.9392
0
LINE
8
BLACK
6
CONTINUOUS
10
3.29934
20
-1.9392
11
3.29812
21
-1.93771
0
LINE
8
BLACK
6
CONTINUOUS
10
3.29812
20
-1.93771
11
3.29721
21
-1.93601
0
LINE
8
BLACK
6
CONTINUOUS
10
3.29721
20
-1.93601
11
3.29665
21
-1.93416
0
LINE
8
BLACK
6
CONTINUOUS
10
3.29665
20
-1.93416
11
3.29646
21
-1.93224
0
LINE
8
BLACK
6
CONTINUOUS
10
3.29646
20
-1.93224
11
3.29646
21
-1.91256
0
LINE
8
BLACK
6
CONTINUOUS
10
3.29646
20
-1.91256
11
3.29665
21
-1.91064
0
LINE
8
BLACK
6
CONTINUOUS
10
3.29665
20
-1.91064
11
3.29721
21
-1.90879
0
LINE
8
BLACK
6
CONTINUOUS
10
3.29721
20
-1.90879
11
3.29812
21
-1.90709
0
LINE
8
BLACK
6
CONTINUOUS
10
3.29812
20
-1.90709
11
3.29934
21
-1.9056
0
LINE
8
BLACK
6
CONTINUOUS
10
3.29934
20
-1.9056
11
3.30083
21
-1.90438
0
LINE
8
BLACK
6
CONTINUOUS
10
3.30083
20
-1.90438
11
3.30253
21
-1.90347
0
LINE
8
BLACK
6
CONTINUOUS
10
3.30253
20
-1.90347
11
3.30438
21
-1.90291
0
LINE
8
BLACK
6
CONTINUOUS
10
3.30438
20
-1.90291
11
3.3063
21
-1.90272
0
LINE
8
BLACK
6
CONTINUOUS
10
3.3063
20
-1.90272
11
3.3437
21
-1.90272
0
LINE
8
BLACK
6
CONTINUOUS
10
3.3437
20
-1.90272
11
3.34562
21
-1.90291
0
LINE
8
BLACK
6
CONTINUOUS
10
3.54964
20
-1.90186
11
3.55148
21
-1.90242
0
LINE
8
BLACK
6
CONTINUOUS
10
3.55148
20
-1.90242
11
3.55318
21
-1.90333
0
LINE
8
BLACK
6
CONTINUOUS
10
3.55318
20
-1.90333
11
3.55468
21
-1.90456
0
LINE
8
BLACK
6
CONTINUOUS
10
3.55468
20
-1.90456
11
3.5559
21
-1.90605
0
LINE
8
BLACK
6
CONTINUOUS
10
3.5559
20
-1.90605
11
3.55681
21
-1.90775
0
LINE
8
BLACK
6
CONTINUOUS
10
3.55681
20
-1.90775
11
3.55737
21
-1.9096
0
LINE
8
BLACK
6
CONTINUOUS
10
3.55737
20
-1.9096
11
3.55756
21
-1.91152
0
LINE
8
BLACK
6
CONTINUOUS
10
3.55756
20
-1.91152
11
3.55756
21
-1.93219
0
LINE
8
BLACK
6
CONTINUOUS
10
3.55756
20
-1.93219
11
3.55737
21
-1.93411
0
LINE
8
BLACK
6
CONTINUOUS
10
3.55737
20
-1.93411
11
3.55681
21
-1.93595
0
LINE
8
BLACK
6
CONTINUOUS
10
3.55681
20
-1.93595
11
3.5559
21
-1.93765
0
LINE
8
BLACK
6
CONTINUOUS
10
3.5559
20
-1.93765
11
3.55468
21
-1.93914
0
LINE
8
BLACK
6
CONTINUOUS
10
3.55468
20
-1.93914
11
3.55318
21
-1.94037
0
LINE
8
BLACK
6
CONTINUOUS
10
3.55318
20
-1.94037
11
3.55148
21
-1.94128
0
LINE
8
BLACK
6
CONTINUOUS
10
3.55148
20
-1.94128
11
3.54964
21
-1.94184
0
LINE
8
BLACK
6
CONTINUOUS
10
3.54964
20
-1.94184
11
3.54772
21
-1.94203
0
LINE
8
BLACK
6
CONTINUOUS
10
3.54772
20
-1.94203
11
3.51228
21
-1.94203
0
LINE
8
BLACK
6
CONTINUOUS
10
3.51228
20
-1.94203
11
3.51036
21
-1.94184
0
LINE
8
BLACK
6
CONTINUOUS
10
3.51036
20
-1.94184
11
3.50852
21
-1.94128
0
LINE
8
BLACK
6
CONTINUOUS
10
3.50852
20
-1.94128
11
3.50682
21
-1.94037
0
LINE
8
BLACK
6
CONTINUOUS
10
3.50682
20
-1.94037
11
3.50532
21
-1.93914
0
LINE
8
BLACK
6
CONTINUOUS
10
3.50532
20
-1.93914
11
3.5041
21
-1.93765
0
LINE
8
BLACK
6
CONTINUOUS
10
3.5041
20
-1.93765
11
3.50319
21
-1.93595
0
LINE
8
BLACK
6
CONTINUOUS
10
3.50319
20
-1.93595
11
3.50263
21
-1.93411
0
LINE
8
BLACK
6
CONTINUOUS
10
3.50263
20
-1.93411
11
3.50244
21
-1.93219
0
LINE
8
BLACK
6
CONTINUOUS
10
3.50244
20
-1.93219
11
3.50244
21
-1.91152
0
LINE
8
BLACK
6
CONTINUOUS
10
3.50244
20
-1.91152
11
3.50263
21
-1.9096
0
LINE
8
BLACK
6
CONTINUOUS
10
3.50263
20
-1.9096
11
3.50319
21
-1.90775
0
LINE
8
BLACK
6
CONTINUOUS
10
3.50319
20
-1.90775
11
3.5041
21
-1.90605
0
LINE
8
BLACK
6
CONTINUOUS
10
3.5041
20
-1.90605
11
3.50532
21
-1.90456
0
LINE
8
BLACK
6
CONTINUOUS
10
3.50532
20
-1.90456
11
3.50682
21
-1.90333
0
LINE
8
BLACK
6
CONTINUOUS
10
3.50682
20
-1.90333
11
3.50852
21
-1.90242
0
LINE
8
BLACK
6
CONTINUOUS
10
3.50852
20
-1.90242
11
3.51036
21
-1.90186
0
LINE
8
BLACK
6
CONTINUOUS
10
3.51036
20
-1.90186
11
3.51228
21
-1.90167
0
LINE
8
BLACK
6
CONTINUOUS
10
3.51228
20
-1.90167
11
3.54772
21
-1.90167
0
LINE
8
BLACK
6
CONTINUOUS
10
3.54772
20
-1.90167
11
3.54964
21
-1.90186
0
LINE
8
BLACK
6
CONTINUOUS
10
3.47464
20
-1.90186
11
3.47648
21
-1.90242
0
LINE
8
BLACK
6
CONTINUOUS
10
3.47648
20
-1.90242
11
3.47818
21
-1.90333
0
LINE
8
BLACK
6
CONTINUOUS
10
3.47818
20
-1.90333
11
3.47968
21
-1.90456
0
LINE
8
BLACK
6
CONTINUOUS
10
3.47968
20
-1.90456
11
3.4809
21
-1.90605
0
LINE
8
BLACK
6
CONTINUOUS
10
3.4809
20
-1.90605
11
3.48181
21
-1.90775
0
LINE
8
BLACK
6
CONTINUOUS
10
3.48181
20
-1.90775
11
3.48237
21
-1.9096
0
LINE
8
BLACK
6
CONTINUOUS
10
3.48237
20
-1.9096
11
3.48256
21
-1.91152
0
LINE
8
BLACK
6
CONTINUOUS
10
3.48256
20
-1.91152
11
3.48256
21
-1.93219
0
LINE
8
BLACK
6
CONTINUOUS
10
3.48256
20
-1.93219
11
3.48237
21
-1.93411
0
LINE
8
BLACK
6
CONTINUOUS
10
3.48237
20
-1.93411
11
3.48181
21
-1.93595
0
LINE
8
BLACK
6
CONTINUOUS
10
3.48181
20
-1.93595
11
3.4809
21
-1.93765
0
LINE
8
BLACK
6
CONTINUOUS
10
3.4809
20
-1.93765
11
3.47968
21
-1.93914
0
LINE
8
BLACK
6
CONTINUOUS
10
3.47968
20
-1.93914
11
3.47818
21
-1.94037
0
LINE
8
BLACK
6
CONTINUOUS
10
3.47818
20
-1.94037
11
3.47648
21
-1.94128
0
LINE
8
BLACK
6
CONTINUOUS
10
3.47648
20
-1.94128
11
3.47464
21
-1.94184
0
LINE
8
BLACK
6
CONTINUOUS
10
3.47464
20
-1.94184
11
3.47272
21
-1.94203
0
LINE
8
BLACK
6
CONTINUOUS
10
3.47272
20
-1.94203
11
3.43728
21
-1.94203
0
LINE
8
BLACK
6
CONTINUOUS
10
3.43728
20
-1.94203
11
3.43536
21
-1.94184
0
LINE
8
BLACK
6
CONTINUOUS
10
3.43536
20
-1.94184
11
3.43352
21
-1.94128
0
LINE
8
BLACK
6
CONTINUOUS
10
3.43352
20
-1.94128
11
3.43182
21
-1.94037
0
LINE
8
BLACK
6
CONTINUOUS
10
3.43182
20
-1.94037
11
3.43032
21
-1.93914
0
LINE
8
BLACK
6
CONTINUOUS
10
3.43032
20
-1.93914
11
3.4291
21
-1.93765
0
LINE
8
BLACK
6
CONTINUOUS
10
3.4291
20
-1.93765
11
3.42819
21
-1.93595
0
LINE
8
BLACK
6
CONTINUOUS
10
3.42819
20
-1.93595
11
3.42763
21
-1.93411
0
LINE
8
BLACK
6
CONTINUOUS
10
3.42763
20
-1.93411
11
3.42744
21
-1.93219
0
LINE
8
BLACK
6
CONTINUOUS
10
3.42744
20
-1.93219
11
3.42744
21
-1.91152
0
LINE
8
BLACK
6
CONTINUOUS
10
3.42744
20
-1.91152
11
3.42763
21
-1.9096
0
LINE
8
BLACK
6
CONTINUOUS
10
3.42763
20
-1.9096
11
3.42819
21
-1.90775
0
LINE
8
BLACK
6
CONTINUOUS
10
3.42819
20
-1.90775
11
3.4291
21
-1.90605
0
LINE
8
BLACK
6
CONTINUOUS
10
3.4291
20
-1.90605
11
3.43032
21
-1.90456
0
LINE
8
BLACK
6
CONTINUOUS
10
3.43032
20
-1.90456
11
3.43182
21
-1.90333
0
LINE
8
BLACK
6
CONTINUOUS
10
3.43182
20
-1.90333
11
3.43352
21
-1.90242
0
LINE
8
BLACK
6
CONTINUOUS
10
3.43352
20
-1.90242
11
3.43536
21
-1.90186
0
LINE
8
BLACK
6
CONTINUOUS
10
3.43536
20
-1.90186
11
3.43728
21
-1.90167
0
LINE
8
BLACK
6
CONTINUOUS
10
3.43728
20
-1.90167
11
3.47272
21
-1.90167
0
LINE
8
BLACK
6
CONTINUOUS
10
3.47272
20
-1.90167
11
3.47464
21
-1.90186
0
LINE
8
BLACK
6
CONTINUOUS
10
3.26964
20
-1.90186
11
3.27148
21
-1.90242
0
LINE
8
BLACK
6
CONTINUOUS
10
3.27148
20
-1.90242
11
3.27318
21
-1.90333
0
LINE
8
BLACK
6
CONTINUOUS
10
3.27318
20
-1.90333
11
3.27468
21
-1.90456
0
LINE
8
BLACK
6
CONTINUOUS
10
3.27468
20
-1.90456
11
3.2759
21
-1.90605
0
LINE
8
BLACK
6
CONTINUOUS
10
3.2759
20
-1.90605
11
3.27681
21
-1.90775
0
LINE
8
BLACK
6
CONTINUOUS
10
3.27681
20
-1.90775
11
3.27737
21
-1.9096
0
LINE
8
BLACK
6
CONTINUOUS
10
3.27737
20
-1.9096
11
3.27756
21
-1.91152
0
LINE
8
BLACK
6
CONTINUOUS
10
3.27756
20
-1.91152
11
3.27756
21
-1.93219
0
LINE
8
BLACK
6
CONTINUOUS
10
3.27756
20
-1.93219
11
3.27737
21
-1.93411
0
LINE
8
BLACK
6
CONTINUOUS
10
3.27737
20
-1.93411
11
3.27681
21
-1.93595
0
LINE
8
BLACK
6
CONTINUOUS
10
3.27681
20
-1.93595
11
3.2759
21
-1.93765
0
LINE
8
BLACK
6
CONTINUOUS
10
3.2759
20
-1.93765
11
3.27468
21
-1.93914
0
LINE
8
BLACK
6
CONTINUOUS
10
3.27468
20
-1.93914
11
3.27318
21
-1.94037
0
LINE
8
BLACK
6
CONTINUOUS
10
3.27318
20
-1.94037
11
3.27148
21
-1.94128
0
LINE
8
BLACK
6
CONTINUOUS
10
3.27148
20
-1.94128
11
3.26964
21
-1.94184
0
LINE
8
BLACK
6
CONTINUOUS
10
3.26964
20
-1.94184
11
3.26772
21
-1.94203
0
LINE
8
BLACK
6
CONTINUOUS
10
3.26772
20
-1.94203
11
3.23228
21
-1.94203
0
LINE
8
BLACK
6
CONTINUOUS
10
3.23228
20
-1.94203
11
3.23036
21
-1.94184
0
LINE
8
BLACK
6
CONTINUOUS
10
3.23036
20
-1.94184
11
3.22852
21
-1.94128
0
LINE
8
BLACK
6
CONTINUOUS
10
3.22852
20
-1.94128
11
3.22682
21
-1.94037
0
LINE
8
BLACK
6
CONTINUOUS
10
3.22682
20
-1.94037
11
3.22532
21
-1.93914
0
LINE
8
BLACK
6
CONTINUOUS
10
3.22532
20
-1.93914
11
3.2241
21
-1.93765
0
LINE
8
BLACK
6
CONTINUOUS
10
3.2241
20
-1.93765
11
3.22319
21
-1.93595
0
LINE
8
BLACK
6
CONTINUOUS
10
3.22319
20
-1.93595
11
3.22263
21
-1.93411
0
LINE
8
BLACK
6
CONTINUOUS
10
3.22263
20
-1.93411
11
3.22244
21
-1.93219
0
LINE
8
BLACK
6
CONTINUOUS
10
3.22244
20
-1.93219
11
3.22244
21
-1.91152
0
LINE
8
BLACK
6
CONTINUOUS
10
3.22244
20
-1.91152
11
3.22263
21
-1.9096
0
LINE
8
BLACK
6
CONTINUOUS
10
3.22263
20
-1.9096
11
3.22319
21
-1.90775
0
LINE
8
BLACK
6
CONTINUOUS
10
3.22319
20
-1.90775
11
3.2241
21
-1.90605
0
LINE
8
BLACK
6
CONTINUOUS
10
3.2241
20
-1.90605
11
3.22532
21
-1.90456
0
LINE
8
BLACK
6
CONTINUOUS
10
3.22532
20
-1.90456
11
3.22682
21
-1.90333
0
LINE
8
BLACK
6
CONTINUOUS
10
3.22682
20
-1.90333
11
3.22852
21
-1.90242
0
LINE
8
BLACK
6
CONTINUOUS
10
3.22852
20
-1.90242
11
3.23036
21
-1.90186
0
LINE
8
BLACK
6
CONTINUOUS
10
3.23036
20
-1.90186
11
3.23228
21
-1.90167
0
LINE
8
BLACK
6
CONTINUOUS
10
3.23228
20
-1.90167
11
3.26772
21
-1.90167
0
LINE
8
BLACK
6
CONTINUOUS
10
3.26772
20
-1.90167
11
3.26964
21
-1.90186
0
LINE
8
BLACK
6
CONTINUOUS
10
5.10208
20
-1.78379
11
5.11118
21
-1.78756
0
LINE
8
BLACK
6
CONTINUOUS
10
5.11118
20
-1.78756
11
5.11937
21
-1.79303
0
LINE
8
BLACK
6
CONTINUOUS
10
5.11937
20
-1.79303
11
5.12634
21
-1.8
0
LINE
8
BLACK
6
CONTINUOUS
10
5.12634
20
-1.8
11
5.13181
21
-1.80819
0
LINE
8
BLACK
6
CONTINUOUS
10
5.13181
20
-1.80819
11
5.13558
21
-1.81729
0
LINE
8
BLACK
6
CONTINUOUS
10
5.13558
20
-1.81729
11
5.1375
21
-1.82695
0
LINE
8
BLACK
6
CONTINUOUS
10
5.1375
20
-1.82695
11
5.1375
21
-1.83679
0
LINE
8
BLACK
6
CONTINUOUS
10
5.1375
20
-1.83679
11
5.13558
21
-1.84645
0
LINE
8
BLACK
6
CONTINUOUS
10
5.13558
20
-1.84645
11
5.13181
21
-1.85555
0
LINE
8
BLACK
6
CONTINUOUS
10
5.13181
20
-1.85555
11
5.12634
21
-1.86374
0
LINE
8
BLACK
6
CONTINUOUS
10
5.12634
20
-1.86374
11
5.11937
21
-1.87071
0
LINE
8
BLACK
6
CONTINUOUS
10
5.11937
20
-1.87071
11
5.11118
21
-1.87618
0
LINE
8
BLACK
6
CONTINUOUS
10
5.11118
20
-1.87618
11
5.10208
21
-1.87995
0
LINE
8
BLACK
6
CONTINUOUS
10
5.10208
20
-1.87995
11
5.09242
21
-1.88187
0
LINE
8
BLACK
6
CONTINUOUS
10
5.09242
20
-1.88187
11
5.08258
21
-1.88187
0
LINE
8
BLACK
6
CONTINUOUS
10
5.08258
20
-1.88187
11
5.07292
21
-1.87995
0
LINE
8
BLACK
6
CONTINUOUS
10
5.07292
20
-1.87995
11
5.06382
21
-1.87618
0
LINE
8
BLACK
6
CONTINUOUS
10
5.06382
20
-1.87618
11
5.05563
21
-1.87071
0
LINE
8
BLACK
6
CONTINUOUS
10
5.05563
20
-1.87071
11
5.04866
21
-1.86374
0
LINE
8
BLACK
6
CONTINUOUS
10
5.04866
20
-1.86374
11
5.04319
21
-1.85555
0
LINE
8
BLACK
6
CONTINUOUS
10
5.04319
20
-1.85555
11
5.03942
21
-1.84645
0
LINE
8
BLACK
6
CONTINUOUS
10
5.03942
20
-1.84645
11
5.0375
21
-1.83679
0
LINE
8
BLACK
6
CONTINUOUS
10
5.0375
20
-1.83679
11
5.0375
21
-1.82695
0
LINE
8
BLACK
6
CONTINUOUS
10
5.0375
20
-1.82695
11
5.03942
21
-1.81729
0
LINE
8
BLACK
6
CONTINUOUS
10
5.03942
20
-1.81729
11
5.04319
21
-1.80819
0
LINE
8
BLACK
6
CONTINUOUS
10
5.04319
20
-1.80819
11
5.04866
21
-1.8
0
LINE
8
BLACK
6
CONTINUOUS
10
5.04866
20
-1.8
11
5.05563
21
-1.79303
0
LINE
8
BLACK
6
CONTINUOUS
10
5.05563
20
-1.79303
11
5.06382
21
-1.78756
0
LINE
8
BLACK
6
CONTINUOUS
10
5.06382
20
-1.78756
11
5.07292
21
-1.78379
0
LINE
8
BLACK
6
CONTINUOUS
10
5.07292
20
-1.78379
11
5.08258
21
-1.78187
0
LINE
8
BLACK
6
CONTINUOUS
10
5.08258
20
-1.78187
11
5.09242
21
-1.78187
0
LINE
8
BLACK
6
CONTINUOUS
10
5.09242
20
-1.78187
11
5.10208
21
-1.78379
0
LINE
8
BLACK
6
CONTINUOUS
10
3.26964
20
-1.83001
11
3.27148
21
-1.83057
0
LINE
8
BLACK
6
CONTINUOUS
10
3.27148
20
-1.83057
11
3.27318
21
-1.83148
0
LINE
8
BLACK
6
CONTINUOUS
10
3.27318
20
-1.83148
11
3.27468
21
-1.83271
0
LINE
8
BLACK
6
CONTINUOUS
10
3.27468
20
-1.83271
11
3.2759
21
-1.8342
0
LINE
8
BLACK
6
CONTINUOUS
10
3.2759
20
-1.8342
11
3.27681
21
-1.8359
0
LINE
8
BLACK
6
CONTINUOUS
10
3.27681
20
-1.8359
11
3.27737
21
-1.83775
0
LINE
8
BLACK
6
CONTINUOUS
10
3.27737
20
-1.83775
11
3.27756
21
-1.83967
0
LINE
8
BLACK
6
CONTINUOUS
10
3.27756
20
-1.83967
11
3.27756
21
-1.86033
0
LINE
8
BLACK
6
CONTINUOUS
10
3.27756
20
-1.86033
11
3.27737
21
-1.86225
0
LINE
8
BLACK
6
CONTINUOUS
10
3.27737
20
-1.86225
11
3.27681
21
-1.8641
0
LINE
8
BLACK
6
CONTINUOUS
10
3.27681
20
-1.8641
11
3.2759
21
-1.8658
0
LINE
8
BLACK
6
CONTINUOUS
10
3.2759
20
-1.8658
11
3.27468
21
-1.86729
0
LINE
8
BLACK
6
CONTINUOUS
10
3.27468
20
-1.86729
11
3.27318
21
-1.86852
0
LINE
8
BLACK
6
CONTINUOUS
10
3.27318
20
-1.86852
11
3.27148
21
-1.86943
0
LINE
8
BLACK
6
CONTINUOUS
10
3.27148
20
-1.86943
11
3.26964
21
-1.86999
0
LINE
8
BLACK
6
CONTINUOUS
10
3.26964
20
-1.86999
11
3.26772
21
-1.87018
0
LINE
8
BLACK
6
CONTINUOUS
10
3.26772
20
-1.87018
11
3.23228
21
-1.87018
0
LINE
8
BLACK
6
CONTINUOUS
10
3.23228
20
-1.87018
11
3.23036
21
-1.86999
0
LINE
8
BLACK
6
CONTINUOUS
10
3.23036
20
-1.86999
11
3.22852
21
-1.86943
0
LINE
8
BLACK
6
CONTINUOUS
10
3.22852
20
-1.86943
11
3.22682
21
-1.86852
0
LINE
8
BLACK
6
CONTINUOUS
10
3.22682
20
-1.86852
11
3.22532
21
-1.86729
0
LINE
8
BLACK
6
CONTINUOUS
10
3.22532
20
-1.86729
11
3.2241
21
-1.8658
0
LINE
8
BLACK
6
CONTINUOUS
10
3.2241
20
-1.8658
11
3.22319
21
-1.8641
0
LINE
8
BLACK
6
CONTINUOUS
10
3.22319
20
-1.8641
11
3.22263
21
-1.86225
0
LINE
8
BLACK
6
CONTINUOUS
10
3.22263
20
-1.86225
11
3.22244
21
-1.86033
0
LINE
8
BLACK
6
CONTINUOUS
10
3.22244
20
-1.86033
11
3.22244
21
-1.83967
0
LINE
8
BLACK
6
CONTINUOUS
10
3.22244
20
-1.83967
11
3.22263
21
-1.83775
0
LINE
8
BLACK
6
CONTINUOUS
10
3.22263
20
-1.83775
11
3.22319
21
-1.8359
0
LINE
8
BLACK
6
CONTINUOUS
10
3.22319
20
-1.8359
11
3.2241
21
-1.8342
0
LINE
8
BLACK
6
CONTINUOUS
10
3.2241
20
-1.8342
11
3.22532
21
-1.83271
0
LINE
8
BLACK
6
CONTINUOUS
10
3.22532
20
-1.83271
11
3.22682
21
-1.83148
0
LINE
8
BLACK
6
CONTINUOUS
10
3.22682
20
-1.83148
11
3.22852
21
-1.83057
0
LINE
8
BLACK
6
CONTINUOUS
10
3.22852
20
-1.83057
11
3.23036
21
-1.83001
0
LINE
8
BLACK
6
CONTINUOUS
10
3.23036
20
-1.83001
11
3.23228
21
-1.82982
0
LINE
8
BLACK
6
CONTINUOUS
10
3.23228
20
-1.82982
11
3.26772
21
-1.82982
0
LINE
8
BLACK
6
CONTINUOUS
10
3.26772
20
-1.82982
11
3.26964
21
-1.83001
0
LINE
8
BLACK
6
CONTINUOUS
10
3.54964
20
-1.83001
11
3.55148
21
-1.83057
0
LINE
8
BLACK
6
CONTINUOUS
10
3.55148
20
-1.83057
11
3.55318
21
-1.83148
0
LINE
8
BLACK
6
CONTINUOUS
10
3.55318
20
-1.83148
11
3.55468
21
-1.83271
0
LINE
8
BLACK
6
CONTINUOUS
10
3.55468
20
-1.83271
11
3.5559
21
-1.8342
0
LINE
8
BLACK
6
CONTINUOUS
10
3.5559
20
-1.8342
11
3.55681
21
-1.8359
0
LINE
8
BLACK
6
CONTINUOUS
10
3.55681
20
-1.8359
11
3.55737
21
-1.83775
0
LINE
8
BLACK
6
CONTINUOUS
10
3.55737
20
-1.83775
11
3.55756
21
-1.83967
0
LINE
8
BLACK
6
CONTINUOUS
10
3.55756
20
-1.83967
11
3.55756
21
-1.86033
0
LINE
8
BLACK
6
CONTINUOUS
10
3.55756
20
-1.86033
11
3.55737
21
-1.86225
0
LINE
8
BLACK
6
CONTINUOUS
10
3.55737
20
-1.86225
11
3.55681
21
-1.8641
0
LINE
8
BLACK
6
CONTINUOUS
10
3.55681
20
-1.8641
11
3.5559
21
-1.8658
0
LINE
8
BLACK
6
CONTINUOUS
10
3.5559
20
-1.8658
11
3.55468
21
-1.86729
0
LINE
8
BLACK
6
CONTINUOUS
10
3.55468
20
-1.86729
11
3.55318
21
-1.86852
0
LINE
8
BLACK
6
CONTINUOUS
10
3.55318
20
-1.86852
11
3.55148
21
-1.86943
0
LINE
8
BLACK
6
CONTINUOUS
10
3.55148
20
-1.86943
11
3.54964
21
-1.86999
0
LINE
8
BLACK
6
CONTINUOUS
10
3.54964
20
-1.86999
11
3.54772
21
-1.87018
0
LINE
8
BLACK
6
CONTINUOUS
10
3.54772
20
-1.87018
11
3.51228
21
-1.87018
0
LINE
8
BLACK
6
CONTINUOUS
10
3.51228
20
-1.87018
11
3.51036
21
-1.86999
0
LINE
8
BLACK
6
CONTINUOUS
10
3.51036
20
-1.86999
11
3.50852
21
-1.86943
0
LINE
8
BLACK
6
CONTINUOUS
10
3.50852
20
-1.86943
11
3.50682
21
-1.86852
0
LINE
8
BLACK
6
CONTINUOUS
10
3.50682
20
-1.86852
11
3.50532
21
-1.86729
0
LINE
8
BLACK
6
CONTINUOUS
10
3.50532
20
-1.86729
11
3.5041
21
-1.8658
0
LINE
8
BLACK
6
CONTINUOUS
10
3.5041
20
-1.8658
11
3.50319
21
-1.8641
0
LINE
8
BLACK
6
CONTINUOUS
10
3.50319
20
-1.8641
11
3.50263
21
-1.86225
0
LINE
8
BLACK
6
CONTINUOUS
10
3.50263
20
-1.86225
11
3.50244
21
-1.86033
0
LINE
8
BLACK
6
CONTINUOUS
10
3.50244
20
-1.86033
11
3.50244
21
-1.83967
0
LINE
8
BLACK
6
CONTINUOUS
10
3.50244
20
-1.83967
11
3.50263
21
-1.83775
0
LINE
8
BLACK
6
CONTINUOUS
10
3.50263
20
-1.83775
11
3.50319
21
-1.8359
0
LINE
8
BLACK
6
CONTINUOUS
10
3.50319
20
-1.8359
11
3.5041
21
-1.8342
0
LINE
8
BLACK
6
CONTINUOUS
10
3.5041
20
-1.8342
11
3.50532
21
-1.83271
0
LINE
8
BLACK
6
CONTINUOUS
10
3.50532
20
-1.83271
11
3.50682
21
-1.83148
0
LINE
8
BLACK
6
CONTINUOUS
10
3.50682
20
-1.83148
11
3.50852
21
-1.83057
0
LINE
8
BLACK
6
CONTINUOUS
10
3.50852
20
-1.83057
11
3.51036
21
-1.83001
0
LINE
8
BLACK
6
CONTINUOUS
10
3.51036
20
-1.83001
11
3.51228
21
-1.82982
0
LINE
8
BLACK
6
CONTINUOUS
10
3.51228
20
-1.82982
11
3.54772
21
-1.82982
0
LINE
8
BLACK
6
CONTINUOUS
10
3.54772
20
-1.82982
11
3.54964
21
-1.83001
0
LINE
8
BLACK
6
CONTINUOUS
10
3.47464
20
-1.83001
11
3.47648
21
-1.83057
0
LINE
8
BLACK
6
CONTINUOUS
10
3.47648
20
-1.83057
11
3.47818
21
-1.83148
0
LINE
8
BLACK
6
CONTINUOUS
10
3.47818
20
-1.83148
11
3.47968
21
-1.83271
0
LINE
8
BLACK
6
CONTINUOUS
10
3.47968
20
-1.83271
11
3.4809
21
-1.8342
0
LINE
8
BLACK
6
CONTINUOUS
10
3.4809
20
-1.8342
11
3.48181
21
-1.8359
0
LINE
8
BLACK
6
CONTINUOUS
10
3.48181
20
-1.8359
11
3.48237
21
-1.83775
0
LINE
8
BLACK
6
CONTINUOUS
10
3.48237
20
-1.83775
11
3.48256
21
-1.83967
0
LINE
8
BLACK
6
CONTINUOUS
10
3.48256
20
-1.83967
11
3.48256
21
-1.86033
0
LINE
8
BLACK
6
CONTINUOUS
10
3.48256
20
-1.86033
11
3.48237
21
-1.86225
0
LINE
8
BLACK
6
CONTINUOUS
10
3.48237
20
-1.86225
11
3.48181
21
-1.8641
0
LINE
8
BLACK
6
CONTINUOUS
10
3.48181
20
-1.8641
11
3.4809
21
-1.8658
0
LINE
8
BLACK
6
CONTINUOUS
10
3.4809
20
-1.8658
11
3.47968
21
-1.86729
0
LINE
8
BLACK
6
CONTINUOUS
10
3.47968
20
-1.86729
11
3.47818
21
-1.86852
0
LINE
8
BLACK
6
CONTINUOUS
10
3.47818
20
-1.86852
11
3.47648
21
-1.86943
0
LINE
8
BLACK
6
CONTINUOUS
10
3.47648
20
-1.86943
11
3.47464
21
-1.86999
0
LINE
8
BLACK
6
CONTINUOUS
10
3.47464
20
-1.86999
11
3.47272
21
-1.87018
0
LINE
8
BLACK
6
CONTINUOUS
10
3.47272
20
-1.87018
11
3.43728
21
-1.87018
0
LINE
8
BLACK
6
CONTINUOUS
10
3.43728
20
-1.87018
11
3.43536
21
-1.86999
0
LINE
8
BLACK
6
CONTINUOUS
10
3.43536
20
-1.86999
11
3.43352
21
-1.86943
0
LINE
8
BLACK
6
CONTINUOUS
10
3.43352
20
-1.86943
11
3.43182
21
-1.86852
0
LINE
8
BLACK
6
CONTINUOUS
10
3.43182
20
-1.86852
11
3.43032
21
-1.86729
0
LINE
8
BLACK
6
CONTINUOUS
10
3.43032
20
-1.86729
11
3.4291
21
-1.8658
0
LINE
8
BLACK
6
CONTINUOUS
10
3.4291
20
-1.8658
11
3.42819
21
-1.8641
0
LINE
8
BLACK
6
CONTINUOUS
10
3.42819
20
-1.8641
11
3.42763
21
-1.86225
0
LINE
8
BLACK
6
CONTINUOUS
10
3.42763
20
-1.86225
11
3.42744
21
-1.86033
0
LINE
8
BLACK
6
CONTINUOUS
10
3.42744
20
-1.86033
11
3.42744
21
-1.83967
0
LINE
8
BLACK
6
CONTINUOUS
10
3.42744
20
-1.83967
11
3.42763
21
-1.83775
0
LINE
8
BLACK
6
CONTINUOUS
10
3.42763
20
-1.83775
11
3.42819
21
-1.8359
0
LINE
8
BLACK
6
CONTINUOUS
10
3.42819
20
-1.8359
11
3.4291
21
-1.8342
0
LINE
8
BLACK
6
CONTINUOUS
10
3.4291
20
-1.8342
11
3.43032
21
-1.83271
0
LINE
8
BLACK
6
CONTINUOUS
10
3.43032
20
-1.83271
11
3.43182
21
-1.83148
0
LINE
8
BLACK
6
CONTINUOUS
10
3.43182
20
-1.83148
11
3.43352
21
-1.83057
0
LINE
8
BLACK
6
CONTINUOUS
10
3.43352
20
-1.83057
11
3.43536
21
-1.83001
0
LINE
8
BLACK
6
CONTINUOUS
10
3.43536
20
-1.83001
11
3.43728
21
-1.82982
0
LINE
8
BLACK
6
CONTINUOUS
10
3.43728
20
-1.82982
11
3.47272
21
-1.82982
0
LINE
8
BLACK
6
CONTINUOUS
10
3.47272
20
-1.82982
11
3.47464
21
-1.83001
0
LINE
8
BLACK
6
CONTINUOUS
10
3.18562
20
-1.8307
11
3.18747
21
-1.83126
0
LINE
8
BLACK
6
CONTINUOUS
10
3.18747
20
-1.83126
11
3.18917
21
-1.83217
0
LINE
8
BLACK
6
CONTINUOUS
10
3.18917
20
-1.83217
11
3.19066
21
-1.83339
0
LINE
8
BLACK
6
CONTINUOUS
10
3.19066
20
-1.83339
11
3.19188
21
-1.83489
0
LINE
8
BLACK
6
CONTINUOUS
10
3.19188
20
-1.83489
11
3.19279
21
-1.83659
0
LINE
8
BLACK
6
CONTINUOUS
10
3.19279
20
-1.83659
11
3.19335
21
-1.83843
0
LINE
8
BLACK
6
CONTINUOUS
10
3.19335
20
-1.83843
11
3.19354
21
-1.84035
0
LINE
8
BLACK
6
CONTINUOUS
10
3.19354
20
-1.84035
11
3.19354
21
-1.86004
0
LINE
8
BLACK
6
CONTINUOUS
10
3.19354
20
-1.86004
11
3.19335
21
-1.86196
0
LINE
8
BLACK
6
CONTINUOUS
10
3.19335
20
-1.86196
11
3.19279
21
-1.86381
0
LINE
8
BLACK
6
CONTINUOUS
10
3.19279
20
-1.86381
11
3.19188
21
-1.86551
0
LINE
8
BLACK
6
CONTINUOUS
10
3.19188
20
-1.86551
11
3.19066
21
-1.867
0
LINE
8
BLACK
6
CONTINUOUS
10
3.19066
20
-1.867
11
3.18917
21
-1.86822
0
LINE
8
BLACK
6
CONTINUOUS
10
3.18917
20
-1.86822
11
3.18747
21
-1.86913
0
LINE
8
BLACK
6
CONTINUOUS
10
3.18747
20
-1.86913
11
3.18562
21
-1.86969
0
LINE
8
BLACK
6
CONTINUOUS
10
3.18562
20
-1.86969
11
3.1837
21
-1.86988
0
LINE
8
BLACK
6
CONTINUOUS
10
3.1837
20
-1.86988
11
3.1463
21
-1.86988
0
LINE
8
BLACK
6
CONTINUOUS
10
3.1463
20
-1.86988
11
3.14438
21
-1.86969
0
LINE
8
BLACK
6
CONTINUOUS
10
3.14438
20
-1.86969
11
3.14253
21
-1.86913
0
LINE
8
BLACK
6
CONTINUOUS
10
3.14253
20
-1.86913
11
3.14083
21
-1.86822
0
LINE
8
BLACK
6
CONTINUOUS
10
3.14083
20
-1.86822
11
3.13934
21
-1.867
0
LINE
8
BLACK
6
CONTINUOUS
10
3.13934
20
-1.867
11
3.13812
21
-1.86551
0
LINE
8
BLACK
6
CONTINUOUS
10
3.13812
20
-1.86551
11
3.13721
21
-1.86381
0
LINE
8
BLACK
6
CONTINUOUS
10
3.13721
20
-1.86381
11
3.13665
21
-1.86196
0
LINE
8
BLACK
6
CONTINUOUS
10
3.13665
20
-1.86196
11
3.13646
21
-1.86004
0
LINE
8
BLACK
6
CONTINUOUS
10
3.13646
20
-1.86004
11
3.13646
21
-1.84035
0
LINE
8
BLACK
6
CONTINUOUS
10
3.13646
20
-1.84035
11
3.13665
21
-1.83843
0
LINE
8
BLACK
6
CONTINUOUS
10
3.13665
20
-1.83843
11
3.13721
21
-1.83659
0
LINE
8
BLACK
6
CONTINUOUS
10
3.13721
20
-1.83659
11
3.13812
21
-1.83489
0
LINE
8
BLACK
6
CONTINUOUS
10
3.13812
20
-1.83489
11
3.13934
21
-1.83339
0
LINE
8
BLACK
6
CONTINUOUS
10
3.13934
20
-1.83339
11
3.14083
21
-1.83217
0
LINE
8
BLACK
6
CONTINUOUS
10
3.14083
20
-1.83217
11
3.14253
21
-1.83126
0
LINE
8
BLACK
6
CONTINUOUS
10
3.14253
20
-1.83126
11
3.14438
21
-1.8307
0
LINE
8
BLACK
6
CONTINUOUS
10
3.14438
20
-1.8307
11
3.1463
21
-1.83051
0
LINE
8
BLACK
6
CONTINUOUS
10
3.1463
20
-1.83051
11
3.1837
21
-1.83051
0
LINE
8
BLACK
6
CONTINUOUS
10
3.1837
20
-1.83051
11
3.18562
21
-1.8307
0
LINE
8
BLACK
6
CONTINUOUS
10
3.34562
20
-1.8281
11
3.34747
21
-1.82866
0
LINE
8
BLACK
6
CONTINUOUS
10
3.34747
20
-1.82866
11
3.34917
21
-1.82957
0
LINE
8
BLACK
6
CONTINUOUS
10
3.34917
20
-1.82957
11
3.35066
21
-1.8308
0
LINE
8
BLACK
6
CONTINUOUS
10
3.35066
20
-1.8308
11
3.35188
21
-1.83229
0
LINE
8
BLACK
6
CONTINUOUS
10
3.35188
20
-1.83229
11
3.35279
21
-1.83399
0
LINE
8
BLACK
6
CONTINUOUS
10
3.35279
20
-1.83399
11
3.35335
21
-1.83584
0
LINE
8
BLACK
6
CONTINUOUS
10
3.35335
20
-1.83584
11
3.35354
21
-1.83776
0
LINE
8
BLACK
6
CONTINUOUS
10
3.35354
20
-1.83776
11
3.35354
21
-1.85744
0
LINE
8
BLACK
6
CONTINUOUS
10
3.35354
20
-1.85744
11
3.35335
21
-1.85936
0
LINE
8
BLACK
6
CONTINUOUS
10
3.35335
20
-1.85936
11
3.35279
21
-1.86121
0
LINE
8
BLACK
6
CONTINUOUS
10
3.35279
20
-1.86121
11
3.35188
21
-1.86291
0
LINE
8
BLACK
6
CONTINUOUS
10
3.35188
20
-1.86291
11
3.35066
21
-1.8644
0
LINE
8
BLACK
6
CONTINUOUS
10
3.35066
20
-1.8644
11
3.34917
21
-1.86562
0
LINE
8
BLACK
6
CONTINUOUS
10
3.34917
20
-1.86562
11
3.34747
21
-1.86653
0
LINE
8
BLACK
6
CONTINUOUS
10
3.34747
20
-1.86653
11
3.34562
21
-1.86709
0
LINE
8
BLACK
6
CONTINUOUS
10
3.34562
20
-1.86709
11
3.3437
21
-1.86728
0
LINE
8
BLACK
6
CONTINUOUS
10
3.3437
20
-1.86728
11
3.3063
21
-1.86728
0
LINE
8
BLACK
6
CONTINUOUS
10
3.3063
20
-1.86728
11
3.30438
21
-1.86709
0
LINE
8
BLACK
6
CONTINUOUS
10
3.30438
20
-1.86709
11
3.30253
21
-1.86653
0
LINE
8
BLACK
6
CONTINUOUS
10
3.30253
20
-1.86653
11
3.30083
21
-1.86562
0
LINE
8
BLACK
6
CONTINUOUS
10
3.30083
20
-1.86562
11
3.29934
21
-1.8644
0
LINE
8
BLACK
6
CONTINUOUS
10
3.29934
20
-1.8644
11
3.29812
21
-1.86291
0
LINE
8
BLACK
6
CONTINUOUS
10
3.29812
20
-1.86291
11
3.29721
21
-1.86121
0
LINE
8
BLACK
6
CONTINUOUS
10
3.29721
20
-1.86121
11
3.29665
21
-1.85936
0
LINE
8
BLACK
6
CONTINUOUS
10
3.29665
20
-1.85936
11
3.29646
21
-1.85744
0
LINE
8
BLACK
6
CONTINUOUS
10
3.29646
20
-1.85744
11
3.29646
21
-1.83776
0
LINE
8
BLACK
6
CONTINUOUS
10
3.29646
20
-1.83776
11
3.29665
21
-1.83584
0
LINE
8
BLACK
6
CONTINUOUS
10
3.29665
20
-1.83584
11
3.29721
21
-1.83399
0
LINE
8
BLACK
6
CONTINUOUS
10
3.29721
20
-1.83399
11
3.29812
21
-1.83229
0
LINE
8
BLACK
6
CONTINUOUS
10
3.29812
20
-1.83229
11
3.29934
21
-1.8308
0
LINE
8
BLACK
6
CONTINUOUS
10
3.29934
20
-1.8308
11
3.30083
21
-1.82957
0
LINE
8
BLACK
6
CONTINUOUS
10
3.30083
20
-1.82957
11
3.30253
21
-1.82866
0
LINE
8
BLACK
6
CONTINUOUS
10
3.30253
20
-1.82866
11
3.30438
21
-1.8281
0
LINE
8
BLACK
6
CONTINUOUS
10
3.30438
20
-1.8281
11
3.3063
21
-1.82791
0
LINE
8
BLACK
6
CONTINUOUS
10
3.3063
20
-1.82791
11
3.3437
21
-1.82791
0
LINE
8
BLACK
6
CONTINUOUS
10
3.3437
20
-1.82791
11
3.34562
21
-1.8281
0
LINE
8
BLACK
6
CONTINUOUS
10
5.56662
20
-1.78844
11
5.57396
21
-1.79067
0
LINE
8
BLACK
6
CONTINUOUS
10
5.57396
20
-1.79067
11
5.58074
21
-1.79429
0
LINE
8
BLACK
6
CONTINUOUS
10
5.58074
20
-1.79429
11
5.58667
21
-1.79916
0
LINE
8
BLACK
6
CONTINUOUS
10
5.58667
20
-1.79916
11
5.59154
21
-1.80509
0
LINE
8
BLACK
6
CONTINUOUS
10
5.59154
20
-1.80509
11
5.59516
21
-1.81186
0
LINE
8
BLACK
6
CONTINUOUS
10
5.59516
20
-1.81186
11
5.59739
21
-1.81921
0
LINE
8
BLACK
6
CONTINUOUS
10
5.59739
20
-1.81921
11
5.59814
21
-1.82685
0
LINE
8
BLACK
6
CONTINUOUS
10
5.59814
20
-1.82685
11
5.59739
21
-1.83449
0
LINE
8
BLACK
6
CONTINUOUS
10
5.59739
20
-1.83449
11
5.59516
21
-1.84184
0
LINE
8
BLACK
6
CONTINUOUS
10
5.59516
20
-1.84184
11
5.59154
21
-1.84861
0
LINE
8
BLACK
6
CONTINUOUS
10
5.59154
20
-1.84861
11
5.58667
21
-1.85454
0
LINE
8
BLACK
6
CONTINUOUS
10
5.58667
20
-1.85454
11
5.58074
21
-1.85941
0
LINE
8
BLACK
6
CONTINUOUS
10
5.58074
20
-1.85941
11
5.57396
21
-1.86303
0
LINE
8
BLACK
6
CONTINUOUS
10
5.57396
20
-1.86303
11
5.56662
21
-1.86526
0
LINE
8
BLACK
6
CONTINUOUS
10
5.56662
20
-1.86526
11
5.56089
21
-1.86583
0
LINE
8
BLACK
6
CONTINUOUS
10
5.56089
20
-1.86583
11
5.47911
21
-1.86583
0
LINE
8
BLACK
6
CONTINUOUS
10
5.47911
20
-1.86583
11
5.47338
21
-1.86526
0
LINE
8
BLACK
6
CONTINUOUS
10
5.47338
20
-1.86526
11
5.46604
21
-1.86303
0
LINE
8
BLACK
6
CONTINUOUS
10
5.46604
20
-1.86303
11
5.45926
21
-1.85941
0
LINE
8
BLACK
6
CONTINUOUS
10
5.45926
20
-1.85941
11
5.45333
21
-1.85454
0
LINE
8
BLACK
6
CONTINUOUS
10
5.45333
20
-1.85454
11
5.44846
21
-1.84861
0
LINE
8
BLACK
6
CONTINUOUS
10
5.44846
20
-1.84861
11
5.44484
21
-1.84184
0
LINE
8
BLACK
6
CONTINUOUS
10
5.44484
20
-1.84184
11
5.44261
21
-1.83449
0
LINE
8
BLACK
6
CONTINUOUS
10
5.44261
20
-1.83449
11
5.44186
21
-1.82685
0
LINE
8
BLACK
6
CONTINUOUS
10
5.44186
20
-1.82685
11
5.44261
21
-1.81921
0
LINE
8
BLACK
6
CONTINUOUS
10
5.44261
20
-1.81921
11
5.44484
21
-1.81186
0
LINE
8
BLACK
6
CONTINUOUS
10
5.44484
20
-1.81186
11
5.44846
21
-1.80509
0
LINE
8
BLACK
6
CONTINUOUS
10
5.44846
20
-1.80509
11
5.45333
21
-1.79916
0
LINE
8
BLACK
6
CONTINUOUS
10
5.45333
20
-1.79916
11
5.45926
21
-1.79429
0
LINE
8
BLACK
6
CONTINUOUS
10
5.45926
20
-1.79429
11
5.46604
21
-1.79067
0
LINE
8
BLACK
6
CONTINUOUS
10
5.46604
20
-1.79067
11
5.47338
21
-1.78844
0
LINE
8
BLACK
6
CONTINUOUS
10
5.47338
20
-1.78844
11
5.47911
21
-1.78787
0
LINE
8
BLACK
6
CONTINUOUS
10
5.47911
20
-1.78787
11
5.56089
21
-1.78787
0
LINE
8
BLACK
6
CONTINUOUS
10
5.56089
20
-1.78787
11
5.56662
21
-1.78844
0
LINE
8
BLACK
6
CONTINUOUS
10
4.16165
20
-1.82579
11
4.11835
21
-1.82579
0
LINE
8
BLACK
6
CONTINUOUS
10
4.11835
20
-1.82579
11
4.11835
21
-1.64469
0
LINE
8
BLACK
6
CONTINUOUS
10
4.11835
20
-1.64469
11
4.16165
21
-1.64469
0
LINE
8
BLACK
6
CONTINUOUS
10
4.16165
20
-1.64469
11
4.16165
21
-1.82579
0
LINE
8
BLACK
6
CONTINUOUS
10
3.96165
20
-1.82579
11
3.91835
21
-1.82579
0
LINE
8
BLACK
6
CONTINUOUS
10
3.91835
20
-1.82579
11
3.91835
21
-1.64469
0
LINE
8
BLACK
6
CONTINUOUS
10
3.91835
20
-1.64469
11
3.96165
21
-1.64469
0
LINE
8
BLACK
6
CONTINUOUS
10
3.96165
20
-1.64469
11
3.96165
21
-1.82579
0
LINE
8
BLACK
6
CONTINUOUS
10
3.2104
20
-1.73763
11
3.21225
21
-1.73819
0
LINE
8
BLACK
6
CONTINUOUS
10
3.21225
20
-1.73819
11
3.21395
21
-1.7391
0
LINE
8
BLACK
6
CONTINUOUS
10
3.21395
20
-1.7391
11
3.21544
21
-1.74032
0
LINE
8
BLACK
6
CONTINUOUS
10
3.21544
20
-1.74032
11
3.21667
21
-1.74182
0
LINE
8
BLACK
6
CONTINUOUS
10
3.21667
20
-1.74182
11
3.21758
21
-1.74352
0
LINE
8
BLACK
6
CONTINUOUS
10
3.21758
20
-1.74352
11
3.21814
21
-1.74536
0
LINE
8
BLACK
6
CONTINUOUS
10
3.21814
20
-1.74536
11
3.21833
21
-1.74728
0
LINE
8
BLACK
6
CONTINUOUS
10
3.21833
20
-1.74728
11
3.21833
21
-1.78272
0
LINE
8
BLACK
6
CONTINUOUS
10
3.21833
20
-1.78272
11
3.21814
21
-1.78464
0
LINE
8
BLACK
6
CONTINUOUS
10
3.21814
20
-1.78464
11
3.21758
21
-1.78648
0
LINE
8
BLACK
6
CONTINUOUS
10
3.21758
20
-1.78648
11
3.21667
21
-1.78818
0
LINE
8
BLACK
6
CONTINUOUS
10
3.21667
20
-1.78818
11
3.21544
21
-1.78968
0
LINE
8
BLACK
6
CONTINUOUS
10
3.21544
20
-1.78968
11
3.21395
21
-1.7909
0
LINE
8
BLACK
6
CONTINUOUS
10
3.21395
20
-1.7909
11
3.21225
21
-1.79181
0
LINE
8
BLACK
6
CONTINUOUS
10
3.21225
20
-1.79181
11
3.2104
21
-1.79237
0
LINE
8
BLACK
6
CONTINUOUS
10
3.2104
20
-1.79237
11
3.20848
21
-1.79256
0
LINE
8
BLACK
6
CONTINUOUS
10
3.20848
20
-1.79256
11
3.18781
21
-1.79256
0
LINE
8
BLACK
6
CONTINUOUS
10
3.18781
20
-1.79256
11
3.18589
21
-1.79237
0
LINE
8
BLACK
6
CONTINUOUS
10
3.18589
20
-1.79237
11
3.18405
21
-1.79181
0
LINE
8
BLACK
6
CONTINUOUS
10
3.18405
20
-1.79181
11
3.18235
21
-1.7909
0
LINE
8
BLACK
6
CONTINUOUS
10
3.18235
20
-1.7909
11
3.18086
21
-1.78968
0
LINE
8
BLACK
6
CONTINUOUS
10
3.18086
20
-1.78968
11
3.17963
21
-1.78818
0
LINE
8
BLACK
6
CONTINUOUS
10
3.17963
20
-1.78818
11
3.17872
21
-1.78648
0
LINE
8
BLACK
6
CONTINUOUS
10
3.17872
20
-1.78648
11
3.17816
21
-1.78464
0
LINE
8
BLACK
6
CONTINUOUS
10
3.17816
20
-1.78464
11
3.17797
21
-1.78272
0
LINE
8
BLACK
6
CONTINUOUS
10
3.17797
20
-1.78272
11
3.17797
21
-1.74728
0
LINE
8
BLACK
6
CONTINUOUS
10
3.17797
20
-1.74728
11
3.17816
21
-1.74536
0
LINE
8
BLACK
6
CONTINUOUS
10
3.17816
20
-1.74536
11
3.17872
21
-1.74352
0
LINE
8
BLACK
6
CONTINUOUS
10
3.17872
20
-1.74352
11
3.17963
21
-1.74182
0
LINE
8
BLACK
6
CONTINUOUS
10
3.17963
20
-1.74182
11
3.18086
21
-1.74032
0
LINE
8
BLACK
6
CONTINUOUS
10
3.18086
20
-1.74032
11
3.18235
21
-1.7391
0
LINE
8
BLACK
6
CONTINUOUS
10
3.18235
20
-1.7391
11
3.18405
21
-1.73819
0
LINE
8
BLACK
6
CONTINUOUS
10
3.18405
20
-1.73819
11
3.18589
21
-1.73763
0
LINE
8
BLACK
6
CONTINUOUS
10
3.18589
20
-1.73763
11
3.18781
21
-1.73744
0
LINE
8
BLACK
6
CONTINUOUS
10
3.18781
20
-1.73744
11
3.20848
21
-1.73744
0
LINE
8
BLACK
6
CONTINUOUS
10
3.20848
20
-1.73744
11
3.2104
21
-1.73763
0
LINE
8
BLACK
6
CONTINUOUS
10
3.28225
20
-1.73763
11
3.2841
21
-1.73819
0
LINE
8
BLACK
6
CONTINUOUS
10
3.2841
20
-1.73819
11
3.2858
21
-1.7391
0
LINE
8
BLACK
6
CONTINUOUS
10
3.2858
20
-1.7391
11
3.28729
21
-1.74032
0
LINE
8
BLACK
6
CONTINUOUS
10
3.28729
20
-1.74032
11
3.28852
21
-1.74182
0
LINE
8
BLACK
6
CONTINUOUS
10
3.28852
20
-1.74182
11
3.28943
21
-1.74352
0
LINE
8
BLACK
6
CONTINUOUS
10
3.28943
20
-1.74352
11
3.28999
21
-1.74536
0
LINE
8
BLACK
6
CONTINUOUS
10
3.28999
20
-1.74536
11
3.29018
21
-1.74728
0
LINE
8
BLACK
6
CONTINUOUS
10
3.29018
20
-1.74728
11
3.29018
21
-1.78272
0
LINE
8
BLACK
6
CONTINUOUS
10
3.29018
20
-1.78272
11
3.28999
21
-1.78464
0
LINE
8
BLACK
6
CONTINUOUS
10
3.28999
20
-1.78464
11
3.28943
21
-1.78648
0
LINE
8
BLACK
6
CONTINUOUS
10
3.28943
20
-1.78648
11
3.28852
21
-1.78818
0
LINE
8
BLACK
6
CONTINUOUS
10
3.28852
20
-1.78818
11
3.28729
21
-1.78968
0
LINE
8
BLACK
6
CONTINUOUS
10
3.28729
20
-1.78968
11
3.2858
21
-1.7909
0
LINE
8
BLACK
6
CONTINUOUS
10
3.2858
20
-1.7909
11
3.2841
21
-1.79181
0
LINE
8
BLACK
6
CONTINUOUS
10
3.2841
20
-1.79181
11
3.28225
21
-1.79237
0
LINE
8
BLACK
6
CONTINUOUS
10
3.28225
20
-1.79237
11
3.28033
21
-1.79256
0
LINE
8
BLACK
6
CONTINUOUS
10
3.28033
20
-1.79256
11
3.25967
21
-1.79256
0
LINE
8
BLACK
6
CONTINUOUS
10
3.25967
20
-1.79256
11
3.25775
21
-1.79237
0
LINE
8
BLACK
6
CONTINUOUS
10
3.25775
20
-1.79237
11
3.2559
21
-1.79181
0
LINE
8
BLACK
6
CONTINUOUS
10
3.2559
20
-1.79181
11
3.2542
21
-1.7909
0
LINE
8
BLACK
6
CONTINUOUS
10
3.2542
20
-1.7909
11
3.25271
21
-1.78968
0
LINE
8
BLACK
6
CONTINUOUS
10
3.25271
20
-1.78968
11
3.25148
21
-1.78818
0
LINE
8
BLACK
6
CONTINUOUS
10
3.25148
20
-1.78818
11
3.25057
21
-1.78648
0
LINE
8
BLACK
6
CONTINUOUS
10
3.25057
20
-1.78648
11
3.25001
21
-1.78464
0
LINE
8
BLACK
6
CONTINUOUS
10
3.25001
20
-1.78464
11
3.24982
21
-1.78272
0
LINE
8
BLACK
6
CONTINUOUS
10
3.24982
20
-1.78272
11
3.24982
21
-1.74728
0
LINE
8
BLACK
6
CONTINUOUS
10
3.24982
20
-1.74728
11
3.25001
21
-1.74536
0
LINE
8
BLACK
6
CONTINUOUS
10
3.25001
20
-1.74536
11
3.25057
21
-1.74352
0
LINE
8
BLACK
6
CONTINUOUS
10
3.25057
20
-1.74352
11
3.25148
21
-1.74182
0
LINE
8
BLACK
6
CONTINUOUS
10
3.25148
20
-1.74182
11
3.25271
21
-1.74032
0
LINE
8
BLACK
6
CONTINUOUS
10
3.25271
20
-1.74032
11
3.2542
21
-1.7391
0
LINE
8
BLACK
6
CONTINUOUS
10
3.2542
20
-1.7391
11
3.2559
21
-1.73819
0
LINE
8
BLACK
6
CONTINUOUS
10
3.2559
20
-1.73819
11
3.25775
21
-1.73763
0
LINE
8
BLACK
6
CONTINUOUS
10
3.25775
20
-1.73763
11
3.25967
21
-1.73744
0
LINE
8
BLACK
6
CONTINUOUS
10
3.25967
20
-1.73744
11
3.28033
21
-1.73744
0
LINE
8
BLACK
6
CONTINUOUS
10
3.28033
20
-1.73744
11
3.28225
21
-1.73763
0
LINE
8
BLACK
6
CONTINUOUS
10
4.60208
20
-1.69442
11
4.61118
21
-1.69819
0
LINE
8
BLACK
6
CONTINUOUS
10
4.61118
20
-1.69819
11
4.61937
21
-1.70366
0
LINE
8
BLACK
6
CONTINUOUS
10
4.61937
20
-1.70366
11
4.62634
21
-1.71063
0
LINE
8
BLACK
6
CONTINUOUS
10
4.62634
20
-1.71063
11
4.63181
21
-1.71882
0
LINE
8
BLACK
6
CONTINUOUS
10
4.63181
20
-1.71882
11
4.63558
21
-1.72792
0
LINE
8
BLACK
6
CONTINUOUS
10
4.63558
20
-1.72792
11
4.6375
21
-1.73758
0
LINE
8
BLACK
6
CONTINUOUS
10
4.6375
20
-1.73758
11
4.6375
21
-1.74742
0
LINE
8
BLACK
6
CONTINUOUS
10
4.6375
20
-1.74742
11
4.63558
21
-1.75708
0
LINE
8
BLACK
6
CONTINUOUS
10
4.63558
20
-1.75708
11
4.63181
21
-1.76618
0
LINE
8
BLACK
6
CONTINUOUS
10
4.63181
20
-1.76618
11
4.62634
21
-1.77437
0
LINE
8
BLACK
6
CONTINUOUS
10
4.62634
20
-1.77437
11
4.61937
21
-1.78134
0
LINE
8
BLACK
6
CONTINUOUS
10
4.61937
20
-1.78134
11
4.61118
21
-1.78681
0
LINE
8
BLACK
6
CONTINUOUS
10
4.61118
20
-1.78681
11
4.60208
21
-1.79058
0
LINE
8
BLACK
6
CONTINUOUS
10
4.60208
20
-1.79058
11
4.59242
21
-1.7925
0
LINE
8
BLACK
6
CONTINUOUS
10
4.59242
20
-1.7925
11
4.58258
21
-1.7925
0
LINE
8
BLACK
6
CONTINUOUS
10
4.58258
20
-1.7925
11
4.57292
21
-1.79058
0
LINE
8
BLACK
6
CONTINUOUS
10
4.57292
20
-1.79058
11
4.56382
21
-1.78681
0
LINE
8
BLACK
6
CONTINUOUS
10
4.56382
20
-1.78681
11
4.55563
21
-1.78134
0
LINE
8
BLACK
6
CONTINUOUS
10
4.55563
20
-1.78134
11
4.54866
21
-1.77437
0
LINE
8
BLACK
6
CONTINUOUS
10
4.54866
20
-1.77437
11
4.54319
21
-1.76618
0
LINE
8
BLACK
6
CONTINUOUS
10
4.54319
20
-1.76618
11
4.53942
21
-1.75708
0
LINE
8
BLACK
6
CONTINUOUS
10
4.53942
20
-1.75708
11
4.5375
21
-1.74742
0
LINE
8
BLACK
6
CONTINUOUS
10
4.5375
20
-1.74742
11
4.5375
21
-1.73758
0
LINE
8
BLACK
6
CONTINUOUS
10
4.5375
20
-1.73758
11
4.53942
21
-1.72792
0
LINE
8
BLACK
6
CONTINUOUS
10
4.53942
20
-1.72792
11
4.54319
21
-1.71882
0
LINE
8
BLACK
6
CONTINUOUS
10
4.54319
20
-1.71882
11
4.54866
21
-1.71063
0
LINE
8
BLACK
6
CONTINUOUS
10
4.54866
20
-1.71063
11
4.55563
21
-1.70366
0
LINE
8
BLACK
6
CONTINUOUS
10
4.55563
20
-1.70366
11
4.56382
21
-1.69819
0
LINE
8
BLACK
6
CONTINUOUS
10
4.56382
20
-1.69819
11
4.57292
21
-1.69442
0
LINE
8
BLACK
6
CONTINUOUS
10
4.57292
20
-1.69442
11
4.58258
21
-1.6925
0
LINE
8
BLACK
6
CONTINUOUS
10
4.58258
20
-1.6925
11
4.59242
21
-1.6925
0
LINE
8
BLACK
6
CONTINUOUS
10
4.59242
20
-1.6925
11
4.60208
21
-1.69442
0
LINE
8
BLACK
6
CONTINUOUS
10
3.56811
20
-1.78402
11
3.53661
21
-1.78402
0
LINE
8
BLACK
6
CONTINUOUS
10
3.53661
20
-1.78402
11
3.53661
21
-1.7663
0
LINE
8
BLACK
6
CONTINUOUS
10
3.53661
20
-1.7663
11
3.56811
21
-1.7663
0
LINE
8
BLACK
6
CONTINUOUS
10
3.56811
20
-1.7663
11
3.56811
21
-1.78402
0
LINE
8
BLACK
6
CONTINUOUS
10
3.79646
20
-1.78402
11
3.76496
21
-1.78402
0
LINE
8
BLACK
6
CONTINUOUS
10
3.76496
20
-1.78402
11
3.76496
21
-1.7663
0
LINE
8
BLACK
6
CONTINUOUS
10
3.76496
20
-1.7663
11
3.79646
21
-1.7663
0
LINE
8
BLACK
6
CONTINUOUS
10
3.79646
20
-1.7663
11
3.79646
21
-1.78402
0
LINE
8
BLACK
6
CONTINUOUS
10
3.47062
20
-1.73531
11
3.47247
21
-1.73587
0
LINE
8
BLACK
6
CONTINUOUS
10
3.47247
20
-1.73587
11
3.47417
21
-1.73678
0
LINE
8
BLACK
6
CONTINUOUS
10
3.47417
20
-1.73678
11
3.47566
21
-1.738
0
LINE
8
BLACK
6
CONTINUOUS
10
3.47566
20
-1.738
11
3.47688
21
-1.73949
0
LINE
8
BLACK
6
CONTINUOUS
10
3.47688
20
-1.73949
11
3.47779
21
-1.74119
0
LINE
8
BLACK
6
CONTINUOUS
10
3.47779
20
-1.74119
11
3.47835
21
-1.74304
0
LINE
8
BLACK
6
CONTINUOUS
10
3.47835
20
-1.74304
11
3.47854
21
-1.74496
0
LINE
8
BLACK
6
CONTINUOUS
10
3.47854
20
-1.74496
11
3.47854
21
-1.76465
0
LINE
8
BLACK
6
CONTINUOUS
10
3.47854
20
-1.76465
11
3.47835
21
-1.76657
0
LINE
8
BLACK
6
CONTINUOUS
10
3.47835
20
-1.76657
11
3.47779
21
-1.76841
0
LINE
8
BLACK
6
CONTINUOUS
10
3.47779
20
-1.76841
11
3.47688
21
-1.77011
0
LINE
8
BLACK
6
CONTINUOUS
10
3.47688
20
-1.77011
11
3.47566
21
-1.77161
0
LINE
8
BLACK
6
CONTINUOUS
10
3.47566
20
-1.77161
11
3.47417
21
-1.77283
0
LINE
8
BLACK
6
CONTINUOUS
10
3.47417
20
-1.77283
11
3.47247
21
-1.77374
0
LINE
8
BLACK
6
CONTINUOUS
10
3.47247
20
-1.77374
11
3.47062
21
-1.7743
0
LINE
8
BLACK
6
CONTINUOUS
10
3.47062
20
-1.7743
11
3.4687
21
-1.77449
0
LINE
8
BLACK
6
CONTINUOUS
10
3.4687
20
-1.77449
11
3.4313
21
-1.77449
0
LINE
8
BLACK
6
CONTINUOUS
10
3.4313
20
-1.77449
11
3.42938
21
-1.7743
0
LINE
8
BLACK
6
CONTINUOUS
10
3.42938
20
-1.7743
11
3.42753
21
-1.77374
0
LINE
8
BLACK
6
CONTINUOUS
10
3.42753
20
-1.77374
11
3.42583
21
-1.77283
0
LINE
8
BLACK
6
CONTINUOUS
10
3.42583
20
-1.77283
11
3.42434
21
-1.77161
0
LINE
8
BLACK
6
CONTINUOUS
10
3.42434
20
-1.77161
11
3.42312
21
-1.77011
0
LINE
8
BLACK
6
CONTINUOUS
10
3.42312
20
-1.77011
11
3.42221
21
-1.76841
0
LINE
8
BLACK
6
CONTINUOUS
10
3.42221
20
-1.76841
11
3.42165
21
-1.76657
0
LINE
8
BLACK
6
CONTINUOUS
10
3.42165
20
-1.76657
11
3.42146
21
-1.76465
0
LINE
8
BLACK
6
CONTINUOUS
10
3.42146
20
-1.76465
11
3.42146
21
-1.74496
0
LINE
8
BLACK
6
CONTINUOUS
10
3.42146
20
-1.74496
11
3.42165
21
-1.74304
0
LINE
8
BLACK
6
CONTINUOUS
10
3.42165
20
-1.74304
11
3.42221
21
-1.74119
0
LINE
8
BLACK
6
CONTINUOUS
10
3.42221
20
-1.74119
11
3.42312
21
-1.73949
0
LINE
8
BLACK
6
CONTINUOUS
10
3.42312
20
-1.73949
11
3.42434
21
-1.738
0
LINE
8
BLACK
6
CONTINUOUS
10
3.42434
20
-1.738
11
3.42583
21
-1.73678
0
LINE
8
BLACK
6
CONTINUOUS
10
3.42583
20
-1.73678
11
3.42753
21
-1.73587
0
LINE
8
BLACK
6
CONTINUOUS
10
3.42753
20
-1.73587
11
3.42938
21
-1.73531
0
LINE
8
BLACK
6
CONTINUOUS
10
3.42938
20
-1.73531
11
3.4313
21
-1.73512
0
LINE
8
BLACK
6
CONTINUOUS
10
3.4313
20
-1.73512
11
3.4687
21
-1.73512
0
LINE
8
BLACK
6
CONTINUOUS
10
3.4687
20
-1.73512
11
3.47062
21
-1.73531
0
LINE
8
BLACK
6
CONTINUOUS
10
3.56811
20
-1.75843
11
3.53661
21
-1.75843
0
LINE
8
BLACK
6
CONTINUOUS
10
3.53661
20
-1.75843
11
3.53661
21
-1.74071
0
LINE
8
BLACK
6
CONTINUOUS
10
3.53661
20
-1.74071
11
3.56811
21
-1.74071
0
LINE
8
BLACK
6
CONTINUOUS
10
3.56811
20
-1.74071
11
3.56811
21
-1.75843
0
LINE
8
BLACK
6
CONTINUOUS
10
3.79646
20
-1.75843
11
3.76496
21
-1.75843
0
LINE
8
BLACK
6
CONTINUOUS
10
3.76496
20
-1.75843
11
3.76496
21
-1.74071
0
LINE
8
BLACK
6
CONTINUOUS
10
3.76496
20
-1.74071
11
3.79646
21
-1.74071
0
LINE
8
BLACK
6
CONTINUOUS
10
3.79646
20
-1.74071
11
3.79646
21
-1.75843
0
LINE
8
BLACK
6
CONTINUOUS
10
3.68504
20
-1.74213
11
3.6378
21
-1.74213
0
LINE
8
BLACK
6
CONTINUOUS
10
3.6378
20
-1.74213
11
3.6378
21
-1.56496
0
LINE
8
BLACK
6
CONTINUOUS
10
3.6378
20
-1.56496
11
3.68504
21
-1.56496
0
LINE
8
BLACK
6
CONTINUOUS
10
3.68504
20
-1.56496
11
3.68504
21
-1.74213
0
LINE
8
BLACK
6
CONTINUOUS
10
3.86964
20
-1.70186
11
3.87148
21
-1.70242
0
LINE
8
BLACK
6
CONTINUOUS
10
3.87148
20
-1.70242
11
3.87318
21
-1.70333
0
LINE
8
BLACK
6
CONTINUOUS
10
3.87318
20
-1.70333
11
3.87468
21
-1.70456
0
LINE
8
BLACK
6
CONTINUOUS
10
3.87468
20
-1.70456
11
3.8759
21
-1.70605
0
LINE
8
BLACK
6
CONTINUOUS
10
3.8759
20
-1.70605
11
3.87681
21
-1.70775
0
LINE
8
BLACK
6
CONTINUOUS
10
3.87681
20
-1.70775
11
3.87737
21
-1.7096
0
LINE
8
BLACK
6
CONTINUOUS
10
3.87737
20
-1.7096
11
3.87756
21
-1.71152
0
LINE
8
BLACK
6
CONTINUOUS
10
3.87756
20
-1.71152
11
3.87756
21
-1.73219
0
LINE
8
BLACK
6
CONTINUOUS
10
3.87756
20
-1.73219
11
3.87737
21
-1.73411
0
LINE
8
BLACK
6
CONTINUOUS
10
3.87737
20
-1.73411
11
3.87681
21
-1.73595
0
LINE
8
BLACK
6
CONTINUOUS
10
3.87681
20
-1.73595
11
3.8759
21
-1.73765
0
LINE
8
BLACK
6
CONTINUOUS
10
3.8759
20
-1.73765
11
3.87468
21
-1.73914
0
LINE
8
BLACK
6
CONTINUOUS
10
3.87468
20
-1.73914
11
3.87318
21
-1.74037
0
LINE
8
BLACK
6
CONTINUOUS
10
3.87318
20
-1.74037
11
3.87148
21
-1.74128
0
LINE
8
BLACK
6
CONTINUOUS
10
3.87148
20
-1.74128
11
3.86964
21
-1.74184
0
LINE
8
BLACK
6
CONTINUOUS
10
3.86964
20
-1.74184
11
3.86772
21
-1.74203
0
LINE
8
BLACK
6
CONTINUOUS
10
3.86772
20
-1.74203
11
3.83228
21
-1.74203
0
LINE
8
BLACK
6
CONTINUOUS
10
3.83228
20
-1.74203
11
3.83036
21
-1.74184
0
LINE
8
BLACK
6
CONTINUOUS
10
3.83036
20
-1.74184
11
3.82852
21
-1.74128
0
LINE
8
BLACK
6
CONTINUOUS
10
3.82852
20
-1.74128
11
3.82682
21
-1.74037
0
LINE
8
BLACK
6
CONTINUOUS
10
3.82682
20
-1.74037
11
3.82532
21
-1.73914
0
LINE
8
BLACK
6
CONTINUOUS
10
3.82532
20
-1.73914
11
3.8241
21
-1.73765
0
LINE
8
BLACK
6
CONTINUOUS
10
3.8241
20
-1.73765
11
3.82319
21
-1.73595
0
LINE
8
BLACK
6
CONTINUOUS
10
3.82319
20
-1.73595
11
3.82263
21
-1.73411
0
LINE
8
BLACK
6
CONTINUOUS
10
3.82263
20
-1.73411
11
3.82244
21
-1.73219
0
LINE
8
BLACK
6
CONTINUOUS
10
3.82244
20
-1.73219
11
3.82244
21
-1.71152
0
LINE
8
BLACK
6
CONTINUOUS
10
3.82244
20
-1.71152
11
3.82263
21
-1.7096
0
LINE
8
BLACK
6
CONTINUOUS
10
3.82263
20
-1.7096
11
3.82319
21
-1.70775
0
LINE
8
BLACK
6
CONTINUOUS
10
3.82319
20
-1.70775
11
3.8241
21
-1.70605
0
LINE
8
BLACK
6
CONTINUOUS
10
3.8241
20
-1.70605
11
3.82532
21
-1.70456
0
LINE
8
BLACK
6
CONTINUOUS
10
3.82532
20
-1.70456
11
3.82682
21
-1.70333
0
LINE
8
BLACK
6
CONTINUOUS
10
3.82682
20
-1.70333
11
3.82852
21
-1.70242
0
LINE
8
BLACK
6
CONTINUOUS
10
3.82852
20
-1.70242
11
3.83036
21
-1.70186
0
LINE
8
BLACK
6
CONTINUOUS
10
3.83036
20
-1.70186
11
3.83228
21
-1.70167
0
LINE
8
BLACK
6
CONTINUOUS
10
3.83228
20
-1.70167
11
3.86772
21
-1.70167
0
LINE
8
BLACK
6
CONTINUOUS
10
3.86772
20
-1.70167
11
3.86964
21
-1.70186
0
LINE
8
BLACK
6
CONTINUOUS
10
3.56811
20
-1.73283
11
3.53661
21
-1.73283
0
LINE
8
BLACK
6
CONTINUOUS
10
3.53661
20
-1.73283
11
3.53661
21
-1.71512
0
LINE
8
BLACK
6
CONTINUOUS
10
3.53661
20
-1.71512
11
3.56811
21
-1.71512
0
LINE
8
BLACK
6
CONTINUOUS
10
3.56811
20
-1.71512
11
3.56811
21
-1.73283
0
LINE
8
BLACK
6
CONTINUOUS
10
3.79646
20
-1.73283
11
3.76496
21
-1.73283
0
LINE
8
BLACK
6
CONTINUOUS
10
3.76496
20
-1.73283
11
3.76496
21
-1.71512
0
LINE
8
BLACK
6
CONTINUOUS
10
3.76496
20
-1.71512
11
3.79646
21
-1.71512
0
LINE
8
BLACK
6
CONTINUOUS
10
3.79646
20
-1.71512
11
3.79646
21
-1.73283
0
LINE
8
BLACK
6
CONTINUOUS
10
3.79646
20
-1.70724
11
3.76496
21
-1.70724
0
LINE
8
BLACK
6
CONTINUOUS
10
3.76496
20
-1.70724
11
3.76496
21
-1.68953
0
LINE
8
BLACK
6
CONTINUOUS
10
3.76496
20
-1.68953
11
3.79646
21
-1.68953
0
LINE
8
BLACK
6
CONTINUOUS
10
3.79646
20
-1.68953
11
3.79646
21
-1.70724
0
LINE
8
BLACK
6
CONTINUOUS
10
3.47062
20
-1.6605
11
3.47247
21
-1.66106
0
LINE
8
BLACK
6
CONTINUOUS
10
3.47247
20
-1.66106
11
3.47417
21
-1.66197
0
LINE
8
BLACK
6
CONTINUOUS
10
3.47417
20
-1.66197
11
3.47566
21
-1.6632
0
LINE
8
BLACK
6
CONTINUOUS
10
3.47566
20
-1.6632
11
3.47688
21
-1.66469
0
LINE
8
BLACK
6
CONTINUOUS
10
3.47688
20
-1.66469
11
3.47779
21
-1.66639
0
LINE
8
BLACK
6
CONTINUOUS
10
3.47779
20
-1.66639
11
3.47835
21
-1.66824
0
LINE
8
BLACK
6
CONTINUOUS
10
3.47835
20
-1.66824
11
3.47854
21
-1.67016
0
LINE
8
BLACK
6
CONTINUOUS
10
3.47854
20
-1.67016
11
3.47854
21
-1.68984
0
LINE
8
BLACK
6
CONTINUOUS
10
3.47854
20
-1.68984
11
3.47835
21
-1.69176
0
LINE
8
BLACK
6
CONTINUOUS
10
3.47835
20
-1.69176
11
3.47779
21
-1.69361
0
LINE
8
BLACK
6
CONTINUOUS
10
3.47779
20
-1.69361
11
3.47688
21
-1.69531
0
LINE
8
BLACK
6
CONTINUOUS
10
3.47688
20
-1.69531
11
3.47566
21
-1.6968
0
LINE
8
BLACK
6
CONTINUOUS
10
3.47566
20
-1.6968
11
3.47417
21
-1.69803
0
LINE
8
BLACK
6
CONTINUOUS
10
3.47417
20
-1.69803
11
3.47247
21
-1.69894
0
LINE
8
BLACK
6
CONTINUOUS
10
3.47247
20
-1.69894
11
3.47062
21
-1.6995
0
LINE
8
BLACK
6
CONTINUOUS
10
3.47062
20
-1.6995
11
3.4687
21
-1.69969
0
LINE
8
BLACK
6
CONTINUOUS
10
3.4687
20
-1.69969
11
3.4313
21
-1.69969
0
LINE
8
BLACK
6
CONTINUOUS
10
3.4313
20
-1.69969
11
3.42938
21
-1.6995
0
LINE
8
BLACK
6
CONTINUOUS
10
3.42938
20
-1.6995
11
3.42753
21
-1.69894
0
LINE
8
BLACK
6
CONTINUOUS
10
3.42753
20
-1.69894
11
3.42583
21
-1.69803
0
LINE
8
BLACK
6
CONTINUOUS
10
3.42583
20
-1.69803
11
3.42434
21
-1.6968
0
LINE
8
BLACK
6
CONTINUOUS
10
3.42434
20
-1.6968
11
3.42312
21
-1.69531
0
LINE
8
BLACK
6
CONTINUOUS
10
3.42312
20
-1.69531
11
3.42221
21
-1.69361
0
LINE
8
BLACK
6
CONTINUOUS
10
3.42221
20
-1.69361
11
3.42165
21
-1.69176
0
LINE
8
BLACK
6
CONTINUOUS
10
3.42165
20
-1.69176
11
3.42146
21
-1.68984
0
LINE
8
BLACK
6
CONTINUOUS
10
3.42146
20
-1.68984
11
3.42146
21
-1.67016
0
LINE
8
BLACK
6
CONTINUOUS
10
3.42146
20
-1.67016
11
3.42165
21
-1.66824
0
LINE
8
BLACK
6
CONTINUOUS
10
3.42165
20
-1.66824
11
3.42221
21
-1.66639
0
LINE
8
BLACK
6
CONTINUOUS
10
3.42221
20
-1.66639
11
3.42312
21
-1.66469
0
LINE
8
BLACK
6
CONTINUOUS
10
3.42312
20
-1.66469
11
3.42434
21
-1.6632
0
LINE
8
BLACK
6
CONTINUOUS
10
3.42434
20
-1.6632
11
3.42583
21
-1.66197
0
LINE
8
BLACK
6
CONTINUOUS
10
3.42583
20
-1.66197
11
3.42753
21
-1.66106
0
LINE
8
BLACK
6
CONTINUOUS
10
3.42753
20
-1.66106
11
3.42938
21
-1.6605
0
LINE
8
BLACK
6
CONTINUOUS
10
3.42938
20
-1.6605
11
3.4313
21
-1.66031
0
LINE
8
BLACK
6
CONTINUOUS
10
3.4313
20
-1.66031
11
3.4687
21
-1.66031
0
LINE
8
BLACK
6
CONTINUOUS
10
3.4687
20
-1.66031
11
3.47062
21
-1.6605
0
LINE
8
BLACK
6
CONTINUOUS
10
3.79646
20
-1.68165
11
3.76496
21
-1.68165
0
LINE
8
BLACK
6
CONTINUOUS
10
3.76496
20
-1.68165
11
3.76496
21
-1.66394
0
LINE
8
BLACK
6
CONTINUOUS
10
3.76496
20
-1.66394
11
3.79646
21
-1.66394
0
LINE
8
BLACK
6
CONTINUOUS
10
3.79646
20
-1.66394
11
3.79646
21
-1.68165
0
LINE
8
BLACK
6
CONTINUOUS
10
3.86964
20
-1.63001
11
3.87148
21
-1.63057
0
LINE
8
BLACK
6
CONTINUOUS
10
3.87148
20
-1.63057
11
3.87318
21
-1.63148
0
LINE
8
BLACK
6
CONTINUOUS
10
3.87318
20
-1.63148
11
3.87468
21
-1.63271
0
LINE
8
BLACK
6
CONTINUOUS
10
3.87468
20
-1.63271
11
3.8759
21
-1.6342
0
LINE
8
BLACK
6
CONTINUOUS
10
3.8759
20
-1.6342
11
3.87681
21
-1.6359
0
LINE
8
BLACK
6
CONTINUOUS
10
3.87681
20
-1.6359
11
3.87737
21
-1.63775
0
LINE
8
BLACK
6
CONTINUOUS
10
3.87737
20
-1.63775
11
3.87756
21
-1.63967
0
LINE
8
BLACK
6
CONTINUOUS
10
3.87756
20
-1.63967
11
3.87756
21
-1.66033
0
LINE
8
BLACK
6
CONTINUOUS
10
3.87756
20
-1.66033
11
3.87737
21
-1.66225
0
LINE
8
BLACK
6
CONTINUOUS
10
3.87737
20
-1.66225
11
3.87681
21
-1.6641
0
LINE
8
BLACK
6
CONTINUOUS
10
3.87681
20
-1.6641
11
3.8759
21
-1.6658
0
LINE
8
BLACK
6
CONTINUOUS
10
3.8759
20
-1.6658
11
3.87468
21
-1.66729
0
LINE
8
BLACK
6
CONTINUOUS
10
3.87468
20
-1.66729
11
3.87318
21
-1.66852
0
LINE
8
BLACK
6
CONTINUOUS
10
3.87318
20
-1.66852
11
3.87148
21
-1.66943
0
LINE
8
BLACK
6
CONTINUOUS
10
3.87148
20
-1.66943
11
3.86964
21
-1.66999
0
LINE
8
BLACK
6
CONTINUOUS
10
3.86964
20
-1.66999
11
3.86772
21
-1.67018
0
LINE
8
BLACK
6
CONTINUOUS
10
3.86772
20
-1.67018
11
3.83228
21
-1.67018
0
LINE
8
BLACK
6
CONTINUOUS
10
3.83228
20
-1.67018
11
3.83036
21
-1.66999
0
LINE
8
BLACK
6
CONTINUOUS
10
3.83036
20
-1.66999
11
3.82852
21
-1.66943
0
LINE
8
BLACK
6
CONTINUOUS
10
3.82852
20
-1.66943
11
3.82682
21
-1.66852
0
LINE
8
BLACK
6
CONTINUOUS
10
3.82682
20
-1.66852
11
3.82532
21
-1.66729
0
LINE
8
BLACK
6
CONTINUOUS
10
3.82532
20
-1.66729
11
3.8241
21
-1.6658
0
LINE
8
BLACK
6
CONTINUOUS
10
3.8241
20
-1.6658
11
3.82319
21
-1.6641
0
LINE
8
BLACK
6
CONTINUOUS
10
3.82319
20
-1.6641
11
3.82263
21
-1.66225
0
LINE
8
BLACK
6
CONTINUOUS
10
3.82263
20
-1.66225
11
3.82244
21
-1.66033
0
LINE
8
BLACK
6
CONTINUOUS
10
3.82244
20
-1.66033
11
3.82244
21
-1.63967
0
LINE
8
BLACK
6
CONTINUOUS
10
3.82244
20
-1.63967
11
3.82263
21
-1.63775
0
LINE
8
BLACK
6
CONTINUOUS
10
3.82263
20
-1.63775
11
3.82319
21
-1.6359
0
LINE
8
BLACK
6
CONTINUOUS
10
3.82319
20
-1.6359
11
3.8241
21
-1.6342
0
LINE
8
BLACK
6
CONTINUOUS
10
3.8241
20
-1.6342
11
3.82532
21
-1.63271
0
LINE
8
BLACK
6
CONTINUOUS
10
3.82532
20
-1.63271
11
3.82682
21
-1.63148
0
LINE
8
BLACK
6
CONTINUOUS
10
3.82682
20
-1.63148
11
3.82852
21
-1.63057
0
LINE
8
BLACK
6
CONTINUOUS
10
3.82852
20
-1.63057
11
3.83036
21
-1.63001
0
LINE
8
BLACK
6
CONTINUOUS
10
3.83036
20
-1.63001
11
3.83228
21
-1.62982
0
LINE
8
BLACK
6
CONTINUOUS
10
3.83228
20
-1.62982
11
3.86772
21
-1.62982
0
LINE
8
BLACK
6
CONTINUOUS
10
3.86772
20
-1.62982
11
3.86964
21
-1.63001
0
LINE
8
BLACK
6
CONTINUOUS
10
5.59795
20
-1.66898
11
5.44205
21
-1.66898
0
LINE
8
BLACK
6
CONTINUOUS
10
5.44205
20
-1.66898
11
5.44205
21
-1.59102
0
LINE
8
BLACK
6
CONTINUOUS
10
5.44205
20
-1.59102
11
5.59795
21
-1.59102
0
LINE
8
BLACK
6
CONTINUOUS
10
5.59795
20
-1.59102
11
5.59795
21
-1.66898
0
LINE
8
BLACK
6
CONTINUOUS
10
3.79646
20
-1.65606
11
3.76496
21
-1.65606
0
LINE
8
BLACK
6
CONTINUOUS
10
3.76496
20
-1.65606
11
3.76496
21
-1.63835
0
LINE
8
BLACK
6
CONTINUOUS
10
3.76496
20
-1.63835
11
3.79646
21
-1.63835
0
LINE
8
BLACK
6
CONTINUOUS
10
3.79646
20
-1.63835
11
3.79646
21
-1.65606
0
LINE
8
BLACK
6
CONTINUOUS
10
5.19562
20
-1.59791
11
5.19747
21
-1.59847
0
LINE
8
BLACK
6
CONTINUOUS
10
5.19747
20
-1.59847
11
5.19917
21
-1.59938
0
LINE
8
BLACK
6
CONTINUOUS
10
5.19917
20
-1.59938
11
5.20066
21
-1.6006
0
LINE
8
BLACK
6
CONTINUOUS
10
5.20066
20
-1.6006
11
5.20188
21
-1.60209
0
LINE
8
BLACK
6
CONTINUOUS
10
5.20188
20
-1.60209
11
5.20279
21
-1.60379
0
LINE
8
BLACK
6
CONTINUOUS
10
5.20279
20
-1.60379
11
5.20335
21
-1.60564
0
LINE
8
BLACK
6
CONTINUOUS
10
5.20335
20
-1.60564
11
5.20354
21
-1.60756
0
LINE
8
BLACK
6
CONTINUOUS
10
5.20354
20
-1.60756
11
5.20354
21
-1.62724
0
LINE
8
BLACK
6
CONTINUOUS
10
5.20354
20
-1.62724
11
5.20335
21
-1.62916
0
LINE
8
BLACK
6
CONTINUOUS
10
5.20335
20
-1.62916
11
5.20279
21
-1.63101
0
LINE
8
BLACK
6
CONTINUOUS
10
5.20279
20
-1.63101
11
5.20188
21
-1.63271
0
LINE
8
BLACK
6
CONTINUOUS
10
5.20188
20
-1.63271
11
5.20066
21
-1.6342
0
LINE
8
BLACK
6
CONTINUOUS
10
5.20066
20
-1.6342
11
5.19917
21
-1.63543
0
LINE
8
BLACK
6
CONTINUOUS
10
5.19917
20
-1.63543
11
5.19747
21
-1.63634
0
LINE
8
BLACK
6
CONTINUOUS
10
5.19747
20
-1.63634
11
5.19562
21
-1.6369
0
LINE
8
BLACK
6
CONTINUOUS
10
5.19562
20
-1.6369
11
5.1937
21
-1.63709
0
LINE
8
BLACK
6
CONTINUOUS
10
5.1937
20
-1.63709
11
5.1563
21
-1.63709
0
LINE
8
BLACK
6
CONTINUOUS
10
5.1563
20
-1.63709
11
5.15438
21
-1.6369
0
LINE
8
BLACK
6
CONTINUOUS
10
5.15438
20
-1.6369
11
5.15253
21
-1.63634
0
LINE
8
BLACK
6
CONTINUOUS
10
5.15253
20
-1.63634
11
5.15083
21
-1.63543
0
LINE
8
BLACK
6
CONTINUOUS
10
5.15083
20
-1.63543
11
5.14934
21
-1.6342
0
LINE
8
BLACK
6
CONTINUOUS
10
5.14934
20
-1.6342
11
5.14812
21
-1.63271
0
LINE
8
BLACK
6
CONTINUOUS
10
5.14812
20
-1.63271
11
5.14721
21
-1.63101
0
LINE
8
BLACK
6
CONTINUOUS
10
5.14721
20
-1.63101
11
5.14665
21
-1.62916
0
LINE
8
BLACK
6
CONTINUOUS
10
5.14665
20
-1.62916
11
5.14646
21
-1.62724
0
LINE
8
BLACK
6
CONTINUOUS
10
5.14646
20
-1.62724
11
5.14646
21
-1.60756
0
LINE
8
BLACK
6
CONTINUOUS
10
5.14646
20
-1.60756
11
5.14665
21
-1.60564
0
LINE
8
BLACK
6
CONTINUOUS
10
5.14665
20
-1.60564
11
5.14721
21
-1.60379
0
LINE
8
BLACK
6
CONTINUOUS
10
5.14721
20
-1.60379
11
5.14812
21
-1.60209
0
LINE
8
BLACK
6
CONTINUOUS
10
5.14812
20
-1.60209
11
5.14934
21
-1.6006
0
LINE
8
BLACK
6
CONTINUOUS
10
5.14934
20
-1.6006
11
5.15083
21
-1.59938
0
LINE
8
BLACK
6
CONTINUOUS
10
5.15083
20
-1.59938
11
5.15253
21
-1.59847
0
LINE
8
BLACK
6
CONTINUOUS
10
5.15253
20
-1.59847
11
5.15438
21
-1.59791
0
LINE
8
BLACK
6
CONTINUOUS
10
5.15438
20
-1.59791
11
5.1563
21
-1.59772
0
LINE
8
BLACK
6
CONTINUOUS
10
5.1563
20
-1.59772
11
5.1937
21
-1.59772
0
LINE
8
BLACK
6
CONTINUOUS
10
5.1937
20
-1.59772
11
5.19562
21
-1.59791
0
LINE
8
BLACK
6
CONTINUOUS
10
5.28062
20
-1.59531
11
5.28247
21
-1.59587
0
LINE
8
BLACK
6
CONTINUOUS
10
5.28247
20
-1.59587
11
5.28417
21
-1.59678
0
LINE
8
BLACK
6
CONTINUOUS
10
5.28417
20
-1.59678
11
5.28566
21
-1.598
0
LINE
8
BLACK
6
CONTINUOUS
10
5.28566
20
-1.598
11
5.28688
21
-1.59949
0
LINE
8
BLACK
6
CONTINUOUS
10
5.28688
20
-1.59949
11
5.28779
21
-1.60119
0
LINE
8
BLACK
6
CONTINUOUS
10
5.28779
20
-1.60119
11
5.28835
21
-1.60304
0
LINE
8
BLACK
6
CONTINUOUS
10
5.28835
20
-1.60304
11
5.28854
21
-1.60496
0
LINE
8
BLACK
6
CONTINUOUS
10
5.28854
20
-1.60496
11
5.28854
21
-1.62465
0
LINE
8
BLACK
6
CONTINUOUS
10
5.28854
20
-1.62465
11
5.28835
21
-1.62657
0
LINE
8
BLACK
6
CONTINUOUS
10
5.28835
20
-1.62657
11
5.28779
21
-1.62841
0
LINE
8
BLACK
6
CONTINUOUS
10
5.28779
20
-1.62841
11
5.28688
21
-1.63011
0
LINE
8
BLACK
6
CONTINUOUS
10
5.28688
20
-1.63011
11
5.28566
21
-1.63161
0
LINE
8
BLACK
6
CONTINUOUS
10
5.28566
20
-1.63161
11
5.28417
21
-1.63283
0
LINE
8
BLACK
6
CONTINUOUS
10
5.28417
20
-1.63283
11
5.28247
21
-1.63374
0
LINE
8
BLACK
6
CONTINUOUS
10
5.28247
20
-1.63374
11
5.28062
21
-1.6343
0
LINE
8
BLACK
6
CONTINUOUS
10
5.28062
20
-1.6343
11
5.2787
21
-1.63449
0
LINE
8
BLACK
6
CONTINUOUS
10
5.2787
20
-1.63449
11
5.2413
21
-1.63449
0
LINE
8
BLACK
6
CONTINUOUS
10
5.2413
20
-1.63449
11
5.23938
21
-1.6343
0
LINE
8
BLACK
6
CONTINUOUS
10
5.23938
20
-1.6343
11
5.23753
21
-1.63374
0
LINE
8
BLACK
6
CONTINUOUS
10
5.23753
20
-1.63374
11
5.23583
21
-1.63283
0
LINE
8
BLACK
6
CONTINUOUS
10
5.23583
20
-1.63283
11
5.23434
21
-1.63161
0
LINE
8
BLACK
6
CONTINUOUS
10
5.23434
20
-1.63161
11
5.23312
21
-1.63011
0
LINE
8
BLACK
6
CONTINUOUS
10
5.23312
20
-1.63011
11
5.23221
21
-1.62841
0
LINE
8
BLACK
6
CONTINUOUS
10
5.23221
20
-1.62841
11
5.23165
21
-1.62657
0
LINE
8
BLACK
6
CONTINUOUS
10
5.23165
20
-1.62657
11
5.23146
21
-1.62465
0
LINE
8
BLACK
6
CONTINUOUS
10
5.23146
20
-1.62465
11
5.23146
21
-1.60496
0
LINE
8
BLACK
6
CONTINUOUS
10
5.23146
20
-1.60496
11
5.23165
21
-1.60304
0
LINE
8
BLACK
6
CONTINUOUS
10
5.23165
20
-1.60304
11
5.23221
21
-1.60119
0
LINE
8
BLACK
6
CONTINUOUS
10
5.23221
20
-1.60119
11
5.23312
21
-1.59949
0
LINE
8
BLACK
6
CONTINUOUS
10
5.23312
20
-1.59949
11
5.23434
21
-1.598
0
LINE
8
BLACK
6
CONTINUOUS
10
5.23434
20
-1.598
11
5.23583
21
-1.59678
0
LINE
8
BLACK
6
CONTINUOUS
10
5.23583
20
-1.59678
11
5.23753
21
-1.59587
0
LINE
8
BLACK
6
CONTINUOUS
10
5.23753
20
-1.59587
11
5.23938
21
-1.59531
0
LINE
8
BLACK
6
CONTINUOUS
10
5.23938
20
-1.59531
11
5.2413
21
-1.59512
0
LINE
8
BLACK
6
CONTINUOUS
10
5.2413
20
-1.59512
11
5.2787
21
-1.59512
0
LINE
8
BLACK
6
CONTINUOUS
10
5.2787
20
-1.59512
11
5.28062
21
-1.59531
0
LINE
8
BLACK
6
CONTINUOUS
10
3.79646
20
-1.63047
11
3.76496
21
-1.63047
0
LINE
8
BLACK
6
CONTINUOUS
10
3.76496
20
-1.63047
11
3.76496
21
-1.61276
0
LINE
8
BLACK
6
CONTINUOUS
10
3.76496
20
-1.61276
11
3.79646
21
-1.61276
0
LINE
8
BLACK
6
CONTINUOUS
10
3.79646
20
-1.61276
11
3.79646
21
-1.63047
0
LINE
8
BLACK
6
CONTINUOUS
10
3.28662
20
-1.54844
11
3.29396
21
-1.55067
0
LINE
8
BLACK
6
CONTINUOUS
10
3.29396
20
-1.55067
11
3.30074
21
-1.55429
0
LINE
8
BLACK
6
CONTINUOUS
10
3.30074
20
-1.55429
11
3.30667
21
-1.55916
0
LINE
8
BLACK
6
CONTINUOUS
10
3.30667
20
-1.55916
11
3.31154
21
-1.56509
0
LINE
8
BLACK
6
CONTINUOUS
10
3.31154
20
-1.56509
11
3.31516
21
-1.57186
0
LINE
8
BLACK
6
CONTINUOUS
10
3.31516
20
-1.57186
11
3.31739
21
-1.57921
0
LINE
8
BLACK
6
CONTINUOUS
10
3.31739
20
-1.57921
11
3.31814
21
-1.58685
0
LINE
8
BLACK
6
CONTINUOUS
10
3.31814
20
-1.58685
11
3.31739
21
-1.59449
0
LINE
8
BLACK
6
CONTINUOUS
10
3.31739
20
-1.59449
11
3.31516
21
-1.60184
0
LINE
8
BLACK
6
CONTINUOUS
10
3.31516
20
-1.60184
11
3.31154
21
-1.60861
0
LINE
8
BLACK
6
CONTINUOUS
10
3.31154
20
-1.60861
11
3.30667
21
-1.61454
0
LINE
8
BLACK
6
CONTINUOUS
10
3.30667
20
-1.61454
11
3.30074
21
-1.61941
0
LINE
8
BLACK
6
CONTINUOUS
10
3.30074
20
-1.61941
11
3.29396
21
-1.62303
0
LINE
8
BLACK
6
CONTINUOUS
10
3.29396
20
-1.62303
11
3.28662
21
-1.62526
0
LINE
8
BLACK
6
CONTINUOUS
10
3.28662
20
-1.62526
11
3.28089
21
-1.62583
0
LINE
8
BLACK
6
CONTINUOUS
10
3.28089
20
-1.62583
11
3.19911
21
-1.62583
0
LINE
8
BLACK
6
CONTINUOUS
10
3.19911
20
-1.62583
11
3.19338
21
-1.62526
0
LINE
8
BLACK
6
CONTINUOUS
10
3.19338
20
-1.62526
11
3.18604
21
-1.62303
0
LINE
8
BLACK
6
CONTINUOUS
10
3.18604
20
-1.62303
11
3.17926
21
-1.61941
0
LINE
8
BLACK
6
CONTINUOUS
10
3.17926
20
-1.61941
11
3.17333
21
-1.61454
0
LINE
8
BLACK
6
CONTINUOUS
10
3.17333
20
-1.61454
11
3.16846
21
-1.60861
0
LINE
8
BLACK
6
CONTINUOUS
10
3.16846
20
-1.60861
11
3.16484
21
-1.60184
0
LINE
8
BLACK
6
CONTINUOUS
10
3.16484
20
-1.60184
11
3.16261
21
-1.59449
0
LINE
8
BLACK
6
CONTINUOUS
10
3.16261
20
-1.59449
11
3.16186
21
-1.58685
0
LINE
8
BLACK
6
CONTINUOUS
10
3.16186
20
-1.58685
11
3.16261
21
-1.57921
0
LINE
8
BLACK
6
CONTINUOUS
10
3.16261
20
-1.57921
11
3.16484
21
-1.57186
0
LINE
8
BLACK
6
CONTINUOUS
10
3.16484
20
-1.57186
11
3.16846
21
-1.56509
0
LINE
8
BLACK
6
CONTINUOUS
10
3.16846
20
-1.56509
11
3.17333
21
-1.55916
0
LINE
8
BLACK
6
CONTINUOUS
10
3.17333
20
-1.55916
11
3.17926
21
-1.55429
0
LINE
8
BLACK
6
CONTINUOUS
10
3.17926
20
-1.55429
11
3.18604
21
-1.55067
0
LINE
8
BLACK
6
CONTINUOUS
10
3.18604
20
-1.55067
11
3.19338
21
-1.54844
0
LINE
8
BLACK
6
CONTINUOUS
10
3.19338
20
-1.54844
11
3.19911
21
-1.54787
0
LINE
8
BLACK
6
CONTINUOUS
10
3.19911
20
-1.54787
11
3.28089
21
-1.54787
0
LINE
8
BLACK
6
CONTINUOUS
10
3.28089
20
-1.54787
11
3.28662
21
-1.54844
0
LINE
8
BLACK
6
CONTINUOUS
10
3.79646
20
-1.60488
11
3.76496
21
-1.60488
0
LINE
8
BLACK
6
CONTINUOUS
10
3.76496
20
-1.60488
11
3.76496
21
-1.58717
0
LINE
8
BLACK
6
CONTINUOUS
10
3.76496
20
-1.58717
11
3.79646
21
-1.58717
0
LINE
8
BLACK
6
CONTINUOUS
10
3.79646
20
-1.58717
11
3.79646
21
-1.60488
0
LINE
8
BLACK
6
CONTINUOUS
10
3.56811
20
-1.60488
11
3.53661
21
-1.60488
0
LINE
8
BLACK
6
CONTINUOUS
10
3.53661
20
-1.60488
11
3.53661
21
-1.58717
0
LINE
8
BLACK
6
CONTINUOUS
10
3.53661
20
-1.58717
11
3.56811
21
-1.58717
0
LINE
8
BLACK
6
CONTINUOUS
10
3.56811
20
-1.58717
11
3.56811
21
-1.60488
0
LINE
8
BLACK
6
CONTINUOUS
10
3.79646
20
-1.57929
11
3.76496
21
-1.57929
0
LINE
8
BLACK
6
CONTINUOUS
10
3.76496
20
-1.57929
11
3.76496
21
-1.56157
0
LINE
8
BLACK
6
CONTINUOUS
10
3.76496
20
-1.56157
11
3.79646
21
-1.56157
0
LINE
8
BLACK
6
CONTINUOUS
10
3.79646
20
-1.56157
11
3.79646
21
-1.57929
0
LINE
8
BLACK
6
CONTINUOUS
10
3.56811
20
-1.57929
11
3.53661
21
-1.57929
0
LINE
8
BLACK
6
CONTINUOUS
10
3.53661
20
-1.57929
11
3.53661
21
-1.56157
0
LINE
8
BLACK
6
CONTINUOUS
10
3.53661
20
-1.56157
11
3.56811
21
-1.56157
0
LINE
8
BLACK
6
CONTINUOUS
10
3.56811
20
-1.56157
11
3.56811
21
-1.57929
0
LINE
8
BLACK
6
CONTINUOUS
10
4.60208
20
-1.47442
11
4.61118
21
-1.47819
0
LINE
8
BLACK
6
CONTINUOUS
10
4.61118
20
-1.47819
11
4.61937
21
-1.48366
0
LINE
8
BLACK
6
CONTINUOUS
10
4.61937
20
-1.48366
11
4.62634
21
-1.49063
0
LINE
8
BLACK
6
CONTINUOUS
10
4.62634
20
-1.49063
11
4.63181
21
-1.49882
0
LINE
8
BLACK
6
CONTINUOUS
10
4.63181
20
-1.49882
11
4.63558
21
-1.50792
0
LINE
8
BLACK
6
CONTINUOUS
10
4.63558
20
-1.50792
11
4.6375
21
-1.51758
0
LINE
8
BLACK
6
CONTINUOUS
10
4.6375
20
-1.51758
11
4.6375
21
-1.52742
0
LINE
8
BLACK
6
CONTINUOUS
10
4.6375
20
-1.52742
11
4.63558
21
-1.53708
0
LINE
8
BLACK
6
CONTINUOUS
10
4.63558
20
-1.53708
11
4.63181
21
-1.54618
0
LINE
8
BLACK
6
CONTINUOUS
10
4.63181
20
-1.54618
11
4.62634
21
-1.55437
0
LINE
8
BLACK
6
CONTINUOUS
10
4.62634
20
-1.55437
11
4.61937
21
-1.56134
0
LINE
8
BLACK
6
CONTINUOUS
10
4.61937
20
-1.56134
11
4.61118
21
-1.56681
0
LINE
8
BLACK
6
CONTINUOUS
10
4.61118
20
-1.56681
11
4.60208
21
-1.57058
0
LINE
8
BLACK
6
CONTINUOUS
10
4.60208
20
-1.57058
11
4.59242
21
-1.5725
0
LINE
8
BLACK
6
CONTINUOUS
10
4.59242
20
-1.5725
11
4.58258
21
-1.5725
0
LINE
8
BLACK
6
CONTINUOUS
10
4.58258
20
-1.5725
11
4.57292
21
-1.57058
0
LINE
8
BLACK
6
CONTINUOUS
10
4.57292
20
-1.57058
11
4.56382
21
-1.56681
0
LINE
8
BLACK
6
CONTINUOUS
10
4.56382
20
-1.56681
11
4.55563
21
-1.56134
0
LINE
8
BLACK
6
CONTINUOUS
10
4.55563
20
-1.56134
11
4.54866
21
-1.55437
0
LINE
8
BLACK
6
CONTINUOUS
10
4.54866
20
-1.55437
11
4.54319
21
-1.54618
0
LINE
8
BLACK
6
CONTINUOUS
10
4.54319
20
-1.54618
11
4.53942
21
-1.53708
0
LINE
8
BLACK
6
CONTINUOUS
10
4.53942
20
-1.53708
11
4.5375
21
-1.52742
0
LINE
8
BLACK
6
CONTINUOUS
10
4.5375
20
-1.52742
11
4.5375
21
-1.51758
0
LINE
8
BLACK
6
CONTINUOUS
10
4.5375
20
-1.51758
11
4.53942
21
-1.50792
0
LINE
8
BLACK
6
CONTINUOUS
10
4.53942
20
-1.50792
11
4.54319
21
-1.49882
0
LINE
8
BLACK
6
CONTINUOUS
10
4.54319
20
-1.49882
11
4.54866
21
-1.49063
0
LINE
8
BLACK
6
CONTINUOUS
10
4.54866
20
-1.49063
11
4.55563
21
-1.48366
0
LINE
8
BLACK
6
CONTINUOUS
10
4.55563
20
-1.48366
11
4.56382
21
-1.47819
0
LINE
8
BLACK
6
CONTINUOUS
10
4.56382
20
-1.47819
11
4.57292
21
-1.47442
0
LINE
8
BLACK
6
CONTINUOUS
10
4.57292
20
-1.47442
11
4.58258
21
-1.4725
0
LINE
8
BLACK
6
CONTINUOUS
10
4.58258
20
-1.4725
11
4.59242
21
-1.4725
0
LINE
8
BLACK
6
CONTINUOUS
10
4.59242
20
-1.4725
11
4.60208
21
-1.47442
0
LINE
8
BLACK
6
CONTINUOUS
10
5.19562
20
-1.5231
11
5.19747
21
-1.52366
0
LINE
8
BLACK
6
CONTINUOUS
10
5.19747
20
-1.52366
11
5.19917
21
-1.52457
0
LINE
8
BLACK
6
CONTINUOUS
10
5.19917
20
-1.52457
11
5.20066
21
-1.5258
0
LINE
8
BLACK
6
CONTINUOUS
10
5.20066
20
-1.5258
11
5.20188
21
-1.52729
0
LINE
8
BLACK
6
CONTINUOUS
10
5.20188
20
-1.52729
11
5.20279
21
-1.52899
0
LINE
8
BLACK
6
CONTINUOUS
10
5.20279
20
-1.52899
11
5.20335
21
-1.53084
0
LINE
8
BLACK
6
CONTINUOUS
10
5.20335
20
-1.53084
11
5.20354
21
-1.53276
0
LINE
8
BLACK
6
CONTINUOUS
10
5.20354
20
-1.53276
11
5.20354
21
-1.55244
0
LINE
8
BLACK
6
CONTINUOUS
10
5.20354
20
-1.55244
11
5.20335
21
-1.55436
0
LINE
8
BLACK
6
CONTINUOUS
10
5.20335
20
-1.55436
11
5.20279
21
-1.55621
0
LINE
8
BLACK
6
CONTINUOUS
10
5.20279
20
-1.55621
11
5.20188
21
-1.55791
0
LINE
8
BLACK
6
CONTINUOUS
10
5.20188
20
-1.55791
11
5.20066
21
-1.5594
0
LINE
8
BLACK
6
CONTINUOUS
10
5.20066
20
-1.5594
11
5.19917
21
-1.56062
0
LINE
8
BLACK
6
CONTINUOUS
10
5.19917
20
-1.56062
11
5.19747
21
-1.56153
0
LINE
8
BLACK
6
CONTINUOUS
10
5.19747
20
-1.56153
11
5.19562
21
-1.56209
0
LINE
8
BLACK
6
CONTINUOUS
10
5.19562
20
-1.56209
11
5.1937
21
-1.56228
0
LINE
8
BLACK
6
CONTINUOUS
10
5.1937
20
-1.56228
11
5.1563
21
-1.56228
0
LINE
8
BLACK
6
CONTINUOUS
10
5.1563
20
-1.56228
11
5.15438
21
-1.56209
0
LINE
8
BLACK
6
CONTINUOUS
10
5.15438
20
-1.56209
11
5.15253
21
-1.56153
0
LINE
8
BLACK
6
CONTINUOUS
10
5.15253
20
-1.56153
11
5.15083
21
-1.56062
0
LINE
8
BLACK
6
CONTINUOUS
10
5.15083
20
-1.56062
11
5.14934
21
-1.5594
0
LINE
8
BLACK
6
CONTINUOUS
10
5.14934
20
-1.5594
11
5.14812
21
-1.55791
0
LINE
8
BLACK
6
CONTINUOUS
10
5.14812
20
-1.55791
11
5.14721
21
-1.55621
0
LINE
8
BLACK
6
CONTINUOUS
10
5.14721
20
-1.55621
11
5.14665
21
-1.55436
0
LINE
8
BLACK
6
CONTINUOUS
10
5.14665
20
-1.55436
11
5.14646
21
-1.55244
0
LINE
8
BLACK
6
CONTINUOUS
10
5.14646
20
-1.55244
11
5.14646
21
-1.53276
0
LINE
8
BLACK
6
CONTINUOUS
10
5.14646
20
-1.53276
11
5.14665
21
-1.53084
0
LINE
8
BLACK
6
CONTINUOUS
10
5.14665
20
-1.53084
11
5.14721
21
-1.52899
0
LINE
8
BLACK
6
CONTINUOUS
10
5.14721
20
-1.52899
11
5.14812
21
-1.52729
0
LINE
8
BLACK
6
CONTINUOUS
10
5.14812
20
-1.52729
11
5.14934
21
-1.5258
0
LINE
8
BLACK
6
CONTINUOUS
10
5.14934
20
-1.5258
11
5.15083
21
-1.52457
0
LINE
8
BLACK
6
CONTINUOUS
10
5.15083
20
-1.52457
11
5.15253
21
-1.52366
0
LINE
8
BLACK
6
CONTINUOUS
10
5.15253
20
-1.52366
11
5.15438
21
-1.5231
0
LINE
8
BLACK
6
CONTINUOUS
10
5.15438
20
-1.5231
11
5.1563
21
-1.52291
0
LINE
8
BLACK
6
CONTINUOUS
10
5.1563
20
-1.52291
11
5.1937
21
-1.52291
0
LINE
8
BLACK
6
CONTINUOUS
10
5.1937
20
-1.52291
11
5.19562
21
-1.5231
0
LINE
8
BLACK
6
CONTINUOUS
10
5.28062
20
-1.5205
11
5.28247
21
-1.52106
0
LINE
8
BLACK
6
CONTINUOUS
10
5.28247
20
-1.52106
11
5.28417
21
-1.52197
0
LINE
8
BLACK
6
CONTINUOUS
10
5.28417
20
-1.52197
11
5.28566
21
-1.5232
0
LINE
8
BLACK
6
CONTINUOUS
10
5.28566
20
-1.5232
11
5.28688
21
-1.52469
0
LINE
8
BLACK
6
CONTINUOUS
10
5.28688
20
-1.52469
11
5.28779
21
-1.52639
0
LINE
8
BLACK
6
CONTINUOUS
10
5.28779
20
-1.52639
11
5.28835
21
-1.52824
0
LINE
8
BLACK
6
CONTINUOUS
10
5.28835
20
-1.52824
11
5.28854
21
-1.53016
0
LINE
8
BLACK
6
CONTINUOUS
10
5.28854
20
-1.53016
11
5.28854
21
-1.54984
0
LINE
8
BLACK
6
CONTINUOUS
10
5.28854
20
-1.54984
11
5.28835
21
-1.55176
0
LINE
8
BLACK
6
CONTINUOUS
10
5.28835
20
-1.55176
11
5.28779
21
-1.55361
0
LINE
8
BLACK
6
CONTINUOUS
10
5.28779
20
-1.55361
11
5.28688
21
-1.55531
0
LINE
8
BLACK
6
CONTINUOUS
10
5.28688
20
-1.55531
11
5.28566
21
-1.5568
0
LINE
8
BLACK
6
CONTINUOUS
10
5.28566
20
-1.5568
11
5.28417
21
-1.55803
0
LINE
8
BLACK
6
CONTINUOUS
10
5.28417
20
-1.55803
11
5.28247
21
-1.55894
0
LINE
8
BLACK
6
CONTINUOUS
10
5.28247
20
-1.55894
11
5.28062
21
-1.5595
0
LINE
8
BLACK
6
CONTINUOUS
10
5.28062
20
-1.5595
11
5.2787
21
-1.55969
0
LINE
8
BLACK
6
CONTINUOUS
10
5.2787
20
-1.55969
11
5.2413
21
-1.55969
0
LINE
8
BLACK
6
CONTINUOUS
10
5.2413
20
-1.55969
11
5.23938
21
-1.5595
0
LINE
8
BLACK
6
CONTINUOUS
10
5.23938
20
-1.5595
11
5.23753
21
-1.55894
0
LINE
8
BLACK
6
CONTINUOUS
10
5.23753
20
-1.55894
11
5.23583
21
-1.55803
0
LINE
8
BLACK
6
CONTINUOUS
10
5.23583
20
-1.55803
11
5.23434
21
-1.5568
0
LINE
8
BLACK
6
CONTINUOUS
10
5.23434
20
-1.5568
11
5.23312
21
-1.55531
0
LINE
8
BLACK
6
CONTINUOUS
10
5.23312
20
-1.55531
11
5.23221
21
-1.55361
0
LINE
8
BLACK
6
CONTINUOUS
10
5.23221
20
-1.55361
11
5.23165
21
-1.55176
0
LINE
8
BLACK
6
CONTINUOUS
10
5.23165
20
-1.55176
11
5.23146
21
-1.54984
0
LINE
8
BLACK
6
CONTINUOUS
10
5.23146
20
-1.54984
11
5.23146
21
-1.53016
0
LINE
8
BLACK
6
CONTINUOUS
10
5.23146
20
-1.53016
11
5.23165
21
-1.52824
0
LINE
8
BLACK
6
CONTINUOUS
10
5.23165
20
-1.52824
11
5.23221
21
-1.52639
0
LINE
8
BLACK
6
CONTINUOUS
10
5.23221
20
-1.52639
11
5.23312
21
-1.52469
0
LINE
8
BLACK
6
CONTINUOUS
10
5.23312
20
-1.52469
11
5.23434
21
-1.5232
0
LINE
8
BLACK
6
CONTINUOUS
10
5.23434
20
-1.5232
11
5.23583
21
-1.52197
0
LINE
8
BLACK
6
CONTINUOUS
10
5.23583
20
-1.52197
11
5.23753
21
-1.52106
0
LINE
8
BLACK
6
CONTINUOUS
10
5.23753
20
-1.52106
11
5.23938
21
-1.5205
0
LINE
8
BLACK
6
CONTINUOUS
10
5.23938
20
-1.5205
11
5.2413
21
-1.52031
0
LINE
8
BLACK
6
CONTINUOUS
10
5.2413
20
-1.52031
11
5.2787
21
-1.52031
0
LINE
8
BLACK
6
CONTINUOUS
10
5.2787
20
-1.52031
11
5.28062
21
-1.5205
0
LINE
8
BLACK
6
CONTINUOUS
10
3.79646
20
-1.5537
11
3.76496
21
-1.5537
0
LINE
8
BLACK
6
CONTINUOUS
10
3.76496
20
-1.5537
11
3.76496
21
-1.53598
0
LINE
8
BLACK
6
CONTINUOUS
10
3.76496
20
-1.53598
11
3.79646
21
-1.53598
0
LINE
8
BLACK
6
CONTINUOUS
10
3.79646
20
-1.53598
11
3.79646
21
-1.5537
0
LINE
8
BLACK
6
CONTINUOUS
10
3.56811
20
-1.5537
11
3.53661
21
-1.5537
0
LINE
8
BLACK
6
CONTINUOUS
10
3.53661
20
-1.5537
11
3.53661
21
-1.53598
0
LINE
8
BLACK
6
CONTINUOUS
10
3.53661
20
-1.53598
11
3.56811
21
-1.53598
0
LINE
8
BLACK
6
CONTINUOUS
10
3.56811
20
-1.53598
11
3.56811
21
-1.5537
0
LINE
8
BLACK
6
CONTINUOUS
10
4.16165
20
-1.54626
11
4.11835
21
-1.54626
0
LINE
8
BLACK
6
CONTINUOUS
10
4.11835
20
-1.54626
11
4.11835
21
-1.36516
0
LINE
8
BLACK
6
CONTINUOUS
10
4.11835
20
-1.36516
11
4.16165
21
-1.36516
0
LINE
8
BLACK
6
CONTINUOUS
10
4.16165
20
-1.36516
11
4.16165
21
-1.54626
0
LINE
8
BLACK
6
CONTINUOUS
10
3.96165
20
-1.54626
11
3.91835
21
-1.54626
0
LINE
8
BLACK
6
CONTINUOUS
10
3.91835
20
-1.54626
11
3.91835
21
-1.36516
0
LINE
8
BLACK
6
CONTINUOUS
10
3.91835
20
-1.36516
11
3.96165
21
-1.36516
0
LINE
8
BLACK
6
CONTINUOUS
10
3.96165
20
-1.36516
11
3.96165
21
-1.54626
0
LINE
8
BLACK
6
CONTINUOUS
10
3.56362
20
-1.50764
11
3.51638
21
-1.50764
0
LINE
8
BLACK
6
CONTINUOUS
10
3.51638
20
-1.50764
11
3.51638
21
-1.4722
0
LINE
8
BLACK
6
CONTINUOUS
10
3.51638
20
-1.4722
11
3.56362
21
-1.4722
0
LINE
8
BLACK
6
CONTINUOUS
10
3.56362
20
-1.4722
11
3.56362
21
-1.50764
0
LINE
8
BLACK
6
CONTINUOUS
10
3.64964
20
-1.46186
11
3.65148
21
-1.46242
0
LINE
8
BLACK
6
CONTINUOUS
10
3.65148
20
-1.46242
11
3.65318
21
-1.46333
0
LINE
8
BLACK
6
CONTINUOUS
10
3.65318
20
-1.46333
11
3.65468
21
-1.46456
0
LINE
8
BLACK
6
CONTINUOUS
10
3.65468
20
-1.46456
11
3.6559
21
-1.46605
0
LINE
8
BLACK
6
CONTINUOUS
10
3.6559
20
-1.46605
11
3.65681
21
-1.46775
0
LINE
8
BLACK
6
CONTINUOUS
10
3.65681
20
-1.46775
11
3.65737
21
-1.4696
0
LINE
8
BLACK
6
CONTINUOUS
10
3.65737
20
-1.4696
11
3.65756
21
-1.47152
0
LINE
8
BLACK
6
CONTINUOUS
10
3.65756
20
-1.47152
11
3.65756
21
-1.49219
0
LINE
8
BLACK
6
CONTINUOUS
10
3.65756
20
-1.49219
11
3.65737
21
-1.49411
0
LINE
8
BLACK
6
CONTINUOUS
10
3.65737
20
-1.49411
11
3.65681
21
-1.49595
0
LINE
8
BLACK
6
CONTINUOUS
10
3.65681
20
-1.49595
11
3.6559
21
-1.49765
0
LINE
8
BLACK
6
CONTINUOUS
10
3.6559
20
-1.49765
11
3.65468
21
-1.49914
0
LINE
8
BLACK
6
CONTINUOUS
10
3.65468
20
-1.49914
11
3.65318
21
-1.50037
0
LINE
8
BLACK
6
CONTINUOUS
10
3.65318
20
-1.50037
11
3.65148
21
-1.50128
0
LINE
8
BLACK
6
CONTINUOUS
10
3.65148
20
-1.50128
11
3.64964
21
-1.50184
0
LINE
8
BLACK
6
CONTINUOUS
10
3.64964
20
-1.50184
11
3.64772
21
-1.50203
0
LINE
8
BLACK
6
CONTINUOUS
10
3.64772
20
-1.50203
11
3.61228
21
-1.50203
0
LINE
8
BLACK
6
CONTINUOUS
10
3.61228
20
-1.50203
11
3.61036
21
-1.50184
0
LINE
8
BLACK
6
CONTINUOUS
10
3.61036
20
-1.50184
11
3.60852
21
-1.50128
0
LINE
8
BLACK
6
CONTINUOUS
10
3.60852
20
-1.50128
11
3.60682
21
-1.50037
0
LINE
8
BLACK
6
CONTINUOUS
10
3.60682
20
-1.50037
11
3.60532
21
-1.49914
0
LINE
8
BLACK
6
CONTINUOUS
10
3.60532
20
-1.49914
11
3.6041
21
-1.49765
0
LINE
8
BLACK
6
CONTINUOUS
10
3.6041
20
-1.49765
11
3.60319
21
-1.49595
0
LINE
8
BLACK
6
CONTINUOUS
10
3.60319
20
-1.49595
11
3.60263
21
-1.49411
0
LINE
8
BLACK
6
CONTINUOUS
10
3.60263
20
-1.49411
11
3.60244
21
-1.49219
0
LINE
8
BLACK
6
CONTINUOUS
10
3.60244
20
-1.49219
11
3.60244
21
-1.47152
0
LINE
8
BLACK
6
CONTINUOUS
10
3.60244
20
-1.47152
11
3.60263
21
-1.4696
0
LINE
8
BLACK
6
CONTINUOUS
10
3.60263
20
-1.4696
11
3.60319
21
-1.46775
0
LINE
8
BLACK
6
CONTINUOUS
10
3.60319
20
-1.46775
11
3.6041
21
-1.46605
0
LINE
8
BLACK
6
CONTINUOUS
10
3.6041
20
-1.46605
11
3.60532
21
-1.46456
0
LINE
8
BLACK
6
CONTINUOUS
10
3.60532
20
-1.46456
11
3.60682
21
-1.46333
0
LINE
8
BLACK
6
CONTINUOUS
10
3.60682
20
-1.46333
11
3.60852
21
-1.46242
0
LINE
8
BLACK
6
CONTINUOUS
10
3.60852
20
-1.46242
11
3.61036
21
-1.46186
0
LINE
8
BLACK
6
CONTINUOUS
10
3.61036
20
-1.46186
11
3.61228
21
-1.46167
0
LINE
8
BLACK
6
CONTINUOUS
10
3.61228
20
-1.46167
11
3.64772
21
-1.46167
0
LINE
8
BLACK
6
CONTINUOUS
10
3.64772
20
-1.46167
11
3.64964
21
-1.46186
0
LINE
8
BLACK
6
CONTINUOUS
10
3.83464
20
-1.46186
11
3.83648
21
-1.46242
0
LINE
8
BLACK
6
CONTINUOUS
10
3.83648
20
-1.46242
11
3.83818
21
-1.46333
0
LINE
8
BLACK
6
CONTINUOUS
10
3.83818
20
-1.46333
11
3.83968
21
-1.46456
0
LINE
8
BLACK
6
CONTINUOUS
10
3.83968
20
-1.46456
11
3.8409
21
-1.46605
0
LINE
8
BLACK
6
CONTINUOUS
10
3.8409
20
-1.46605
11
3.84181
21
-1.46775
0
LINE
8
BLACK
6
CONTINUOUS
10
3.84181
20
-1.46775
11
3.84237
21
-1.4696
0
LINE
8
BLACK
6
CONTINUOUS
10
3.84237
20
-1.4696
11
3.84256
21
-1.47152
0
LINE
8
BLACK
6
CONTINUOUS
10
3.84256
20
-1.47152
11
3.84256
21
-1.49219
0
LINE
8
BLACK
6
CONTINUOUS
10
3.84256
20
-1.49219
11
3.84237
21
-1.49411
0
LINE
8
BLACK
6
CONTINUOUS
10
3.84237
20
-1.49411
11
3.84181
21
-1.49595
0
LINE
8
BLACK
6
CONTINUOUS
10
3.84181
20
-1.49595
11
3.8409
21
-1.49765
0
LINE
8
BLACK
6
CONTINUOUS
10
3.8409
20
-1.49765
11
3.83968
21
-1.49914
0
LINE
8
BLACK
6
CONTINUOUS
10
3.83968
20
-1.49914
11
3.83818
21
-1.50037
0
LINE
8
BLACK
6
CONTINUOUS
10
3.83818
20
-1.50037
11
3.83648
21
-1.50128
0
LINE
8
BLACK
6
CONTINUOUS
10
3.83648
20
-1.50128
11
3.83464
21
-1.50184
0
LINE
8
BLACK
6
CONTINUOUS
10
3.83464
20
-1.50184
11
3.83272
21
-1.50203
0
LINE
8
BLACK
6
CONTINUOUS
10
3.83272
20
-1.50203
11
3.79728
21
-1.50203
0
LINE
8
BLACK
6
CONTINUOUS
10
3.79728
20
-1.50203
11
3.79536
21
-1.50184
0
LINE
8
BLACK
6
CONTINUOUS
10
3.79536
20
-1.50184
11
3.79352
21
-1.50128
0
LINE
8
BLACK
6
CONTINUOUS
10
3.79352
20
-1.50128
11
3.79182
21
-1.50037
0
LINE
8
BLACK
6
CONTINUOUS
10
3.79182
20
-1.50037
11
3.79032
21
-1.49914
0
LINE
8
BLACK
6
CONTINUOUS
10
3.79032
20
-1.49914
11
3.7891
21
-1.49765
0
LINE
8
BLACK
6
CONTINUOUS
10
3.7891
20
-1.49765
11
3.78819
21
-1.49595
0
LINE
8
BLACK
6
CONTINUOUS
10
3.78819
20
-1.49595
11
3.78763
21
-1.49411
0
LINE
8
BLACK
6
CONTINUOUS
10
3.78763
20
-1.49411
11
3.78744
21
-1.49219
0
LINE
8
BLACK
6
CONTINUOUS
10
3.78744
20
-1.49219
11
3.78744
21
-1.47152
0
LINE
8
BLACK
6
CONTINUOUS
10
3.78744
20
-1.47152
11
3.78763
21
-1.4696
0
LINE
8
BLACK
6
CONTINUOUS
10
3.78763
20
-1.4696
11
3.78819
21
-1.46775
0
LINE
8
BLACK
6
CONTINUOUS
10
3.78819
20
-1.46775
11
3.7891
21
-1.46605
0
LINE
8
BLACK
6
CONTINUOUS
10
3.7891
20
-1.46605
11
3.79032
21
-1.46456
0
LINE
8
BLACK
6
CONTINUOUS
10
3.79032
20
-1.46456
11
3.79182
21
-1.46333
0
LINE
8
BLACK
6
CONTINUOUS
10
3.79182
20
-1.46333
11
3.79352
21
-1.46242
0
LINE
8
BLACK
6
CONTINUOUS
10
3.79352
20
-1.46242
11
3.79536
21
-1.46186
0
LINE
8
BLACK
6
CONTINUOUS
10
3.79536
20
-1.46186
11
3.79728
21
-1.46167
0
LINE
8
BLACK
6
CONTINUOUS
10
3.79728
20
-1.46167
11
3.83272
21
-1.46167
0
LINE
8
BLACK
6
CONTINUOUS
10
3.83272
20
-1.46167
11
3.83464
21
-1.46186
0
LINE
8
BLACK
6
CONTINUOUS
10
3.75964
20
-1.46186
11
3.76148
21
-1.46242
0
LINE
8
BLACK
6
CONTINUOUS
10
3.76148
20
-1.46242
11
3.76318
21
-1.46333
0
LINE
8
BLACK
6
CONTINUOUS
10
3.76318
20
-1.46333
11
3.76468
21
-1.46456
0
LINE
8
BLACK
6
CONTINUOUS
10
3.76468
20
-1.46456
11
3.7659
21
-1.46605
0
LINE
8
BLACK
6
CONTINUOUS
10
3.7659
20
-1.46605
11
3.76681
21
-1.46775
0
LINE
8
BLACK
6
CONTINUOUS
10
3.76681
20
-1.46775
11
3.76737
21
-1.4696
0
LINE
8
BLACK
6
CONTINUOUS
10
3.76737
20
-1.4696
11
3.76756
21
-1.47152
0
LINE
8
BLACK
6
CONTINUOUS
10
3.76756
20
-1.47152
11
3.76756
21
-1.49219
0
LINE
8
BLACK
6
CONTINUOUS
10
3.76756
20
-1.49219
11
3.76737
21
-1.49411
0
LINE
8
BLACK
6
CONTINUOUS
10
3.76737
20
-1.49411
11
3.76681
21
-1.49595
0
LINE
8
BLACK
6
CONTINUOUS
10
3.76681
20
-1.49595
11
3.7659
21
-1.49765
0
LINE
8
BLACK
6
CONTINUOUS
10
3.7659
20
-1.49765
11
3.76468
21
-1.49914
0
LINE
8
BLACK
6
CONTINUOUS
10
3.76468
20
-1.49914
11
3.76318
21
-1.50037
0
LINE
8
BLACK
6
CONTINUOUS
10
3.76318
20
-1.50037
11
3.76148
21
-1.50128
0
LINE
8
BLACK
6
CONTINUOUS
10
3.76148
20
-1.50128
11
3.75964
21
-1.50184
0
LINE
8
BLACK
6
CONTINUOUS
10
3.75964
20
-1.50184
11
3.75772
21
-1.50203
0
LINE
8
BLACK
6
CONTINUOUS
10
3.75772
20
-1.50203
11
3.72228
21
-1.50203
0
LINE
8
BLACK
6
CONTINUOUS
10
3.72228
20
-1.50203
11
3.72036
21
-1.50184
0
LINE
8
BLACK
6
CONTINUOUS
10
3.72036
20
-1.50184
11
3.71852
21
-1.50128
0
LINE
8
BLACK
6
CONTINUOUS
10
3.71852
20
-1.50128
11
3.71682
21
-1.50037
0
LINE
8
BLACK
6
CONTINUOUS
10
3.71682
20
-1.50037
11
3.71532
21
-1.49914
0
LINE
8
BLACK
6
CONTINUOUS
10
3.71532
20
-1.49914
11
3.7141
21
-1.49765
0
LINE
8
BLACK
6
CONTINUOUS
10
3.7141
20
-1.49765
11
3.71319
21
-1.49595
0
LINE
8
BLACK
6
CONTINUOUS
10
3.71319
20
-1.49595
11
3.71263
21
-1.49411
0
LINE
8
BLACK
6
CONTINUOUS
10
3.71263
20
-1.49411
11
3.71244
21
-1.49219
0
LINE
8
BLACK
6
CONTINUOUS
10
3.71244
20
-1.49219
11
3.71244
21
-1.47152
0
LINE
8
BLACK
6
CONTINUOUS
10
3.71244
20
-1.47152
11
3.71263
21
-1.4696
0
LINE
8
BLACK
6
CONTINUOUS
10
3.71263
20
-1.4696
11
3.71319
21
-1.46775
0
LINE
8
BLACK
6
CONTINUOUS
10
3.71319
20
-1.46775
11
3.7141
21
-1.46605
0
LINE
8
BLACK
6
CONTINUOUS
10
3.7141
20
-1.46605
11
3.71532
21
-1.46456
0
LINE
8
BLACK
6
CONTINUOUS
10
3.71532
20
-1.46456
11
3.71682
21
-1.46333
0
LINE
8
BLACK
6
CONTINUOUS
10
3.71682
20
-1.46333
11
3.71852
21
-1.46242
0
LINE
8
BLACK
6
CONTINUOUS
10
3.71852
20
-1.46242
11
3.72036
21
-1.46186
0
LINE
8
BLACK
6
CONTINUOUS
10
3.72036
20
-1.46186
11
3.72228
21
-1.46167
0
LINE
8
BLACK
6
CONTINUOUS
10
3.72228
20
-1.46167
11
3.75772
21
-1.46167
0
LINE
8
BLACK
6
CONTINUOUS
10
3.75772
20
-1.46167
11
3.75964
21
-1.46186
0
LINE
8
BLACK
6
CONTINUOUS
10
5.71101
20
-1.28779
11
5.73035
21
-1.2958
0
LINE
8
BLACK
6
CONTINUOUS
10
5.73035
20
-1.2958
11
5.74776
21
-1.30743
0
LINE
8
BLACK
6
CONTINUOUS
10
5.74776
20
-1.30743
11
5.76257
21
-1.32224
0
LINE
8
BLACK
6
CONTINUOUS
10
5.76257
20
-1.32224
11
5.7742
21
-1.33965
0
LINE
8
BLACK
6
CONTINUOUS
10
5.7742
20
-1.33965
11
5.78221
21
-1.35899
0
LINE
8
BLACK
6
CONTINUOUS
10
5.78221
20
-1.35899
11
5.7863
21
-1.37953
0
LINE
8
BLACK
6
CONTINUOUS
10
5.7863
20
-1.37953
11
5.7863
21
-1.40047
0
LINE
8
BLACK
6
CONTINUOUS
10
5.7863
20
-1.40047
11
5.78221
21
-1.42101
0
LINE
8
BLACK
6
CONTINUOUS
10
5.78221
20
-1.42101
11
5.7742
21
-1.44035
0
LINE
8
BLACK
6
CONTINUOUS
10
5.7742
20
-1.44035
11
5.76257
21
-1.45776
0
LINE
8
BLACK
6
CONTINUOUS
10
5.76257
20
-1.45776
11
5.74776
21
-1.47257
0
LINE
8
BLACK
6
CONTINUOUS
10
5.74776
20
-1.47257
11
5.73035
21
-1.4842
0
LINE
8
BLACK
6
CONTINUOUS
10
5.73035
20
-1.4842
11
5.71101
21
-1.49221
0
LINE
8
BLACK
6
CONTINUOUS
10
5.71101
20
-1.49221
11
5.69047
21
-1.4963
0
LINE
8
BLACK
6
CONTINUOUS
10
5.69047
20
-1.4963
11
5.66953
21
-1.4963
0
LINE
8
BLACK
6
CONTINUOUS
10
5.66953
20
-1.4963
11
5.64899
21
-1.49221
0
LINE
8
BLACK
6
CONTINUOUS
10
5.64899
20
-1.49221
11
5.62965
21
-1.4842
0
LINE
8
BLACK
6
CONTINUOUS
10
5.62965
20
-1.4842
11
5.61224
21
-1.47257
0
LINE
8
BLACK
6
CONTINUOUS
10
5.61224
20
-1.47257
11
5.59743
21
-1.45776
0
LINE
8
BLACK
6
CONTINUOUS
10
5.59743
20
-1.45776
11
5.5858
21
-1.44035
0
LINE
8
BLACK
6
CONTINUOUS
10
5.5858
20
-1.44035
11
5.57779
21
-1.42101
0
LINE
8
BLACK
6
CONTINUOUS
10
5.57779
20
-1.42101
11
5.5737
21
-1.40047
0
LINE
8
BLACK
6
CONTINUOUS
10
5.5737
20
-1.40047
11
5.5737
21
-1.37953
0
LINE
8
BLACK
6
CONTINUOUS
10
5.5737
20
-1.37953
11
5.57779
21
-1.35899
0
LINE
8
BLACK
6
CONTINUOUS
10
5.57779
20
-1.35899
11
5.5858
21
-1.33965
0
LINE
8
BLACK
6
CONTINUOUS
10
5.5858
20
-1.33965
11
5.59743
21
-1.32224
0
LINE
8
BLACK
6
CONTINUOUS
10
5.59743
20
-1.32224
11
5.61224
21
-1.30743
0
LINE
8
BLACK
6
CONTINUOUS
10
5.61224
20
-1.30743
11
5.62965
21
-1.2958
0
LINE
8
BLACK
6
CONTINUOUS
10
5.62965
20
-1.2958
11
5.64899
21
-1.28779
0
LINE
8
BLACK
6
CONTINUOUS
10
5.64899
20
-1.28779
11
5.66953
21
-1.2837
0
LINE
8
BLACK
6
CONTINUOUS
10
5.66953
20
-1.2837
11
5.69047
21
-1.2837
0
LINE
8
BLACK
6
CONTINUOUS
10
5.69047
20
-1.2837
11
5.71101
21
-1.28779
0
LINE
8
BLACK
6
CONTINUOUS
10
3.46964
20
-1.44594
11
3.47148
21
-1.4465
0
LINE
8
BLACK
6
CONTINUOUS
10
3.47148
20
-1.4465
11
3.47318
21
-1.44741
0
LINE
8
BLACK
6
CONTINUOUS
10
3.47318
20
-1.44741
11
3.47468
21
-1.44863
0
LINE
8
BLACK
6
CONTINUOUS
10
3.47468
20
-1.44863
11
3.4759
21
-1.45012
0
LINE
8
BLACK
6
CONTINUOUS
10
3.4759
20
-1.45012
11
3.47681
21
-1.45182
0
LINE
8
BLACK
6
CONTINUOUS
10
3.47681
20
-1.45182
11
3.47737
21
-1.45367
0
LINE
8
BLACK
6
CONTINUOUS
10
3.47737
20
-1.45367
11
3.47756
21
-1.45559
0
LINE
8
BLACK
6
CONTINUOUS
10
3.47756
20
-1.45559
11
3.47756
21
-1.47626
0
LINE
8
BLACK
6
CONTINUOUS
10
3.47756
20
-1.47626
11
3.47737
21
-1.47818
0
LINE
8
BLACK
6
CONTINUOUS
10
3.47737
20
-1.47818
11
3.47681
21
-1.48003
0
LINE
8
BLACK
6
CONTINUOUS
10
3.47681
20
-1.48003
11
3.4759
21
-1.48173
0
LINE
8
BLACK
6
CONTINUOUS
10
3.4759
20
-1.48173
11
3.47468
21
-1.48322
0
LINE
8
BLACK
6
CONTINUOUS
10
3.47468
20
-1.48322
11
3.47318
21
-1.48444
0
LINE
8
BLACK
6
CONTINUOUS
10
3.47318
20
-1.48444
11
3.47148
21
-1.48535
0
LINE
8
BLACK
6
CONTINUOUS
10
3.47148
20
-1.48535
11
3.46964
21
-1.48591
0
LINE
8
BLACK
6
CONTINUOUS
10
3.46964
20
-1.48591
11
3.46772
21
-1.4861
0
LINE
8
BLACK
6
CONTINUOUS
10
3.46772
20
-1.4861
11
3.43228
21
-1.4861
0
LINE
8
BLACK
6
CONTINUOUS
10
3.43228
20
-1.4861
11
3.43036
21
-1.48591
0
LINE
8
BLACK
6
CONTINUOUS
10
3.43036
20
-1.48591
11
3.42852
21
-1.48535
0
LINE
8
BLACK
6
CONTINUOUS
10
3.42852
20
-1.48535
11
3.42682
21
-1.48444
0
LINE
8
BLACK
6
CONTINUOUS
10
3.42682
20
-1.48444
11
3.42532
21
-1.48322
0
LINE
8
BLACK
6
CONTINUOUS
10
3.42532
20
-1.48322
11
3.4241
21
-1.48173
0
LINE
8
BLACK
6
CONTINUOUS
10
3.4241
20
-1.48173
11
3.42319
21
-1.48003
0
LINE
8
BLACK
6
CONTINUOUS
10
3.42319
20
-1.48003
11
3.42263
21
-1.47818
0
LINE
8
BLACK
6
CONTINUOUS
10
3.42263
20
-1.47818
11
3.42244
21
-1.47626
0
LINE
8
BLACK
6
CONTINUOUS
10
3.42244
20
-1.47626
11
3.42244
21
-1.45559
0
LINE
8
BLACK
6
CONTINUOUS
10
3.42244
20
-1.45559
11
3.42263
21
-1.45367
0
LINE
8
BLACK
6
CONTINUOUS
10
3.42263
20
-1.45367
11
3.42319
21
-1.45182
0
LINE
8
BLACK
6
CONTINUOUS
10
3.42319
20
-1.45182
11
3.4241
21
-1.45012
0
LINE
8
BLACK
6
CONTINUOUS
10
3.4241
20
-1.45012
11
3.42532
21
-1.44863
0
LINE
8
BLACK
6
CONTINUOUS
10
3.42532
20
-1.44863
11
3.42682
21
-1.44741
0
LINE
8
BLACK
6
CONTINUOUS
10
3.42682
20
-1.44741
11
3.42852
21
-1.4465
0
LINE
8
BLACK
6
CONTINUOUS
10
3.42852
20
-1.4465
11
3.43036
21
-1.44594
0
LINE
8
BLACK
6
CONTINUOUS
10
3.43036
20
-1.44594
11
3.43228
21
-1.44575
0
LINE
8
BLACK
6
CONTINUOUS
10
3.43228
20
-1.44575
11
3.46772
21
-1.44575
0
LINE
8
BLACK
6
CONTINUOUS
10
3.46772
20
-1.44575
11
3.46964
21
-1.44594
0
LINE
8
BLACK
6
CONTINUOUS
10
5.10208
20
-1.33442
11
5.11118
21
-1.33819
0
LINE
8
BLACK
6
CONTINUOUS
10
5.11118
20
-1.33819
11
5.11937
21
-1.34366
0
LINE
8
BLACK
6
CONTINUOUS
10
5.11937
20
-1.34366
11
5.12634
21
-1.35063
0
LINE
8
BLACK
6
CONTINUOUS
10
5.12634
20
-1.35063
11
5.13181
21
-1.35882
0
LINE
8
BLACK
6
CONTINUOUS
10
5.13181
20
-1.35882
11
5.13558
21
-1.36792
0
LINE
8
BLACK
6
CONTINUOUS
10
5.13558
20
-1.36792
11
5.1375
21
-1.37758
0
LINE
8
BLACK
6
CONTINUOUS
10
5.1375
20
-1.37758
11
5.1375
21
-1.38742
0
LINE
8
BLACK
6
CONTINUOUS
10
5.1375
20
-1.38742
11
5.13558
21
-1.39708
0
LINE
8
BLACK
6
CONTINUOUS
10
5.13558
20
-1.39708
11
5.13181
21
-1.40618
0
LINE
8
BLACK
6
CONTINUOUS
10
5.13181
20
-1.40618
11
5.12634
21
-1.41437
0
LINE
8
BLACK
6
CONTINUOUS
10
5.12634
20
-1.41437
11
5.11937
21
-1.42134
0
LINE
8
BLACK
6
CONTINUOUS
10
5.11937
20
-1.42134
11
5.11118
21
-1.42681
0
LINE
8
BLACK
6
CONTINUOUS
10
5.11118
20
-1.42681
11
5.10208
21
-1.43058
0
LINE
8
BLACK
6
CONTINUOUS
10
5.10208
20
-1.43058
11
5.09242
21
-1.4325
0
LINE
8
BLACK
6
CONTINUOUS
10
5.09242
20
-1.4325
11
5.08258
21
-1.4325
0
LINE
8
BLACK
6
CONTINUOUS
10
5.08258
20
-1.4325
11
5.07292
21
-1.43058
0
LINE
8
BLACK
6
CONTINUOUS
10
5.07292
20
-1.43058
11
5.06382
21
-1.42681
0
LINE
8
BLACK
6
CONTINUOUS
10
5.06382
20
-1.42681
11
5.05563
21
-1.42134
0
LINE
8
BLACK
6
CONTINUOUS
10
5.05563
20
-1.42134
11
5.04866
21
-1.41437
0
LINE
8
BLACK
6
CONTINUOUS
10
5.04866
20
-1.41437
11
5.04319
21
-1.40618
0
LINE
8
BLACK
6
CONTINUOUS
10
5.04319
20
-1.40618
11
5.03942
21
-1.39708
0
LINE
8
BLACK
6
CONTINUOUS
10
5.03942
20
-1.39708
11
5.0375
21
-1.38742
0
LINE
8
BLACK
6
CONTINUOUS
10
5.0375
20
-1.38742
11
5.0375
21
-1.37758
0
LINE
8
BLACK
6
CONTINUOUS
10
5.0375
20
-1.37758
11
5.03942
21
-1.36792
0
LINE
8
BLACK
6
CONTINUOUS
10
5.03942
20
-1.36792
11
5.04319
21
-1.35882
0
LINE
8
BLACK
6
CONTINUOUS
10
5.04319
20
-1.35882
11
5.04866
21
-1.35063
0
LINE
8
BLACK
6
CONTINUOUS
10
5.04866
20
-1.35063
11
5.05563
21
-1.34366
0
LINE
8
BLACK
6
CONTINUOUS
10
5.05563
20
-1.34366
11
5.06382
21
-1.33819
0
LINE
8
BLACK
6
CONTINUOUS
10
5.06382
20
-1.33819
11
5.07292
21
-1.33442
0
LINE
8
BLACK
6
CONTINUOUS
10
5.07292
20
-1.33442
11
5.08258
21
-1.3325
0
LINE
8
BLACK
6
CONTINUOUS
10
5.08258
20
-1.3325
11
5.09242
21
-1.3325
0
LINE
8
BLACK
6
CONTINUOUS
10
5.09242
20
-1.3325
11
5.10208
21
-1.33442
0
LINE
8
BLACK
6
CONTINUOUS
10
3.75964
20
-1.39001
11
3.76148
21
-1.39057
0
LINE
8
BLACK
6
CONTINUOUS
10
3.76148
20
-1.39057
11
3.76318
21
-1.39148
0
LINE
8
BLACK
6
CONTINUOUS
10
3.76318
20
-1.39148
11
3.76468
21
-1.39271
0
LINE
8
BLACK
6
CONTINUOUS
10
3.76468
20
-1.39271
11
3.7659
21
-1.3942
0
LINE
8
BLACK
6
CONTINUOUS
10
3.7659
20
-1.3942
11
3.76681
21
-1.3959
0
LINE
8
BLACK
6
CONTINUOUS
10
3.76681
20
-1.3959
11
3.76737
21
-1.39775
0
LINE
8
BLACK
6
CONTINUOUS
10
3.76737
20
-1.39775
11
3.76756
21
-1.39967
0
LINE
8
BLACK
6
CONTINUOUS
10
3.76756
20
-1.39967
11
3.76756
21
-1.42033
0
LINE
8
BLACK
6
CONTINUOUS
10
3.76756
20
-1.42033
11
3.76737
21
-1.42225
0
LINE
8
BLACK
6
CONTINUOUS
10
3.76737
20
-1.42225
11
3.76681
21
-1.4241
0
LINE
8
BLACK
6
CONTINUOUS
10
3.76681
20
-1.4241
11
3.7659
21
-1.4258
0
LINE
8
BLACK
6
CONTINUOUS
10
3.7659
20
-1.4258
11
3.76468
21
-1.42729
0
LINE
8
BLACK
6
CONTINUOUS
10
3.76468
20
-1.42729
11
3.76318
21
-1.42852
0
LINE
8
BLACK
6
CONTINUOUS
10
3.76318
20
-1.42852
11
3.76148
21
-1.42943
0
LINE
8
BLACK
6
CONTINUOUS
10
3.76148
20
-1.42943
11
3.75964
21
-1.42999
0
LINE
8
BLACK
6
CONTINUOUS
10
3.75964
20
-1.42999
11
3.75772
21
-1.43018
0
LINE
8
BLACK
6
CONTINUOUS
10
3.75772
20
-1.43018
11
3.72228
21
-1.43018
0
LINE
8
BLACK
6
CONTINUOUS
10
3.72228
20
-1.43018
11
3.72036
21
-1.42999
0
LINE
8
BLACK
6
CONTINUOUS
10
3.72036
20
-1.42999
11
3.71852
21
-1.42943
0
LINE
8
BLACK
6
CONTINUOUS
10
3.71852
20
-1.42943
11
3.71682
21
-1.42852
0
LINE
8
BLACK
6
CONTINUOUS
10
3.71682
20
-1.42852
11
3.71532
21
-1.42729
0
LINE
8
BLACK
6
CONTINUOUS
10
3.71532
20
-1.42729
11
3.7141
21
-1.4258
0
LINE
8
BLACK
6
CONTINUOUS
10
3.7141
20
-1.4258
11
3.71319
21
-1.4241
0
LINE
8
BLACK
6
CONTINUOUS
10
3.71319
20
-1.4241
11
3.71263
21
-1.42225
0
LINE
8
BLACK
6
CONTINUOUS
10
3.71263
20
-1.42225
11
3.71244
21
-1.42033
0
LINE
8
BLACK
6
CONTINUOUS
10
3.71244
20
-1.42033
11
3.71244
21
-1.39967
0
LINE
8
BLACK
6
CONTINUOUS
10
3.71244
20
-1.39967
11
3.71263
21
-1.39775
0
LINE
8
BLACK
6
CONTINUOUS
10
3.71263
20
-1.39775
11
3.71319
21
-1.3959
0
LINE
8
BLACK
6
CONTINUOUS
10
3.71319
20
-1.3959
11
3.7141
21
-1.3942
0
LINE
8
BLACK
6
CONTINUOUS
10
3.7141
20
-1.3942
11
3.71532
21
-1.39271
0
LINE
8
BLACK
6
CONTINUOUS
10
3.71532
20
-1.39271
11
3.71682
21
-1.39148
0
LINE
8
BLACK
6
CONTINUOUS
10
3.71682
20
-1.39148
11
3.71852
21
-1.39057
0
LINE
8
BLACK
6
CONTINUOUS
10
3.71852
20
-1.39057
11
3.72036
21
-1.39001
0
LINE
8
BLACK
6
CONTINUOUS
10
3.72036
20
-1.39001
11
3.72228
21
-1.38982
0
LINE
8
BLACK
6
CONTINUOUS
10
3.72228
20
-1.38982
11
3.75772
21
-1.38982
0
LINE
8
BLACK
6
CONTINUOUS
10
3.75772
20
-1.38982
11
3.75964
21
-1.39001
0
LINE
8
BLACK
6
CONTINUOUS
10
3.83464
20
-1.39001
11
3.83648
21
-1.39057
0
LINE
8
BLACK
6
CONTINUOUS
10
3.83648
20
-1.39057
11
3.83818
21
-1.39148
0
LINE
8
BLACK
6
CONTINUOUS
10
3.83818
20
-1.39148
11
3.83968
21
-1.39271
0
LINE
8
BLACK
6
CONTINUOUS
10
3.83968
20
-1.39271
11
3.8409
21
-1.3942
0
LINE
8
BLACK
6
CONTINUOUS
10
3.8409
20
-1.3942
11
3.84181
21
-1.3959
0
LINE
8
BLACK
6
CONTINUOUS
10
3.84181
20
-1.3959
11
3.84237
21
-1.39775
0
LINE
8
BLACK
6
CONTINUOUS
10
3.84237
20
-1.39775
11
3.84256
21
-1.39967
0
LINE
8
BLACK
6
CONTINUOUS
10
3.84256
20
-1.39967
11
3.84256
21
-1.42033
0
LINE
8
BLACK
6
CONTINUOUS
10
3.84256
20
-1.42033
11
3.84237
21
-1.42225
0
LINE
8
BLACK
6
CONTINUOUS
10
3.84237
20
-1.42225
11
3.84181
21
-1.4241
0
LINE
8
BLACK
6
CONTINUOUS
10
3.84181
20
-1.4241
11
3.8409
21
-1.4258
0
LINE
8
BLACK
6
CONTINUOUS
10
3.8409
20
-1.4258
11
3.83968
21
-1.42729
0
LINE
8
BLACK
6
CONTINUOUS
10
3.83968
20
-1.42729
11
3.83818
21
-1.42852
0
LINE
8
BLACK
6
CONTINUOUS
10
3.83818
20
-1.42852
11
3.83648
21
-1.42943
0
LINE
8
BLACK
6
CONTINUOUS
10
3.83648
20
-1.42943
11
3.83464
21
-1.42999
0
LINE
8
BLACK
6
CONTINUOUS
10
3.83464
20
-1.42999
11
3.83272
21
-1.43018
0
LINE
8
BLACK
6
CONTINUOUS
10
3.83272
20
-1.43018
11
3.79728
21
-1.43018
0
LINE
8
BLACK
6
CONTINUOUS
10
3.79728
20
-1.43018
11
3.79536
21
-1.42999
0
LINE
8
BLACK
6
CONTINUOUS
10
3.79536
20
-1.42999
11
3.79352
21
-1.42943
0
LINE
8
BLACK
6
CONTINUOUS
10
3.79352
20
-1.42943
11
3.79182
21
-1.42852
0
LINE
8
BLACK
6
CONTINUOUS
10
3.79182
20
-1.42852
11
3.79032
21
-1.42729
0
LINE
8
BLACK
6
CONTINUOUS
10
3.79032
20
-1.42729
11
3.7891
21
-1.4258
0
LINE
8
BLACK
6
CONTINUOUS
10
3.7891
20
-1.4258
11
3.78819
21
-1.4241
0
LINE
8
BLACK
6
CONTINUOUS
10
3.78819
20
-1.4241
11
3.78763
21
-1.42225
0
LINE
8
BLACK
6
CONTINUOUS
10
3.78763
20
-1.42225
11
3.78744
21
-1.42033
0
LINE
8
BLACK
6
CONTINUOUS
10
3.78744
20
-1.42033
11
3.78744
21
-1.39967
0
LINE
8
BLACK
6
CONTINUOUS
10
3.78744
20
-1.39967
11
3.78763
21
-1.39775
0
LINE
8
BLACK
6
CONTINUOUS
10
3.78763
20
-1.39775
11
3.78819
21
-1.3959
0
LINE
8
BLACK
6
CONTINUOUS
10
3.78819
20
-1.3959
11
3.7891
21
-1.3942
0
LINE
8
BLACK
6
CONTINUOUS
10
3.7891
20
-1.3942
11
3.79032
21
-1.39271
0
LINE
8
BLACK
6
CONTINUOUS
10
3.79032
20
-1.39271
11
3.79182
21
-1.39148
0
LINE
8
BLACK
6
CONTINUOUS
10
3.79182
20
-1.39148
11
3.79352
21
-1.39057
0
LINE
8
BLACK
6
CONTINUOUS
10
3.79352
20
-1.39057
11
3.79536
21
-1.39001
0
LINE
8
BLACK
6
CONTINUOUS
10
3.79536
20
-1.39001
11
3.79728
21
-1.38982
0
LINE
8
BLACK
6
CONTINUOUS
10
3.79728
20
-1.38982
11
3.83272
21
-1.38982
0
LINE
8
BLACK
6
CONTINUOUS
10
3.83272
20
-1.38982
11
3.83464
21
-1.39001
0
LINE
8
BLACK
6
CONTINUOUS
10
3.64964
20
-1.39001
11
3.65148
21
-1.39057
0
LINE
8
BLACK
6
CONTINUOUS
10
3.65148
20
-1.39057
11
3.65318
21
-1.39148
0
LINE
8
BLACK
6
CONTINUOUS
10
3.65318
20
-1.39148
11
3.65468
21
-1.39271
0
LINE
8
BLACK
6
CONTINUOUS
10
3.65468
20
-1.39271
11
3.6559
21
-1.3942
0
LINE
8
BLACK
6
CONTINUOUS
10
3.6559
20
-1.3942
11
3.65681
21
-1.3959
0
LINE
8
BLACK
6
CONTINUOUS
10
3.65681
20
-1.3959
11
3.65737
21
-1.39775
0
LINE
8
BLACK
6
CONTINUOUS
10
3.65737
20
-1.39775
11
3.65756
21
-1.39967
0
LINE
8
BLACK
6
CONTINUOUS
10
3.65756
20
-1.39967
11
3.65756
21
-1.42033
0
LINE
8
BLACK
6
CONTINUOUS
10
3.65756
20
-1.42033
11
3.65737
21
-1.42225
0
LINE
8
BLACK
6
CONTINUOUS
10
3.65737
20
-1.42225
11
3.65681
21
-1.4241
0
LINE
8
BLACK
6
CONTINUOUS
10
3.65681
20
-1.4241
11
3.6559
21
-1.4258
0
LINE
8
BLACK
6
CONTINUOUS
10
3.6559
20
-1.4258
11
3.65468
21
-1.42729
0
LINE
8
BLACK
6
CONTINUOUS
10
3.65468
20
-1.42729
11
3.65318
21
-1.42852
0
LINE
8
BLACK
6
CONTINUOUS
10
3.65318
20
-1.42852
11
3.65148
21
-1.42943
0
LINE
8
BLACK
6
CONTINUOUS
10
3.65148
20
-1.42943
11
3.64964
21
-1.42999
0
LINE
8
BLACK
6
CONTINUOUS
10
3.64964
20
-1.42999
11
3.64772
21
-1.43018
0
LINE
8
BLACK
6
CONTINUOUS
10
3.64772
20
-1.43018
11
3.61228
21
-1.43018
0
LINE
8
BLACK
6
CONTINUOUS
10
3.61228
20
-1.43018
11
3.61036
21
-1.42999
0
LINE
8
BLACK
6
CONTINUOUS
10
3.61036
20
-1.42999
11
3.60852
21
-1.42943
0
LINE
8
BLACK
6
CONTINUOUS
10
3.60852
20
-1.42943
11
3.60682
21
-1.42852
0
LINE
8
BLACK
6
CONTINUOUS
10
3.60682
20
-1.42852
11
3.60532
21
-1.42729
0
LINE
8
BLACK
6
CONTINUOUS
10
3.60532
20
-1.42729
11
3.6041
21
-1.4258
0
LINE
8
BLACK
6
CONTINUOUS
10
3.6041
20
-1.4258
11
3.60319
21
-1.4241
0
LINE
8
BLACK
6
CONTINUOUS
10
3.60319
20
-1.4241
11
3.60263
21
-1.42225
0
LINE
8
BLACK
6
CONTINUOUS
10
3.60263
20
-1.42225
11
3.60244
21
-1.42033
0
LINE
8
BLACK
6
CONTINUOUS
10
3.60244
20
-1.42033
11
3.60244
21
-1.39967
0
LINE
8
BLACK
6
CONTINUOUS
10
3.60244
20
-1.39967
11
3.60263
21
-1.39775
0
LINE
8
BLACK
6
CONTINUOUS
10
3.60263
20
-1.39775
11
3.60319
21
-1.3959
0
LINE
8
BLACK
6
CONTINUOUS
10
3.60319
20
-1.3959
11
3.6041
21
-1.3942
0
LINE
8
BLACK
6
CONTINUOUS
10
3.6041
20
-1.3942
11
3.60532
21
-1.39271
0
LINE
8
BLACK
6
CONTINUOUS
10
3.60532
20
-1.39271
11
3.60682
21
-1.39148
0
LINE
8
BLACK
6
CONTINUOUS
10
3.60682
20
-1.39148
11
3.60852
21
-1.39057
0
LINE
8
BLACK
6
CONTINUOUS
10
3.60852
20
-1.39057
11
3.61036
21
-1.39001
0
LINE
8
BLACK
6
CONTINUOUS
10
3.61036
20
-1.39001
11
3.61228
21
-1.38982
0
LINE
8
BLACK
6
CONTINUOUS
10
3.61228
20
-1.38982
11
3.64772
21
-1.38982
0
LINE
8
BLACK
6
CONTINUOUS
10
3.64772
20
-1.38982
11
3.64964
21
-1.39001
0
LINE
8
BLACK
6
CONTINUOUS
10
3.31795
20
-1.42898
11
3.16205
21
-1.42898
0
LINE
8
BLACK
6
CONTINUOUS
10
3.16205
20
-1.42898
11
3.16205
21
-1.35102
0
LINE
8
BLACK
6
CONTINUOUS
10
3.16205
20
-1.35102
11
3.31795
21
-1.35102
0
LINE
8
BLACK
6
CONTINUOUS
10
3.31795
20
-1.35102
11
3.31795
21
-1.42898
0
LINE
8
BLACK
6
CONTINUOUS
10
3.46964
20
-1.37409
11
3.47148
21
-1.37465
0
LINE
8
BLACK
6
CONTINUOUS
10
3.47148
20
-1.37465
11
3.47318
21
-1.37556
0
LINE
8
BLACK
6
CONTINUOUS
10
3.47318
20
-1.37556
11
3.47468
21
-1.37678
0
LINE
8
BLACK
6
CONTINUOUS
10
3.47468
20
-1.37678
11
3.4759
21
-1.37827
0
LINE
8
BLACK
6
CONTINUOUS
10
3.4759
20
-1.37827
11
3.47681
21
-1.37997
0
LINE
8
BLACK
6
CONTINUOUS
10
3.47681
20
-1.37997
11
3.47737
21
-1.38182
0
LINE
8
BLACK
6
CONTINUOUS
10
3.47737
20
-1.38182
11
3.47756
21
-1.38374
0
LINE
8
BLACK
6
CONTINUOUS
10
3.47756
20
-1.38374
11
3.47756
21
-1.40441
0
LINE
8
BLACK
6
CONTINUOUS
10
3.47756
20
-1.40441
11
3.47737
21
-1.40633
0
LINE
8
BLACK
6
CONTINUOUS
10
3.47737
20
-1.40633
11
3.47681
21
-1.40818
0
LINE
8
BLACK
6
CONTINUOUS
10
3.47681
20
-1.40818
11
3.4759
21
-1.40988
0
LINE
8
BLACK
6
CONTINUOUS
10
3.4759
20
-1.40988
11
3.47468
21
-1.41137
0
LINE
8
BLACK
6
CONTINUOUS
10
3.47468
20
-1.41137
11
3.47318
21
-1.41259
0
LINE
8
BLACK
6
CONTINUOUS
10
3.47318
20
-1.41259
11
3.47148
21
-1.4135
0
LINE
8
BLACK
6
CONTINUOUS
10
3.47148
20
-1.4135
11
3.46964
21
-1.41406
0
LINE
8
BLACK
6
CONTINUOUS
10
3.46964
20
-1.41406
11
3.46772
21
-1.41425
0
LINE
8
BLACK
6
CONTINUOUS
10
3.46772
20
-1.41425
11
3.43228
21
-1.41425
0
LINE
8
BLACK
6
CONTINUOUS
10
3.43228
20
-1.41425
11
3.43036
21
-1.41406
0
LINE
8
BLACK
6
CONTINUOUS
10
3.43036
20
-1.41406
11
3.42852
21
-1.4135
0
LINE
8
BLACK
6
CONTINUOUS
10
3.42852
20
-1.4135
11
3.42682
21
-1.41259
0
LINE
8
BLACK
6
CONTINUOUS
10
3.42682
20
-1.41259
11
3.42532
21
-1.41137
0
LINE
8
BLACK
6
CONTINUOUS
10
3.42532
20
-1.41137
11
3.4241
21
-1.40988
0
LINE
8
BLACK
6
CONTINUOUS
10
3.4241
20
-1.40988
11
3.42319
21
-1.40818
0
LINE
8
BLACK
6
CONTINUOUS
10
3.42319
20
-1.40818
11
3.42263
21
-1.40633
0
LINE
8
BLACK
6
CONTINUOUS
10
3.42263
20
-1.40633
11
3.42244
21
-1.40441
0
LINE
8
BLACK
6
CONTINUOUS
10
3.42244
20
-1.40441
11
3.42244
21
-1.38374
0
LINE
8
BLACK
6
CONTINUOUS
10
3.42244
20
-1.38374
11
3.42263
21
-1.38182
0
LINE
8
BLACK
6
CONTINUOUS
10
3.42263
20
-1.38182
11
3.42319
21
-1.37997
0
LINE
8
BLACK
6
CONTINUOUS
10
3.42319
20
-1.37997
11
3.4241
21
-1.37827
0
LINE
8
BLACK
6
CONTINUOUS
10
3.4241
20
-1.37827
11
3.42532
21
-1.37678
0
LINE
8
BLACK
6
CONTINUOUS
10
3.42532
20
-1.37678
11
3.42682
21
-1.37556
0
LINE
8
BLACK
6
CONTINUOUS
10
3.42682
20
-1.37556
11
3.42852
21
-1.37465
0
LINE
8
BLACK
6
CONTINUOUS
10
3.42852
20
-1.37465
11
3.43036
21
-1.37409
0
LINE
8
BLACK
6
CONTINUOUS
10
3.43036
20
-1.37409
11
3.43228
21
-1.3739
0
LINE
8
BLACK
6
CONTINUOUS
10
3.43228
20
-1.3739
11
3.46772
21
-1.3739
0
LINE
8
BLACK
6
CONTINUOUS
10
3.46772
20
-1.3739
11
3.46964
21
-1.37409
0
LINE
8
BLACK
6
CONTINUOUS
10
3.56362
20
-1.37772
11
3.51638
21
-1.37772
0
LINE
8
BLACK
6
CONTINUOUS
10
3.51638
20
-1.37772
11
3.51638
21
-1.34228
0
LINE
8
BLACK
6
CONTINUOUS
10
3.51638
20
-1.34228
11
3.56362
21
-1.34228
0
LINE
8
BLACK
6
CONTINUOUS
10
3.56362
20
-1.34228
11
3.56362
21
-1.37772
0
LINE
8
BLACK
6
CONTINUOUS
10
5.49339
20
-1.36366
11
5.44614
21
-1.36366
0
LINE
8
BLACK
6
CONTINUOUS
10
5.44614
20
-1.36366
11
5.44614
21
-1.27705
0
LINE
8
BLACK
6
CONTINUOUS
10
5.44614
20
-1.27705
11
5.49339
21
-1.27705
0
LINE
8
BLACK
6
CONTINUOUS
10
5.49339
20
-1.27705
11
5.49339
21
-1.36366
0
LINE
8
BLACK
6
CONTINUOUS
10
5.31386
20
-1.36366
11
5.26661
21
-1.36366
0
LINE
8
BLACK
6
CONTINUOUS
10
5.26661
20
-1.36366
11
5.26661
21
-1.27705
0
LINE
8
BLACK
6
CONTINUOUS
10
5.26661
20
-1.27705
11
5.31386
21
-1.27705
0
LINE
8
BLACK
6
CONTINUOUS
10
5.31386
20
-1.27705
11
5.31386
21
-1.36366
0
LINE
8
BLACK
6
CONTINUOUS
10
4.60208
20
-1.21442
11
4.61118
21
-1.21819
0
LINE
8
BLACK
6
CONTINUOUS
10
4.61118
20
-1.21819
11
4.61937
21
-1.22366
0
LINE
8
BLACK
6
CONTINUOUS
10
4.61937
20
-1.22366
11
4.62634
21
-1.23063
0
LINE
8
BLACK
6
CONTINUOUS
10
4.62634
20
-1.23063
11
4.63181
21
-1.23882
0
LINE
8
BLACK
6
CONTINUOUS
10
4.63181
20
-1.23882
11
4.63558
21
-1.24792
0
LINE
8
BLACK
6
CONTINUOUS
10
4.63558
20
-1.24792
11
4.6375
21
-1.25758
0
LINE
8
BLACK
6
CONTINUOUS
10
4.6375
20
-1.25758
11
4.6375
21
-1.26742
0
LINE
8
BLACK
6
CONTINUOUS
10
4.6375
20
-1.26742
11
4.63558
21
-1.27708
0
LINE
8
BLACK
6
CONTINUOUS
10
4.63558
20
-1.27708
11
4.63181
21
-1.28618
0
LINE
8
BLACK
6
CONTINUOUS
10
4.63181
20
-1.28618
11
4.62634
21
-1.29437
0
LINE
8
BLACK
6
CONTINUOUS
10
4.62634
20
-1.29437
11
4.61937
21
-1.30134
0
LINE
8
BLACK
6
CONTINUOUS
10
4.61937
20
-1.30134
11
4.61118
21
-1.30681
0
LINE
8
BLACK
6
CONTINUOUS
10
4.61118
20
-1.30681
11
4.60208
21
-1.31058
0
LINE
8
BLACK
6
CONTINUOUS
10
4.60208
20
-1.31058
11
4.59242
21
-1.3125
0
LINE
8
BLACK
6
CONTINUOUS
10
4.59242
20
-1.3125
11
4.58258
21
-1.3125
0
LINE
8
BLACK
6
CONTINUOUS
10
4.58258
20
-1.3125
11
4.57292
21
-1.31058
0
LINE
8
BLACK
6
CONTINUOUS
10
4.57292
20
-1.31058
11
4.56382
21
-1.30681
0
LINE
8
BLACK
6
CONTINUOUS
10
4.56382
20
-1.30681
11
4.55563
21
-1.30134
0
LINE
8
BLACK
6
CONTINUOUS
10
4.55563
20
-1.30134
11
4.54866
21
-1.29437
0
LINE
8
BLACK
6
CONTINUOUS
10
4.54866
20
-1.29437
11
4.54319
21
-1.28618
0
LINE
8
BLACK
6
CONTINUOUS
10
4.54319
20
-1.28618
11
4.53942
21
-1.27708
0
LINE
8
BLACK
6
CONTINUOUS
10
4.53942
20
-1.27708
11
4.5375
21
-1.26742
0
LINE
8
BLACK
6
CONTINUOUS
10
4.5375
20
-1.26742
11
4.5375
21
-1.25758
0
LINE
8
BLACK
6
CONTINUOUS
10
4.5375
20
-1.25758
11
4.53942
21
-1.24792
0
LINE
8
BLACK
6
CONTINUOUS
10
4.53942
20
-1.24792
11
4.54319
21
-1.23882
0
LINE
8
BLACK
6
CONTINUOUS
10
4.54319
20
-1.23882
11
4.54866
21
-1.23063
0
LINE
8
BLACK
6
CONTINUOUS
10
4.54866
20
-1.23063
11
4.55563
21
-1.22366
0
LINE
8
BLACK
6
CONTINUOUS
10
4.55563
20
-1.22366
11
4.56382
21
-1.21819
0
LINE
8
BLACK
6
CONTINUOUS
10
4.56382
20
-1.21819
11
4.57292
21
-1.21442
0
LINE
8
BLACK
6
CONTINUOUS
10
4.57292
20
-1.21442
11
4.58258
21
-1.2125
0
LINE
8
BLACK
6
CONTINUOUS
10
4.58258
20
-1.2125
11
4.59242
21
-1.2125
0
LINE
8
BLACK
6
CONTINUOUS
10
4.59242
20
-1.2125
11
4.60208
21
-1.21442
0
LINE
8
BLACK
6
CONTINUOUS
10
4.2526
20
-1.28051
11
3.8274
21
-1.28051
0
LINE
8
BLACK
6
CONTINUOUS
10
3.8274
20
-1.28051
11
3.8274
21
-0.910433
0
LINE
8
BLACK
6
CONTINUOUS
10
3.8274
20
-0.910433
11
4.2526
21
-0.910433
0
LINE
8
BLACK
6
CONTINUOUS
10
4.2526
20
-0.910433
11
4.2526
21
-1.28051
0
LINE
8
BLACK
6
CONTINUOUS
10
3.46398
20
-1.23839
11
3.40492
21
-1.23839
0
LINE
8
BLACK
6
CONTINUOUS
10
3.40492
20
-1.23839
11
3.40492
21
-1.15965
0
LINE
8
BLACK
6
CONTINUOUS
10
3.40492
20
-1.15965
11
3.46398
21
-1.15965
0
LINE
8
BLACK
6
CONTINUOUS
10
3.46398
20
-1.15965
11
3.46398
21
-1.23839
0
LINE
8
BLACK
6
CONTINUOUS
10
3.64508
20
-1.23839
11
3.58602
21
-1.23839
0
LINE
8
BLACK
6
CONTINUOUS
10
3.58602
20
-1.23839
11
3.58602
21
-1.15965
0
LINE
8
BLACK
6
CONTINUOUS
10
3.58602
20
-1.15965
11
3.64508
21
-1.15965
0
LINE
8
BLACK
6
CONTINUOUS
10
3.64508
20
-1.15965
11
3.64508
21
-1.23839
0
LINE
8
BLACK
6
CONTINUOUS
10
3.55453
20
-1.23839
11
3.49547
21
-1.23839
0
LINE
8
BLACK
6
CONTINUOUS
10
3.49547
20
-1.23839
11
3.49547
21
-1.15965
0
LINE
8
BLACK
6
CONTINUOUS
10
3.49547
20
-1.15965
11
3.55453
21
-1.15965
0
LINE
8
BLACK
6
CONTINUOUS
10
3.55453
20
-1.15965
11
3.55453
21
-1.23839
0
LINE
8
BLACK
6
CONTINUOUS
10
5.49417
20
-1.19831
11
5.26583
21
-1.19831
0
LINE
8
BLACK
6
CONTINUOUS
10
5.26583
20
-1.19831
11
5.26583
21
-0.946339
0
LINE
8
BLACK
6
CONTINUOUS
10
5.26583
20
-0.946339
11
5.49417
21
-0.946339
0
LINE
8
BLACK
6
CONTINUOUS
10
5.49417
20
-0.946339
11
5.49417
21
-1.19831
0
LINE
8
BLACK
6
CONTINUOUS
10
3.16128
20
-0.960778
11
3.18063
21
-0.968791
0
LINE
8
BLACK
6
CONTINUOUS
10
3.18063
20
-0.968791
11
3.19804
21
-0.980424
0
LINE
8
BLACK
6
CONTINUOUS
10
3.19804
20
-0.980424
11
3.21284
21
-0.99523
0
LINE
8
BLACK
6
CONTINUOUS
10
3.21284
20
-0.99523
11
3.22448
21
-1.01264
0
LINE
8
BLACK
6
CONTINUOUS
10
3.22448
20
-1.01264
11
3.23249
21
-1.03199
0
LINE
8
BLACK
6
CONTINUOUS
10
3.23249
20
-1.03199
11
3.23657
21
-1.05252
0
LINE
8
BLACK
6
CONTINUOUS
10
3.23657
20
-1.05252
11
3.23657
21
-1.07346
0
LINE
8
BLACK
6
CONTINUOUS
10
3.23657
20
-1.07346
11
3.23249
21
-1.094
0
LINE
8
BLACK
6
CONTINUOUS
10
3.23249
20
-1.094
11
3.22448
21
-1.11334
0
LINE
8
BLACK
6
CONTINUOUS
10
3.22448
20
-1.11334
11
3.21284
21
-1.13075
0
LINE
8
BLACK
6
CONTINUOUS
10
3.21284
20
-1.13075
11
3.19804
21
-1.14556
0
LINE
8
BLACK
6
CONTINUOUS
10
3.19804
20
-1.14556
11
3.18063
21
-1.15719
0
LINE
8
BLACK
6
CONTINUOUS
10
3.18063
20
-1.15719
11
3.16128
21
-1.16521
0
LINE
8
BLACK
6
CONTINUOUS
10
3.16128
20
-1.16521
11
3.14075
21
-1.16929
0
LINE
8
BLACK
6
CONTINUOUS
10
3.14075
20
-1.16929
11
3.11981
21
-1.16929
0
LINE
8
BLACK
6
CONTINUOUS
10
3.11981
20
-1.16929
11
3.09927
21
-1.16521
0
LINE
8
BLACK
6
CONTINUOUS
10
3.09927
20
-1.16521
11
3.07992
21
-1.15719
0
LINE
8
BLACK
6
CONTINUOUS
10
3.07992
20
-1.15719
11
3.06251
21
-1.14556
0
LINE
8
BLACK
6
CONTINUOUS
10
3.06251
20
-1.14556
11
3.04771
21
-1.13075
0
LINE
8
BLACK
6
CONTINUOUS
10
3.04771
20
-1.13075
11
3.03607
21
-1.11334
0
LINE
8
BLACK
6
CONTINUOUS
10
3.03607
20
-1.11334
11
3.02806
21
-1.094
0
LINE
8
BLACK
6
CONTINUOUS
10
3.02806
20
-1.094
11
3.02398
21
-1.07346
0
LINE
8
BLACK
6
CONTINUOUS
10
3.02398
20
-1.07346
11
3.02398
21
-1.05252
0
LINE
8
BLACK
6
CONTINUOUS
10
3.02398
20
-1.05252
11
3.02806
21
-1.03199
0
LINE
8
BLACK
6
CONTINUOUS
10
3.02806
20
-1.03199
11
3.03607
21
-1.01264
0
LINE
8
BLACK
6
CONTINUOUS
10
3.03607
20
-1.01264
11
3.04771
21
-0.99523
0
LINE
8
BLACK
6
CONTINUOUS
10
3.04771
20
-0.99523
11
3.06251
21
-0.980424
0
LINE
8
BLACK
6
CONTINUOUS
10
3.06251
20
-0.980424
11
3.07992
21
-0.968791
0
LINE
8
BLACK
6
CONTINUOUS
10
3.07992
20
-0.968791
11
3.09927
21
-0.960778
0
LINE
8
BLACK
6
CONTINUOUS
10
3.09927
20
-0.960778
11
3.11981
21
-0.956693
0
LINE
8
BLACK
6
CONTINUOUS
10
3.11981
20
-0.956693
11
3.14075
21
-0.956693
0
LINE
8
BLACK
6
CONTINUOUS
10
3.14075
20
-0.956693
11
3.16128
21
-0.960778
0
LINE
8
BLACK
6
CONTINUOUS
10
3.5998
20
-0.990354
11
3.4502
21
-0.990354
0
LINE
8
BLACK
6
CONTINUOUS
10
3.4502
20
-0.990354
11
3.4502
21
-0.911614
0
LINE
8
BLACK
6
CONTINUOUS
10
3.4502
20
-0.911614
11
3.5998
21
-0.911614
0
LINE
8
BLACK
6
CONTINUOUS
10
3.5998
20
-0.911614
11
3.5998
21
-0.990354
  0
ENDSEC
  0
EOF
