  0
SECTION
  2
HEADER
  9
$ANGBASE
  50
0.0
  9
$ANGDIR
  70
1
  9
$MEASUREMENT
  70
0
  0
ENDSEC
  0
SECTION
  2
TABLES
  0
TABLE
  2
LTYPE
  70
4
  0
LTYPE
  5
40F
  2
CONTINUOUS
  70
0
  3
Solid line
  72
65
  73
0
  40
0.0
  0
LTYPE
  5
410
  2
DASHDOT
 70
0
  3
Dash Dot ____ _ ____ _
 72
65
 73
4
 40
2.0
 49
1.25
 49
-0.25
 49
0.25
 49
-0.25
  0
LTYPE
  5
411
  2
DASHED
 70
0
  3
Dashed __ __ __ __ __
 72
65
 73
2
 40
0.75
 49
0.5
 49
-0.25
  0
LTYPE
  5
43B
  2
DOTTED
 70
0
  3
Dotted .  .  .  .
 72
65
 73
2
 40
0.2
 49
0.0
 49
-0.2
  0
ENDTAB
  0
TABLE
  2
STYLE
  70
4
  0
STYLE
  2
KICAD
  70
0
  40
0
  41
1
  42
1
  50
0
  71
0
  3
isocp.shx
  0
STYLE
  2
KICADB
  70
0
  40
0
  41
1
  42
1
  50
0
  71
0
  3
isocp.shx
  0
STYLE
  2
KICADI
  70
0
  40
0
  41
1
  42
1
  50
15
  71
0
  3
isocp.shx
  0
STYLE
  2
KICADBI
  70
0
  40
0
  41
1
  42
1
  50
15
  71
0
  3
isocp.shx
  0
ENDTAB
  0
TABLE
  2
LAYER
  70
1
  0
LAYER
  2
BLACK
  70
0
  62
7
  6
CONTINUOUS
  0
ENDTAB
  0
ENDSEC
  0
SECTION
  2
ENTITIES
0
LINE
8
BLACK
6
CONTINUOUS
10
5.7003
20
-2.02377
11
5.71964
21
-2.03178
0
LINE
8
BLACK
6
CONTINUOUS
10
5.71964
20
-2.03178
11
5.73705
21
-2.04342
0
LINE
8
BLACK
6
CONTINUOUS
10
5.73705
20
-2.04342
11
5.75186
21
-2.05822
0
LINE
8
BLACK
6
CONTINUOUS
10
5.75186
20
-2.05822
11
5.76349
21
-2.07563
0
LINE
8
BLACK
6
CONTINUOUS
10
5.76349
20
-2.07563
11
5.77151
21
-2.09498
0
LINE
8
BLACK
6
CONTINUOUS
10
5.77151
20
-2.09498
11
5.77559
21
-2.11551
0
LINE
8
BLACK
6
CONTINUOUS
10
5.77559
20
-2.11551
11
5.77559
21
-2.13645
0
LINE
8
BLACK
6
CONTINUOUS
10
5.77559
20
-2.13645
11
5.77151
21
-2.15699
0
LINE
8
BLACK
6
CONTINUOUS
10
5.77151
20
-2.15699
11
5.76349
21
-2.17634
0
LINE
8
BLACK
6
CONTINUOUS
10
5.76349
20
-2.17634
11
5.75186
21
-2.19375
0
LINE
8
BLACK
6
CONTINUOUS
10
5.75186
20
-2.19375
11
5.73705
21
-2.20855
0
LINE
8
BLACK
6
CONTINUOUS
10
5.73705
20
-2.20855
11
5.71964
21
-2.22019
0
LINE
8
BLACK
6
CONTINUOUS
10
5.71964
20
-2.22019
11
5.7003
21
-2.2282
0
LINE
8
BLACK
6
CONTINUOUS
10
5.7003
20
-2.2282
11
5.67976
21
-2.23228
0
LINE
8
BLACK
6
CONTINUOUS
10
5.67976
20
-2.23228
11
5.65882
21
-2.23228
0
LINE
8
BLACK
6
CONTINUOUS
10
5.65882
20
-2.23228
11
5.63828
21
-2.2282
0
LINE
8
BLACK
6
CONTINUOUS
10
5.63828
20
-2.2282
11
5.61894
21
-2.22019
0
LINE
8
BLACK
6
CONTINUOUS
10
5.61894
20
-2.22019
11
5.60153
21
-2.20855
0
LINE
8
BLACK
6
CONTINUOUS
10
5.60153
20
-2.20855
11
5.58672
21
-2.19375
0
LINE
8
BLACK
6
CONTINUOUS
10
5.58672
20
-2.19375
11
5.57509
21
-2.17634
0
LINE
8
BLACK
6
CONTINUOUS
10
5.57509
20
-2.17634
11
5.56708
21
-2.15699
0
LINE
8
BLACK
6
CONTINUOUS
10
5.56708
20
-2.15699
11
5.56299
21
-2.13645
0
LINE
8
BLACK
6
CONTINUOUS
10
5.56299
20
-2.13645
11
5.56299
21
-2.11551
0
LINE
8
BLACK
6
CONTINUOUS
10
5.56299
20
-2.11551
11
5.56708
21
-2.09498
0
LINE
8
BLACK
6
CONTINUOUS
10
5.56708
20
-2.09498
11
5.57509
21
-2.07563
0
LINE
8
BLACK
6
CONTINUOUS
10
5.57509
20
-2.07563
11
5.58672
21
-2.05822
0
LINE
8
BLACK
6
CONTINUOUS
10
5.58672
20
-2.05822
11
5.60153
21
-2.04342
0
LINE
8
BLACK
6
CONTINUOUS
10
5.60153
20
-2.04342
11
5.61894
21
-2.03178
0
LINE
8
BLACK
6
CONTINUOUS
10
5.61894
20
-2.03178
11
5.63828
21
-2.02377
0
LINE
8
BLACK
6
CONTINUOUS
10
5.63828
20
-2.02377
11
5.65882
21
-2.01969
0
LINE
8
BLACK
6
CONTINUOUS
10
5.65882
20
-2.01969
11
5.67976
21
-2.01969
0
LINE
8
BLACK
6
CONTINUOUS
10
5.67976
20
-2.01969
11
5.7003
21
-2.02377
0
LINE
8
BLACK
6
CONTINUOUS
10
3.16601
20
-2.02279
11
3.18535
21
-2.0308
0
LINE
8
BLACK
6
CONTINUOUS
10
3.18535
20
-2.0308
11
3.20276
21
-2.04243
0
LINE
8
BLACK
6
CONTINUOUS
10
3.20276
20
-2.04243
11
3.21757
21
-2.05724
0
LINE
8
BLACK
6
CONTINUOUS
10
3.21757
20
-2.05724
11
3.2292
21
-2.07465
0
LINE
8
BLACK
6
CONTINUOUS
10
3.2292
20
-2.07465
11
3.23721
21
-2.09399
0
LINE
8
BLACK
6
CONTINUOUS
10
3.23721
20
-2.09399
11
3.2413
21
-2.11453
0
LINE
8
BLACK
6
CONTINUOUS
10
3.2413
20
-2.11453
11
3.2413
21
-2.13547
0
LINE
8
BLACK
6
CONTINUOUS
10
3.2413
20
-2.13547
11
3.23721
21
-2.15601
0
LINE
8
BLACK
6
CONTINUOUS
10
3.23721
20
-2.15601
11
3.2292
21
-2.17535
0
LINE
8
BLACK
6
CONTINUOUS
10
3.2292
20
-2.17535
11
3.21757
21
-2.19276
0
LINE
8
BLACK
6
CONTINUOUS
10
3.21757
20
-2.19276
11
3.20276
21
-2.20757
0
LINE
8
BLACK
6
CONTINUOUS
10
3.20276
20
-2.20757
11
3.18535
21
-2.2192
0
LINE
8
BLACK
6
CONTINUOUS
10
3.18535
20
-2.2192
11
3.16601
21
-2.22721
0
LINE
8
BLACK
6
CONTINUOUS
10
3.16601
20
-2.22721
11
3.14547
21
-2.2313
0
LINE
8
BLACK
6
CONTINUOUS
10
3.14547
20
-2.2313
11
3.12453
21
-2.2313
0
LINE
8
BLACK
6
CONTINUOUS
10
3.12453
20
-2.2313
11
3.10399
21
-2.22721
0
LINE
8
BLACK
6
CONTINUOUS
10
3.10399
20
-2.22721
11
3.08465
21
-2.2192
0
LINE
8
BLACK
6
CONTINUOUS
10
3.08465
20
-2.2192
11
3.06724
21
-2.20757
0
LINE
8
BLACK
6
CONTINUOUS
10
3.06724
20
-2.20757
11
3.05243
21
-2.19276
0
LINE
8
BLACK
6
CONTINUOUS
10
3.05243
20
-2.19276
11
3.0408
21
-2.17535
0
LINE
8
BLACK
6
CONTINUOUS
10
3.0408
20
-2.17535
11
3.03279
21
-2.15601
0
LINE
8
BLACK
6
CONTINUOUS
10
3.03279
20
-2.15601
11
3.0287
21
-2.13547
0
LINE
8
BLACK
6
CONTINUOUS
10
3.0287
20
-2.13547
11
3.0287
21
-2.11453
0
LINE
8
BLACK
6
CONTINUOUS
10
3.0287
20
-2.11453
11
3.03279
21
-2.09399
0
LINE
8
BLACK
6
CONTINUOUS
10
3.03279
20
-2.09399
11
3.0408
21
-2.07465
0
LINE
8
BLACK
6
CONTINUOUS
10
3.0408
20
-2.07465
11
3.05243
21
-2.05724
0
LINE
8
BLACK
6
CONTINUOUS
10
3.05243
20
-2.05724
11
3.06724
21
-2.04243
0
LINE
8
BLACK
6
CONTINUOUS
10
3.06724
20
-2.04243
11
3.08465
21
-2.0308
0
LINE
8
BLACK
6
CONTINUOUS
10
3.08465
20
-2.0308
11
3.10399
21
-2.02279
0
LINE
8
BLACK
6
CONTINUOUS
10
3.10399
20
-2.02279
11
3.12453
21
-2.0187
0
LINE
8
BLACK
6
CONTINUOUS
10
3.12453
20
-2.0187
11
3.14547
21
-2.0187
0
LINE
8
BLACK
6
CONTINUOUS
10
3.14547
20
-2.0187
11
3.16601
21
-2.02279
0
LINE
8
BLACK
6
CONTINUOUS
10
4.60208
20
-1.9267
11
4.61118
21
-1.93047
0
LINE
8
BLACK
6
CONTINUOUS
10
4.61118
20
-1.93047
11
4.61937
21
-1.93595
0
LINE
8
BLACK
6
CONTINUOUS
10
4.61937
20
-1.93595
11
4.62634
21
-1.94291
0
LINE
8
BLACK
6
CONTINUOUS
10
4.62634
20
-1.94291
11
4.63181
21
-1.9511
0
LINE
8
BLACK
6
CONTINUOUS
10
4.63181
20
-1.9511
11
4.63558
21
-1.9602
0
LINE
8
BLACK
6
CONTINUOUS
10
4.63558
20
-1.9602
11
4.6375
21
-1.96986
0
LINE
8
BLACK
6
CONTINUOUS
10
4.6375
20
-1.96986
11
4.6375
21
-1.97971
0
LINE
8
BLACK
6
CONTINUOUS
10
4.6375
20
-1.97971
11
4.63558
21
-1.98937
0
LINE
8
BLACK
6
CONTINUOUS
10
4.63558
20
-1.98937
11
4.63181
21
-1.99847
0
LINE
8
BLACK
6
CONTINUOUS
10
4.63181
20
-1.99847
11
4.62634
21
-2.00666
0
LINE
8
BLACK
6
CONTINUOUS
10
4.62634
20
-2.00666
11
4.61937
21
-2.01362
0
LINE
8
BLACK
6
CONTINUOUS
10
4.61937
20
-2.01362
11
4.61118
21
-2.01909
0
LINE
8
BLACK
6
CONTINUOUS
10
4.61118
20
-2.01909
11
4.60208
21
-2.02286
0
LINE
8
BLACK
6
CONTINUOUS
10
4.60208
20
-2.02286
11
4.59242
21
-2.02478
0
LINE
8
BLACK
6
CONTINUOUS
10
4.59242
20
-2.02478
11
4.58258
21
-2.02478
0
LINE
8
BLACK
6
CONTINUOUS
10
4.58258
20
-2.02478
11
4.57292
21
-2.02286
0
LINE
8
BLACK
6
CONTINUOUS
10
4.57292
20
-2.02286
11
4.56382
21
-2.01909
0
LINE
8
BLACK
6
CONTINUOUS
10
4.56382
20
-2.01909
11
4.55563
21
-2.01362
0
LINE
8
BLACK
6
CONTINUOUS
10
4.55563
20
-2.01362
11
4.54866
21
-2.00666
0
LINE
8
BLACK
6
CONTINUOUS
10
4.54866
20
-2.00666
11
4.54319
21
-1.99847
0
LINE
8
BLACK
6
CONTINUOUS
10
4.54319
20
-1.99847
11
4.53942
21
-1.98937
0
LINE
8
BLACK
6
CONTINUOUS
10
4.53942
20
-1.98937
11
4.5375
21
-1.97971
0
LINE
8
BLACK
6
CONTINUOUS
10
4.5375
20
-1.97971
11
4.5375
21
-1.96986
0
LINE
8
BLACK
6
CONTINUOUS
10
4.5375
20
-1.96986
11
4.53942
21
-1.9602
0
LINE
8
BLACK
6
CONTINUOUS
10
4.53942
20
-1.9602
11
4.54319
21
-1.9511
0
LINE
8
BLACK
6
CONTINUOUS
10
4.54319
20
-1.9511
11
4.54866
21
-1.94291
0
LINE
8
BLACK
6
CONTINUOUS
10
4.54866
20
-1.94291
11
4.55563
21
-1.93595
0
LINE
8
BLACK
6
CONTINUOUS
10
4.55563
20
-1.93595
11
4.56382
21
-1.93047
0
LINE
8
BLACK
6
CONTINUOUS
10
4.56382
20
-1.93047
11
4.57292
21
-1.9267
0
LINE
8
BLACK
6
CONTINUOUS
10
4.57292
20
-1.9267
11
4.58258
21
-1.92478
0
LINE
8
BLACK
6
CONTINUOUS
10
4.58258
20
-1.92478
11
4.59242
21
-1.92478
0
LINE
8
BLACK
6
CONTINUOUS
10
4.59242
20
-1.92478
11
4.60208
21
-1.9267
0
LINE
8
BLACK
6
CONTINUOUS
10
5.10208
20
-1.78379
11
5.11118
21
-1.78756
0
LINE
8
BLACK
6
CONTINUOUS
10
5.11118
20
-1.78756
11
5.11937
21
-1.79303
0
LINE
8
BLACK
6
CONTINUOUS
10
5.11937
20
-1.79303
11
5.12634
21
-1.8
0
LINE
8
BLACK
6
CONTINUOUS
10
5.12634
20
-1.8
11
5.13181
21
-1.80819
0
LINE
8
BLACK
6
CONTINUOUS
10
5.13181
20
-1.80819
11
5.13558
21
-1.81729
0
LINE
8
BLACK
6
CONTINUOUS
10
5.13558
20
-1.81729
11
5.1375
21
-1.82695
0
LINE
8
BLACK
6
CONTINUOUS
10
5.1375
20
-1.82695
11
5.1375
21
-1.83679
0
LINE
8
BLACK
6
CONTINUOUS
10
5.1375
20
-1.83679
11
5.13558
21
-1.84645
0
LINE
8
BLACK
6
CONTINUOUS
10
5.13558
20
-1.84645
11
5.13181
21
-1.85555
0
LINE
8
BLACK
6
CONTINUOUS
10
5.13181
20
-1.85555
11
5.12634
21
-1.86374
0
LINE
8
BLACK
6
CONTINUOUS
10
5.12634
20
-1.86374
11
5.11937
21
-1.87071
0
LINE
8
BLACK
6
CONTINUOUS
10
5.11937
20
-1.87071
11
5.11118
21
-1.87618
0
LINE
8
BLACK
6
CONTINUOUS
10
5.11118
20
-1.87618
11
5.10208
21
-1.87995
0
LINE
8
BLACK
6
CONTINUOUS
10
5.10208
20
-1.87995
11
5.09242
21
-1.88187
0
LINE
8
BLACK
6
CONTINUOUS
10
5.09242
20
-1.88187
11
5.08258
21
-1.88187
0
LINE
8
BLACK
6
CONTINUOUS
10
5.08258
20
-1.88187
11
5.07292
21
-1.87995
0
LINE
8
BLACK
6
CONTINUOUS
10
5.07292
20
-1.87995
11
5.06382
21
-1.87618
0
LINE
8
BLACK
6
CONTINUOUS
10
5.06382
20
-1.87618
11
5.05563
21
-1.87071
0
LINE
8
BLACK
6
CONTINUOUS
10
5.05563
20
-1.87071
11
5.04866
21
-1.86374
0
LINE
8
BLACK
6
CONTINUOUS
10
5.04866
20
-1.86374
11
5.04319
21
-1.85555
0
LINE
8
BLACK
6
CONTINUOUS
10
5.04319
20
-1.85555
11
5.03942
21
-1.84645
0
LINE
8
BLACK
6
CONTINUOUS
10
5.03942
20
-1.84645
11
5.0375
21
-1.83679
0
LINE
8
BLACK
6
CONTINUOUS
10
5.0375
20
-1.83679
11
5.0375
21
-1.82695
0
LINE
8
BLACK
6
CONTINUOUS
10
5.0375
20
-1.82695
11
5.03942
21
-1.81729
0
LINE
8
BLACK
6
CONTINUOUS
10
5.03942
20
-1.81729
11
5.04319
21
-1.80819
0
LINE
8
BLACK
6
CONTINUOUS
10
5.04319
20
-1.80819
11
5.04866
21
-1.8
0
LINE
8
BLACK
6
CONTINUOUS
10
5.04866
20
-1.8
11
5.05563
21
-1.79303
0
LINE
8
BLACK
6
CONTINUOUS
10
5.05563
20
-1.79303
11
5.06382
21
-1.78756
0
LINE
8
BLACK
6
CONTINUOUS
10
5.06382
20
-1.78756
11
5.07292
21
-1.78379
0
LINE
8
BLACK
6
CONTINUOUS
10
5.07292
20
-1.78379
11
5.08258
21
-1.78187
0
LINE
8
BLACK
6
CONTINUOUS
10
5.08258
20
-1.78187
11
5.09242
21
-1.78187
0
LINE
8
BLACK
6
CONTINUOUS
10
5.09242
20
-1.78187
11
5.10208
21
-1.78379
0
LINE
8
BLACK
6
CONTINUOUS
10
5.56662
20
-1.78844
11
5.57396
21
-1.79067
0
LINE
8
BLACK
6
CONTINUOUS
10
5.57396
20
-1.79067
11
5.58074
21
-1.79429
0
LINE
8
BLACK
6
CONTINUOUS
10
5.58074
20
-1.79429
11
5.58667
21
-1.79916
0
LINE
8
BLACK
6
CONTINUOUS
10
5.58667
20
-1.79916
11
5.59154
21
-1.80509
0
LINE
8
BLACK
6
CONTINUOUS
10
5.59154
20
-1.80509
11
5.59516
21
-1.81186
0
LINE
8
BLACK
6
CONTINUOUS
10
5.59516
20
-1.81186
11
5.59739
21
-1.81921
0
LINE
8
BLACK
6
CONTINUOUS
10
5.59739
20
-1.81921
11
5.59814
21
-1.82685
0
LINE
8
BLACK
6
CONTINUOUS
10
5.59814
20
-1.82685
11
5.59739
21
-1.83449
0
LINE
8
BLACK
6
CONTINUOUS
10
5.59739
20
-1.83449
11
5.59516
21
-1.84184
0
LINE
8
BLACK
6
CONTINUOUS
10
5.59516
20
-1.84184
11
5.59154
21
-1.84861
0
LINE
8
BLACK
6
CONTINUOUS
10
5.59154
20
-1.84861
11
5.58667
21
-1.85454
0
LINE
8
BLACK
6
CONTINUOUS
10
5.58667
20
-1.85454
11
5.58074
21
-1.85941
0
LINE
8
BLACK
6
CONTINUOUS
10
5.58074
20
-1.85941
11
5.57396
21
-1.86303
0
LINE
8
BLACK
6
CONTINUOUS
10
5.57396
20
-1.86303
11
5.56662
21
-1.86526
0
LINE
8
BLACK
6
CONTINUOUS
10
5.56662
20
-1.86526
11
5.56089
21
-1.86583
0
LINE
8
BLACK
6
CONTINUOUS
10
5.56089
20
-1.86583
11
5.47911
21
-1.86583
0
LINE
8
BLACK
6
CONTINUOUS
10
5.47911
20
-1.86583
11
5.47338
21
-1.86526
0
LINE
8
BLACK
6
CONTINUOUS
10
5.47338
20
-1.86526
11
5.46604
21
-1.86303
0
LINE
8
BLACK
6
CONTINUOUS
10
5.46604
20
-1.86303
11
5.45926
21
-1.85941
0
LINE
8
BLACK
6
CONTINUOUS
10
5.45926
20
-1.85941
11
5.45333
21
-1.85454
0
LINE
8
BLACK
6
CONTINUOUS
10
5.45333
20
-1.85454
11
5.44846
21
-1.84861
0
LINE
8
BLACK
6
CONTINUOUS
10
5.44846
20
-1.84861
11
5.44484
21
-1.84184
0
LINE
8
BLACK
6
CONTINUOUS
10
5.44484
20
-1.84184
11
5.44261
21
-1.83449
0
LINE
8
BLACK
6
CONTINUOUS
10
5.44261
20
-1.83449
11
5.44186
21
-1.82685
0
LINE
8
BLACK
6
CONTINUOUS
10
5.44186
20
-1.82685
11
5.44261
21
-1.81921
0
LINE
8
BLACK
6
CONTINUOUS
10
5.44261
20
-1.81921
11
5.44484
21
-1.81186
0
LINE
8
BLACK
6
CONTINUOUS
10
5.44484
20
-1.81186
11
5.44846
21
-1.80509
0
LINE
8
BLACK
6
CONTINUOUS
10
5.44846
20
-1.80509
11
5.45333
21
-1.79916
0
LINE
8
BLACK
6
CONTINUOUS
10
5.45333
20
-1.79916
11
5.45926
21
-1.79429
0
LINE
8
BLACK
6
CONTINUOUS
10
5.45926
20
-1.79429
11
5.46604
21
-1.79067
0
LINE
8
BLACK
6
CONTINUOUS
10
5.46604
20
-1.79067
11
5.47338
21
-1.78844
0
LINE
8
BLACK
6
CONTINUOUS
10
5.47338
20
-1.78844
11
5.47911
21
-1.78787
0
LINE
8
BLACK
6
CONTINUOUS
10
5.47911
20
-1.78787
11
5.56089
21
-1.78787
0
LINE
8
BLACK
6
CONTINUOUS
10
5.56089
20
-1.78787
11
5.56662
21
-1.78844
0
LINE
8
BLACK
6
CONTINUOUS
10
4.60208
20
-1.69442
11
4.61118
21
-1.69819
0
LINE
8
BLACK
6
CONTINUOUS
10
4.61118
20
-1.69819
11
4.61937
21
-1.70366
0
LINE
8
BLACK
6
CONTINUOUS
10
4.61937
20
-1.70366
11
4.62634
21
-1.71063
0
LINE
8
BLACK
6
CONTINUOUS
10
4.62634
20
-1.71063
11
4.63181
21
-1.71882
0
LINE
8
BLACK
6
CONTINUOUS
10
4.63181
20
-1.71882
11
4.63558
21
-1.72792
0
LINE
8
BLACK
6
CONTINUOUS
10
4.63558
20
-1.72792
11
4.6375
21
-1.73758
0
LINE
8
BLACK
6
CONTINUOUS
10
4.6375
20
-1.73758
11
4.6375
21
-1.74742
0
LINE
8
BLACK
6
CONTINUOUS
10
4.6375
20
-1.74742
11
4.63558
21
-1.75708
0
LINE
8
BLACK
6
CONTINUOUS
10
4.63558
20
-1.75708
11
4.63181
21
-1.76618
0
LINE
8
BLACK
6
CONTINUOUS
10
4.63181
20
-1.76618
11
4.62634
21
-1.77437
0
LINE
8
BLACK
6
CONTINUOUS
10
4.62634
20
-1.77437
11
4.61937
21
-1.78134
0
LINE
8
BLACK
6
CONTINUOUS
10
4.61937
20
-1.78134
11
4.61118
21
-1.78681
0
LINE
8
BLACK
6
CONTINUOUS
10
4.61118
20
-1.78681
11
4.60208
21
-1.79058
0
LINE
8
BLACK
6
CONTINUOUS
10
4.60208
20
-1.79058
11
4.59242
21
-1.7925
0
LINE
8
BLACK
6
CONTINUOUS
10
4.59242
20
-1.7925
11
4.58258
21
-1.7925
0
LINE
8
BLACK
6
CONTINUOUS
10
4.58258
20
-1.7925
11
4.57292
21
-1.79058
0
LINE
8
BLACK
6
CONTINUOUS
10
4.57292
20
-1.79058
11
4.56382
21
-1.78681
0
LINE
8
BLACK
6
CONTINUOUS
10
4.56382
20
-1.78681
11
4.55563
21
-1.78134
0
LINE
8
BLACK
6
CONTINUOUS
10
4.55563
20
-1.78134
11
4.54866
21
-1.77437
0
LINE
8
BLACK
6
CONTINUOUS
10
4.54866
20
-1.77437
11
4.54319
21
-1.76618
0
LINE
8
BLACK
6
CONTINUOUS
10
4.54319
20
-1.76618
11
4.53942
21
-1.75708
0
LINE
8
BLACK
6
CONTINUOUS
10
4.53942
20
-1.75708
11
4.5375
21
-1.74742
0
LINE
8
BLACK
6
CONTINUOUS
10
4.5375
20
-1.74742
11
4.5375
21
-1.73758
0
LINE
8
BLACK
6
CONTINUOUS
10
4.5375
20
-1.73758
11
4.53942
21
-1.72792
0
LINE
8
BLACK
6
CONTINUOUS
10
4.53942
20
-1.72792
11
4.54319
21
-1.71882
0
LINE
8
BLACK
6
CONTINUOUS
10
4.54319
20
-1.71882
11
4.54866
21
-1.71063
0
LINE
8
BLACK
6
CONTINUOUS
10
4.54866
20
-1.71063
11
4.55563
21
-1.70366
0
LINE
8
BLACK
6
CONTINUOUS
10
4.55563
20
-1.70366
11
4.56382
21
-1.69819
0
LINE
8
BLACK
6
CONTINUOUS
10
4.56382
20
-1.69819
11
4.57292
21
-1.69442
0
LINE
8
BLACK
6
CONTINUOUS
10
4.57292
20
-1.69442
11
4.58258
21
-1.6925
0
LINE
8
BLACK
6
CONTINUOUS
10
4.58258
20
-1.6925
11
4.59242
21
-1.6925
0
LINE
8
BLACK
6
CONTINUOUS
10
4.59242
20
-1.6925
11
4.60208
21
-1.69442
0
LINE
8
BLACK
6
CONTINUOUS
10
4.06558
20
-1.70607
11
4.06743
21
-1.70664
0
LINE
8
BLACK
6
CONTINUOUS
10
4.06743
20
-1.70664
11
4.06913
21
-1.70754
0
LINE
8
BLACK
6
CONTINUOUS
10
4.06913
20
-1.70754
11
4.07062
21
-1.70877
0
LINE
8
BLACK
6
CONTINUOUS
10
4.07062
20
-1.70877
11
4.07185
21
-1.71026
0
LINE
8
BLACK
6
CONTINUOUS
10
4.07185
20
-1.71026
11
4.07275
21
-1.71196
0
LINE
8
BLACK
6
CONTINUOUS
10
4.07275
20
-1.71196
11
4.07331
21
-1.71381
0
LINE
8
BLACK
6
CONTINUOUS
10
4.07331
20
-1.71381
11
4.0735
21
-1.71573
0
LINE
8
BLACK
6
CONTINUOUS
10
4.0735
20
-1.71573
11
4.0735
21
-1.74427
0
LINE
8
BLACK
6
CONTINUOUS
10
4.0735
20
-1.74427
11
4.07331
21
-1.74619
0
LINE
8
BLACK
6
CONTINUOUS
10
4.07331
20
-1.74619
11
4.07275
21
-1.74804
0
LINE
8
BLACK
6
CONTINUOUS
10
4.07275
20
-1.74804
11
4.07185
21
-1.74974
0
LINE
8
BLACK
6
CONTINUOUS
10
4.07185
20
-1.74974
11
4.07062
21
-1.75123
0
LINE
8
BLACK
6
CONTINUOUS
10
4.07062
20
-1.75123
11
4.06913
21
-1.75246
0
LINE
8
BLACK
6
CONTINUOUS
10
4.06913
20
-1.75246
11
4.06743
21
-1.75336
0
LINE
8
BLACK
6
CONTINUOUS
10
4.06743
20
-1.75336
11
4.06558
21
-1.75393
0
LINE
8
BLACK
6
CONTINUOUS
10
4.06558
20
-1.75393
11
4.06366
21
-1.75411
0
LINE
8
BLACK
6
CONTINUOUS
10
4.06366
20
-1.75411
11
3.89634
21
-1.75411
0
LINE
8
BLACK
6
CONTINUOUS
10
3.89634
20
-1.75411
11
3.89442
21
-1.75393
0
LINE
8
BLACK
6
CONTINUOUS
10
3.89442
20
-1.75393
11
3.89257
21
-1.75336
0
LINE
8
BLACK
6
CONTINUOUS
10
3.89257
20
-1.75336
11
3.89087
21
-1.75246
0
LINE
8
BLACK
6
CONTINUOUS
10
3.89087
20
-1.75246
11
3.88938
21
-1.75123
0
LINE
8
BLACK
6
CONTINUOUS
10
3.88938
20
-1.75123
11
3.88815
21
-1.74974
0
LINE
8
BLACK
6
CONTINUOUS
10
3.88815
20
-1.74974
11
3.88725
21
-1.74804
0
LINE
8
BLACK
6
CONTINUOUS
10
3.88725
20
-1.74804
11
3.88669
21
-1.74619
0
LINE
8
BLACK
6
CONTINUOUS
10
3.88669
20
-1.74619
11
3.8865
21
-1.74427
0
LINE
8
BLACK
6
CONTINUOUS
10
3.8865
20
-1.74427
11
3.8865
21
-1.71573
0
LINE
8
BLACK
6
CONTINUOUS
10
3.8865
20
-1.71573
11
3.88669
21
-1.71381
0
LINE
8
BLACK
6
CONTINUOUS
10
3.88669
20
-1.71381
11
3.88725
21
-1.71196
0
LINE
8
BLACK
6
CONTINUOUS
10
3.88725
20
-1.71196
11
3.88815
21
-1.71026
0
LINE
8
BLACK
6
CONTINUOUS
10
3.88815
20
-1.71026
11
3.88938
21
-1.70877
0
LINE
8
BLACK
6
CONTINUOUS
10
3.88938
20
-1.70877
11
3.89087
21
-1.70754
0
LINE
8
BLACK
6
CONTINUOUS
10
3.89087
20
-1.70754
11
3.89257
21
-1.70664
0
LINE
8
BLACK
6
CONTINUOUS
10
3.89257
20
-1.70664
11
3.89442
21
-1.70607
0
LINE
8
BLACK
6
CONTINUOUS
10
3.89442
20
-1.70607
11
3.89634
21
-1.70589
0
LINE
8
BLACK
6
CONTINUOUS
10
3.89634
20
-1.70589
11
4.06366
21
-1.70589
0
LINE
8
BLACK
6
CONTINUOUS
10
4.06366
20
-1.70589
11
4.06558
21
-1.70607
0
LINE
8
BLACK
6
CONTINUOUS
10
5.59795
20
-1.66898
11
5.44205
21
-1.66898
0
LINE
8
BLACK
6
CONTINUOUS
10
5.44205
20
-1.66898
11
5.44205
21
-1.59102
0
LINE
8
BLACK
6
CONTINUOUS
10
5.44205
20
-1.59102
11
5.59795
21
-1.59102
0
LINE
8
BLACK
6
CONTINUOUS
10
5.59795
20
-1.59102
11
5.59795
21
-1.66898
0
LINE
8
BLACK
6
CONTINUOUS
10
4.06558
20
-1.58304
11
4.06743
21
-1.5836
0
LINE
8
BLACK
6
CONTINUOUS
10
4.06743
20
-1.5836
11
4.06913
21
-1.58451
0
LINE
8
BLACK
6
CONTINUOUS
10
4.06913
20
-1.58451
11
4.07062
21
-1.58574
0
LINE
8
BLACK
6
CONTINUOUS
10
4.07062
20
-1.58574
11
4.07185
21
-1.58723
0
LINE
8
BLACK
6
CONTINUOUS
10
4.07185
20
-1.58723
11
4.07275
21
-1.58893
0
LINE
8
BLACK
6
CONTINUOUS
10
4.07275
20
-1.58893
11
4.07331
21
-1.59078
0
LINE
8
BLACK
6
CONTINUOUS
10
4.07331
20
-1.59078
11
4.0735
21
-1.5927
0
LINE
8
BLACK
6
CONTINUOUS
10
4.0735
20
-1.5927
11
4.0735
21
-1.62124
0
LINE
8
BLACK
6
CONTINUOUS
10
4.0735
20
-1.62124
11
4.07331
21
-1.62316
0
LINE
8
BLACK
6
CONTINUOUS
10
4.07331
20
-1.62316
11
4.07275
21
-1.62501
0
LINE
8
BLACK
6
CONTINUOUS
10
4.07275
20
-1.62501
11
4.07185
21
-1.62671
0
LINE
8
BLACK
6
CONTINUOUS
10
4.07185
20
-1.62671
11
4.07062
21
-1.6282
0
LINE
8
BLACK
6
CONTINUOUS
10
4.07062
20
-1.6282
11
4.06913
21
-1.62942
0
LINE
8
BLACK
6
CONTINUOUS
10
4.06913
20
-1.62942
11
4.06743
21
-1.63033
0
LINE
8
BLACK
6
CONTINUOUS
10
4.06743
20
-1.63033
11
4.06558
21
-1.63089
0
LINE
8
BLACK
6
CONTINUOUS
10
4.06558
20
-1.63089
11
4.06366
21
-1.63108
0
LINE
8
BLACK
6
CONTINUOUS
10
4.06366
20
-1.63108
11
3.89634
21
-1.63108
0
LINE
8
BLACK
6
CONTINUOUS
10
3.89634
20
-1.63108
11
3.89442
21
-1.63089
0
LINE
8
BLACK
6
CONTINUOUS
10
3.89442
20
-1.63089
11
3.89257
21
-1.63033
0
LINE
8
BLACK
6
CONTINUOUS
10
3.89257
20
-1.63033
11
3.89087
21
-1.62942
0
LINE
8
BLACK
6
CONTINUOUS
10
3.89087
20
-1.62942
11
3.88938
21
-1.6282
0
LINE
8
BLACK
6
CONTINUOUS
10
3.88938
20
-1.6282
11
3.88815
21
-1.62671
0
LINE
8
BLACK
6
CONTINUOUS
10
3.88815
20
-1.62671
11
3.88725
21
-1.62501
0
LINE
8
BLACK
6
CONTINUOUS
10
3.88725
20
-1.62501
11
3.88669
21
-1.62316
0
LINE
8
BLACK
6
CONTINUOUS
10
3.88669
20
-1.62316
11
3.8865
21
-1.62124
0
LINE
8
BLACK
6
CONTINUOUS
10
3.8865
20
-1.62124
11
3.8865
21
-1.5927
0
LINE
8
BLACK
6
CONTINUOUS
10
3.8865
20
-1.5927
11
3.88669
21
-1.59078
0
LINE
8
BLACK
6
CONTINUOUS
10
3.88669
20
-1.59078
11
3.88725
21
-1.58893
0
LINE
8
BLACK
6
CONTINUOUS
10
3.88725
20
-1.58893
11
3.88815
21
-1.58723
0
LINE
8
BLACK
6
CONTINUOUS
10
3.88815
20
-1.58723
11
3.88938
21
-1.58574
0
LINE
8
BLACK
6
CONTINUOUS
10
3.88938
20
-1.58574
11
3.89087
21
-1.58451
0
LINE
8
BLACK
6
CONTINUOUS
10
3.89087
20
-1.58451
11
3.89257
21
-1.5836
0
LINE
8
BLACK
6
CONTINUOUS
10
3.89257
20
-1.5836
11
3.89442
21
-1.58304
0
LINE
8
BLACK
6
CONTINUOUS
10
3.89442
20
-1.58304
11
3.89634
21
-1.58285
0
LINE
8
BLACK
6
CONTINUOUS
10
3.89634
20
-1.58285
11
4.06366
21
-1.58285
0
LINE
8
BLACK
6
CONTINUOUS
10
4.06366
20
-1.58285
11
4.06558
21
-1.58304
0
LINE
8
BLACK
6
CONTINUOUS
10
4.37543
20
-1.62795
11
4.30457
21
-1.62795
0
LINE
8
BLACK
6
CONTINUOUS
10
4.30457
20
-1.62795
11
4.30457
21
-1.52953
0
LINE
8
BLACK
6
CONTINUOUS
10
4.30457
20
-1.52953
11
4.37543
21
-1.52953
0
LINE
8
BLACK
6
CONTINUOUS
10
4.37543
20
-1.52953
11
4.37543
21
-1.62795
0
LINE
8
BLACK
6
CONTINUOUS
10
4.19062
20
-1.58791
11
4.19247
21
-1.58847
0
LINE
8
BLACK
6
CONTINUOUS
10
4.19247
20
-1.58847
11
4.19417
21
-1.58938
0
LINE
8
BLACK
6
CONTINUOUS
10
4.19417
20
-1.58938
11
4.19566
21
-1.5906
0
LINE
8
BLACK
6
CONTINUOUS
10
4.19566
20
-1.5906
11
4.19688
21
-1.59209
0
LINE
8
BLACK
6
CONTINUOUS
10
4.19688
20
-1.59209
11
4.19779
21
-1.59379
0
LINE
8
BLACK
6
CONTINUOUS
10
4.19779
20
-1.59379
11
4.19835
21
-1.59564
0
LINE
8
BLACK
6
CONTINUOUS
10
4.19835
20
-1.59564
11
4.19854
21
-1.59756
0
LINE
8
BLACK
6
CONTINUOUS
10
4.19854
20
-1.59756
11
4.19854
21
-1.61724
0
LINE
8
BLACK
6
CONTINUOUS
10
4.19854
20
-1.61724
11
4.19835
21
-1.61916
0
LINE
8
BLACK
6
CONTINUOUS
10
4.19835
20
-1.61916
11
4.19779
21
-1.62101
0
LINE
8
BLACK
6
CONTINUOUS
10
4.19779
20
-1.62101
11
4.19688
21
-1.62271
0
LINE
8
BLACK
6
CONTINUOUS
10
4.19688
20
-1.62271
11
4.19566
21
-1.6242
0
LINE
8
BLACK
6
CONTINUOUS
10
4.19566
20
-1.6242
11
4.19417
21
-1.62543
0
LINE
8
BLACK
6
CONTINUOUS
10
4.19417
20
-1.62543
11
4.19247
21
-1.62634
0
LINE
8
BLACK
6
CONTINUOUS
10
4.19247
20
-1.62634
11
4.19062
21
-1.6269
0
LINE
8
BLACK
6
CONTINUOUS
10
4.19062
20
-1.6269
11
4.1887
21
-1.62709
0
LINE
8
BLACK
6
CONTINUOUS
10
4.1887
20
-1.62709
11
4.1513
21
-1.62709
0
LINE
8
BLACK
6
CONTINUOUS
10
4.1513
20
-1.62709
11
4.14938
21
-1.6269
0
LINE
8
BLACK
6
CONTINUOUS
10
4.14938
20
-1.6269
11
4.14753
21
-1.62634
0
LINE
8
BLACK
6
CONTINUOUS
10
4.14753
20
-1.62634
11
4.14583
21
-1.62543
0
LINE
8
BLACK
6
CONTINUOUS
10
4.14583
20
-1.62543
11
4.14434
21
-1.6242
0
LINE
8
BLACK
6
CONTINUOUS
10
4.14434
20
-1.6242
11
4.14312
21
-1.62271
0
LINE
8
BLACK
6
CONTINUOUS
10
4.14312
20
-1.62271
11
4.14221
21
-1.62101
0
LINE
8
BLACK
6
CONTINUOUS
10
4.14221
20
-1.62101
11
4.14165
21
-1.61916
0
LINE
8
BLACK
6
CONTINUOUS
10
4.14165
20
-1.61916
11
4.14146
21
-1.61724
0
LINE
8
BLACK
6
CONTINUOUS
10
4.14146
20
-1.61724
11
4.14146
21
-1.59756
0
LINE
8
BLACK
6
CONTINUOUS
10
4.14146
20
-1.59756
11
4.14165
21
-1.59564
0
LINE
8
BLACK
6
CONTINUOUS
10
4.14165
20
-1.59564
11
4.14221
21
-1.59379
0
LINE
8
BLACK
6
CONTINUOUS
10
4.14221
20
-1.59379
11
4.14312
21
-1.59209
0
LINE
8
BLACK
6
CONTINUOUS
10
4.14312
20
-1.59209
11
4.14434
21
-1.5906
0
LINE
8
BLACK
6
CONTINUOUS
10
4.14434
20
-1.5906
11
4.14583
21
-1.58938
0
LINE
8
BLACK
6
CONTINUOUS
10
4.14583
20
-1.58938
11
4.14753
21
-1.58847
0
LINE
8
BLACK
6
CONTINUOUS
10
4.14753
20
-1.58847
11
4.14938
21
-1.58791
0
LINE
8
BLACK
6
CONTINUOUS
10
4.14938
20
-1.58791
11
4.1513
21
-1.58772
0
LINE
8
BLACK
6
CONTINUOUS
10
4.1513
20
-1.58772
11
4.1887
21
-1.58772
0
LINE
8
BLACK
6
CONTINUOUS
10
4.1887
20
-1.58772
11
4.19062
21
-1.58791
0
LINE
8
BLACK
6
CONTINUOUS
10
3.28662
20
-1.54844
11
3.29396
21
-1.55067
0
LINE
8
BLACK
6
CONTINUOUS
10
3.29396
20
-1.55067
11
3.30074
21
-1.55429
0
LINE
8
BLACK
6
CONTINUOUS
10
3.30074
20
-1.55429
11
3.30667
21
-1.55916
0
LINE
8
BLACK
6
CONTINUOUS
10
3.30667
20
-1.55916
11
3.31154
21
-1.56509
0
LINE
8
BLACK
6
CONTINUOUS
10
3.31154
20
-1.56509
11
3.31516
21
-1.57186
0
LINE
8
BLACK
6
CONTINUOUS
10
3.31516
20
-1.57186
11
3.31739
21
-1.57921
0
LINE
8
BLACK
6
CONTINUOUS
10
3.31739
20
-1.57921
11
3.31814
21
-1.58685
0
LINE
8
BLACK
6
CONTINUOUS
10
3.31814
20
-1.58685
11
3.31739
21
-1.59449
0
LINE
8
BLACK
6
CONTINUOUS
10
3.31739
20
-1.59449
11
3.31516
21
-1.60184
0
LINE
8
BLACK
6
CONTINUOUS
10
3.31516
20
-1.60184
11
3.31154
21
-1.60861
0
LINE
8
BLACK
6
CONTINUOUS
10
3.31154
20
-1.60861
11
3.30667
21
-1.61454
0
LINE
8
BLACK
6
CONTINUOUS
10
3.30667
20
-1.61454
11
3.30074
21
-1.61941
0
LINE
8
BLACK
6
CONTINUOUS
10
3.30074
20
-1.61941
11
3.29396
21
-1.62303
0
LINE
8
BLACK
6
CONTINUOUS
10
3.29396
20
-1.62303
11
3.28662
21
-1.62526
0
LINE
8
BLACK
6
CONTINUOUS
10
3.28662
20
-1.62526
11
3.28089
21
-1.62583
0
LINE
8
BLACK
6
CONTINUOUS
10
3.28089
20
-1.62583
11
3.19911
21
-1.62583
0
LINE
8
BLACK
6
CONTINUOUS
10
3.19911
20
-1.62583
11
3.19338
21
-1.62526
0
LINE
8
BLACK
6
CONTINUOUS
10
3.19338
20
-1.62526
11
3.18604
21
-1.62303
0
LINE
8
BLACK
6
CONTINUOUS
10
3.18604
20
-1.62303
11
3.17926
21
-1.61941
0
LINE
8
BLACK
6
CONTINUOUS
10
3.17926
20
-1.61941
11
3.17333
21
-1.61454
0
LINE
8
BLACK
6
CONTINUOUS
10
3.17333
20
-1.61454
11
3.16846
21
-1.60861
0
LINE
8
BLACK
6
CONTINUOUS
10
3.16846
20
-1.60861
11
3.16484
21
-1.60184
0
LINE
8
BLACK
6
CONTINUOUS
10
3.16484
20
-1.60184
11
3.16261
21
-1.59449
0
LINE
8
BLACK
6
CONTINUOUS
10
3.16261
20
-1.59449
11
3.16186
21
-1.58685
0
LINE
8
BLACK
6
CONTINUOUS
10
3.16186
20
-1.58685
11
3.16261
21
-1.57921
0
LINE
8
BLACK
6
CONTINUOUS
10
3.16261
20
-1.57921
11
3.16484
21
-1.57186
0
LINE
8
BLACK
6
CONTINUOUS
10
3.16484
20
-1.57186
11
3.16846
21
-1.56509
0
LINE
8
BLACK
6
CONTINUOUS
10
3.16846
20
-1.56509
11
3.17333
21
-1.55916
0
LINE
8
BLACK
6
CONTINUOUS
10
3.17333
20
-1.55916
11
3.17926
21
-1.55429
0
LINE
8
BLACK
6
CONTINUOUS
10
3.17926
20
-1.55429
11
3.18604
21
-1.55067
0
LINE
8
BLACK
6
CONTINUOUS
10
3.18604
20
-1.55067
11
3.19338
21
-1.54844
0
LINE
8
BLACK
6
CONTINUOUS
10
3.19338
20
-1.54844
11
3.19911
21
-1.54787
0
LINE
8
BLACK
6
CONTINUOUS
10
3.19911
20
-1.54787
11
3.28089
21
-1.54787
0
LINE
8
BLACK
6
CONTINUOUS
10
3.28089
20
-1.54787
11
3.28662
21
-1.54844
0
LINE
8
BLACK
6
CONTINUOUS
10
4.60208
20
-1.47442
11
4.61118
21
-1.47819
0
LINE
8
BLACK
6
CONTINUOUS
10
4.61118
20
-1.47819
11
4.61937
21
-1.48366
0
LINE
8
BLACK
6
CONTINUOUS
10
4.61937
20
-1.48366
11
4.62634
21
-1.49063
0
LINE
8
BLACK
6
CONTINUOUS
10
4.62634
20
-1.49063
11
4.63181
21
-1.49882
0
LINE
8
BLACK
6
CONTINUOUS
10
4.63181
20
-1.49882
11
4.63558
21
-1.50792
0
LINE
8
BLACK
6
CONTINUOUS
10
4.63558
20
-1.50792
11
4.6375
21
-1.51758
0
LINE
8
BLACK
6
CONTINUOUS
10
4.6375
20
-1.51758
11
4.6375
21
-1.52742
0
LINE
8
BLACK
6
CONTINUOUS
10
4.6375
20
-1.52742
11
4.63558
21
-1.53708
0
LINE
8
BLACK
6
CONTINUOUS
10
4.63558
20
-1.53708
11
4.63181
21
-1.54618
0
LINE
8
BLACK
6
CONTINUOUS
10
4.63181
20
-1.54618
11
4.62634
21
-1.55437
0
LINE
8
BLACK
6
CONTINUOUS
10
4.62634
20
-1.55437
11
4.61937
21
-1.56134
0
LINE
8
BLACK
6
CONTINUOUS
10
4.61937
20
-1.56134
11
4.61118
21
-1.56681
0
LINE
8
BLACK
6
CONTINUOUS
10
4.61118
20
-1.56681
11
4.60208
21
-1.57058
0
LINE
8
BLACK
6
CONTINUOUS
10
4.60208
20
-1.57058
11
4.59242
21
-1.5725
0
LINE
8
BLACK
6
CONTINUOUS
10
4.59242
20
-1.5725
11
4.58258
21
-1.5725
0
LINE
8
BLACK
6
CONTINUOUS
10
4.58258
20
-1.5725
11
4.57292
21
-1.57058
0
LINE
8
BLACK
6
CONTINUOUS
10
4.57292
20
-1.57058
11
4.56382
21
-1.56681
0
LINE
8
BLACK
6
CONTINUOUS
10
4.56382
20
-1.56681
11
4.55563
21
-1.56134
0
LINE
8
BLACK
6
CONTINUOUS
10
4.55563
20
-1.56134
11
4.54866
21
-1.55437
0
LINE
8
BLACK
6
CONTINUOUS
10
4.54866
20
-1.55437
11
4.54319
21
-1.54618
0
LINE
8
BLACK
6
CONTINUOUS
10
4.54319
20
-1.54618
11
4.53942
21
-1.53708
0
LINE
8
BLACK
6
CONTINUOUS
10
4.53942
20
-1.53708
11
4.5375
21
-1.52742
0
LINE
8
BLACK
6
CONTINUOUS
10
4.5375
20
-1.52742
11
4.5375
21
-1.51758
0
LINE
8
BLACK
6
CONTINUOUS
10
4.5375
20
-1.51758
11
4.53942
21
-1.50792
0
LINE
8
BLACK
6
CONTINUOUS
10
4.53942
20
-1.50792
11
4.54319
21
-1.49882
0
LINE
8
BLACK
6
CONTINUOUS
10
4.54319
20
-1.49882
11
4.54866
21
-1.49063
0
LINE
8
BLACK
6
CONTINUOUS
10
4.54866
20
-1.49063
11
4.55563
21
-1.48366
0
LINE
8
BLACK
6
CONTINUOUS
10
4.55563
20
-1.48366
11
4.56382
21
-1.47819
0
LINE
8
BLACK
6
CONTINUOUS
10
4.56382
20
-1.47819
11
4.57292
21
-1.47442
0
LINE
8
BLACK
6
CONTINUOUS
10
4.57292
20
-1.47442
11
4.58258
21
-1.4725
0
LINE
8
BLACK
6
CONTINUOUS
10
4.58258
20
-1.4725
11
4.59242
21
-1.4725
0
LINE
8
BLACK
6
CONTINUOUS
10
4.59242
20
-1.4725
11
4.60208
21
-1.47442
0
LINE
8
BLACK
6
CONTINUOUS
10
4.19062
20
-1.5131
11
4.19247
21
-1.51366
0
LINE
8
BLACK
6
CONTINUOUS
10
4.19247
20
-1.51366
11
4.19417
21
-1.51457
0
LINE
8
BLACK
6
CONTINUOUS
10
4.19417
20
-1.51457
11
4.19566
21
-1.5158
0
LINE
8
BLACK
6
CONTINUOUS
10
4.19566
20
-1.5158
11
4.19688
21
-1.51729
0
LINE
8
BLACK
6
CONTINUOUS
10
4.19688
20
-1.51729
11
4.19779
21
-1.51899
0
LINE
8
BLACK
6
CONTINUOUS
10
4.19779
20
-1.51899
11
4.19835
21
-1.52084
0
LINE
8
BLACK
6
CONTINUOUS
10
4.19835
20
-1.52084
11
4.19854
21
-1.52276
0
LINE
8
BLACK
6
CONTINUOUS
10
4.19854
20
-1.52276
11
4.19854
21
-1.54244
0
LINE
8
BLACK
6
CONTINUOUS
10
4.19854
20
-1.54244
11
4.19835
21
-1.54436
0
LINE
8
BLACK
6
CONTINUOUS
10
4.19835
20
-1.54436
11
4.19779
21
-1.54621
0
LINE
8
BLACK
6
CONTINUOUS
10
4.19779
20
-1.54621
11
4.19688
21
-1.54791
0
LINE
8
BLACK
6
CONTINUOUS
10
4.19688
20
-1.54791
11
4.19566
21
-1.5494
0
LINE
8
BLACK
6
CONTINUOUS
10
4.19566
20
-1.5494
11
4.19417
21
-1.55062
0
LINE
8
BLACK
6
CONTINUOUS
10
4.19417
20
-1.55062
11
4.19247
21
-1.55153
0
LINE
8
BLACK
6
CONTINUOUS
10
4.19247
20
-1.55153
11
4.19062
21
-1.55209
0
LINE
8
BLACK
6
CONTINUOUS
10
4.19062
20
-1.55209
11
4.1887
21
-1.55228
0
LINE
8
BLACK
6
CONTINUOUS
10
4.1887
20
-1.55228
11
4.1513
21
-1.55228
0
LINE
8
BLACK
6
CONTINUOUS
10
4.1513
20
-1.55228
11
4.14938
21
-1.55209
0
LINE
8
BLACK
6
CONTINUOUS
10
4.14938
20
-1.55209
11
4.14753
21
-1.55153
0
LINE
8
BLACK
6
CONTINUOUS
10
4.14753
20
-1.55153
11
4.14583
21
-1.55062
0
LINE
8
BLACK
6
CONTINUOUS
10
4.14583
20
-1.55062
11
4.14434
21
-1.5494
0
LINE
8
BLACK
6
CONTINUOUS
10
4.14434
20
-1.5494
11
4.14312
21
-1.54791
0
LINE
8
BLACK
6
CONTINUOUS
10
4.14312
20
-1.54791
11
4.14221
21
-1.54621
0
LINE
8
BLACK
6
CONTINUOUS
10
4.14221
20
-1.54621
11
4.14165
21
-1.54436
0
LINE
8
BLACK
6
CONTINUOUS
10
4.14165
20
-1.54436
11
4.14146
21
-1.54244
0
LINE
8
BLACK
6
CONTINUOUS
10
4.14146
20
-1.54244
11
4.14146
21
-1.52276
0
LINE
8
BLACK
6
CONTINUOUS
10
4.14146
20
-1.52276
11
4.14165
21
-1.52084
0
LINE
8
BLACK
6
CONTINUOUS
10
4.14165
20
-1.52084
11
4.14221
21
-1.51899
0
LINE
8
BLACK
6
CONTINUOUS
10
4.14221
20
-1.51899
11
4.14312
21
-1.51729
0
LINE
8
BLACK
6
CONTINUOUS
10
4.14312
20
-1.51729
11
4.14434
21
-1.5158
0
LINE
8
BLACK
6
CONTINUOUS
10
4.14434
20
-1.5158
11
4.14583
21
-1.51457
0
LINE
8
BLACK
6
CONTINUOUS
10
4.14583
20
-1.51457
11
4.14753
21
-1.51366
0
LINE
8
BLACK
6
CONTINUOUS
10
4.14753
20
-1.51366
11
4.14938
21
-1.5131
0
LINE
8
BLACK
6
CONTINUOUS
10
4.14938
20
-1.5131
11
4.1513
21
-1.51291
0
LINE
8
BLACK
6
CONTINUOUS
10
4.1513
20
-1.51291
11
4.1887
21
-1.51291
0
LINE
8
BLACK
6
CONTINUOUS
10
4.1887
20
-1.51291
11
4.19062
21
-1.5131
0
LINE
8
BLACK
6
CONTINUOUS
10
5.71101
20
-1.28779
11
5.73035
21
-1.2958
0
LINE
8
BLACK
6
CONTINUOUS
10
5.73035
20
-1.2958
11
5.74776
21
-1.30743
0
LINE
8
BLACK
6
CONTINUOUS
10
5.74776
20
-1.30743
11
5.76257
21
-1.32224
0
LINE
8
BLACK
6
CONTINUOUS
10
5.76257
20
-1.32224
11
5.7742
21
-1.33965
0
LINE
8
BLACK
6
CONTINUOUS
10
5.7742
20
-1.33965
11
5.78221
21
-1.35899
0
LINE
8
BLACK
6
CONTINUOUS
10
5.78221
20
-1.35899
11
5.7863
21
-1.37953
0
LINE
8
BLACK
6
CONTINUOUS
10
5.7863
20
-1.37953
11
5.7863
21
-1.40047
0
LINE
8
BLACK
6
CONTINUOUS
10
5.7863
20
-1.40047
11
5.78221
21
-1.42101
0
LINE
8
BLACK
6
CONTINUOUS
10
5.78221
20
-1.42101
11
5.7742
21
-1.44035
0
LINE
8
BLACK
6
CONTINUOUS
10
5.7742
20
-1.44035
11
5.76257
21
-1.45776
0
LINE
8
BLACK
6
CONTINUOUS
10
5.76257
20
-1.45776
11
5.74776
21
-1.47257
0
LINE
8
BLACK
6
CONTINUOUS
10
5.74776
20
-1.47257
11
5.73035
21
-1.4842
0
LINE
8
BLACK
6
CONTINUOUS
10
5.73035
20
-1.4842
11
5.71101
21
-1.49221
0
LINE
8
BLACK
6
CONTINUOUS
10
5.71101
20
-1.49221
11
5.69047
21
-1.4963
0
LINE
8
BLACK
6
CONTINUOUS
10
5.69047
20
-1.4963
11
5.66953
21
-1.4963
0
LINE
8
BLACK
6
CONTINUOUS
10
5.66953
20
-1.4963
11
5.64899
21
-1.49221
0
LINE
8
BLACK
6
CONTINUOUS
10
5.64899
20
-1.49221
11
5.62965
21
-1.4842
0
LINE
8
BLACK
6
CONTINUOUS
10
5.62965
20
-1.4842
11
5.61224
21
-1.47257
0
LINE
8
BLACK
6
CONTINUOUS
10
5.61224
20
-1.47257
11
5.59743
21
-1.45776
0
LINE
8
BLACK
6
CONTINUOUS
10
5.59743
20
-1.45776
11
5.5858
21
-1.44035
0
LINE
8
BLACK
6
CONTINUOUS
10
5.5858
20
-1.44035
11
5.57779
21
-1.42101
0
LINE
8
BLACK
6
CONTINUOUS
10
5.57779
20
-1.42101
11
5.5737
21
-1.40047
0
LINE
8
BLACK
6
CONTINUOUS
10
5.5737
20
-1.40047
11
5.5737
21
-1.37953
0
LINE
8
BLACK
6
CONTINUOUS
10
5.5737
20
-1.37953
11
5.57779
21
-1.35899
0
LINE
8
BLACK
6
CONTINUOUS
10
5.57779
20
-1.35899
11
5.5858
21
-1.33965
0
LINE
8
BLACK
6
CONTINUOUS
10
5.5858
20
-1.33965
11
5.59743
21
-1.32224
0
LINE
8
BLACK
6
CONTINUOUS
10
5.59743
20
-1.32224
11
5.61224
21
-1.30743
0
LINE
8
BLACK
6
CONTINUOUS
10
5.61224
20
-1.30743
11
5.62965
21
-1.2958
0
LINE
8
BLACK
6
CONTINUOUS
10
5.62965
20
-1.2958
11
5.64899
21
-1.28779
0
LINE
8
BLACK
6
CONTINUOUS
10
5.64899
20
-1.28779
11
5.66953
21
-1.2837
0
LINE
8
BLACK
6
CONTINUOUS
10
5.66953
20
-1.2837
11
5.69047
21
-1.2837
0
LINE
8
BLACK
6
CONTINUOUS
10
5.69047
20
-1.2837
11
5.71101
21
-1.28779
0
LINE
8
BLACK
6
CONTINUOUS
10
4.18964
20
-1.44186
11
4.19148
21
-1.44242
0
LINE
8
BLACK
6
CONTINUOUS
10
4.19148
20
-1.44242
11
4.19318
21
-1.44333
0
LINE
8
BLACK
6
CONTINUOUS
10
4.19318
20
-1.44333
11
4.19468
21
-1.44456
0
LINE
8
BLACK
6
CONTINUOUS
10
4.19468
20
-1.44456
11
4.1959
21
-1.44605
0
LINE
8
BLACK
6
CONTINUOUS
10
4.1959
20
-1.44605
11
4.19681
21
-1.44775
0
LINE
8
BLACK
6
CONTINUOUS
10
4.19681
20
-1.44775
11
4.19737
21
-1.4496
0
LINE
8
BLACK
6
CONTINUOUS
10
4.19737
20
-1.4496
11
4.19756
21
-1.45152
0
LINE
8
BLACK
6
CONTINUOUS
10
4.19756
20
-1.45152
11
4.19756
21
-1.47219
0
LINE
8
BLACK
6
CONTINUOUS
10
4.19756
20
-1.47219
11
4.19737
21
-1.47411
0
LINE
8
BLACK
6
CONTINUOUS
10
4.19737
20
-1.47411
11
4.19681
21
-1.47595
0
LINE
8
BLACK
6
CONTINUOUS
10
4.19681
20
-1.47595
11
4.1959
21
-1.47765
0
LINE
8
BLACK
6
CONTINUOUS
10
4.1959
20
-1.47765
11
4.19468
21
-1.47914
0
LINE
8
BLACK
6
CONTINUOUS
10
4.19468
20
-1.47914
11
4.19318
21
-1.48037
0
LINE
8
BLACK
6
CONTINUOUS
10
4.19318
20
-1.48037
11
4.19148
21
-1.48128
0
LINE
8
BLACK
6
CONTINUOUS
10
4.19148
20
-1.48128
11
4.18964
21
-1.48184
0
LINE
8
BLACK
6
CONTINUOUS
10
4.18964
20
-1.48184
11
4.18772
21
-1.48203
0
LINE
8
BLACK
6
CONTINUOUS
10
4.18772
20
-1.48203
11
4.15228
21
-1.48203
0
LINE
8
BLACK
6
CONTINUOUS
10
4.15228
20
-1.48203
11
4.15036
21
-1.48184
0
LINE
8
BLACK
6
CONTINUOUS
10
4.15036
20
-1.48184
11
4.14852
21
-1.48128
0
LINE
8
BLACK
6
CONTINUOUS
10
4.14852
20
-1.48128
11
4.14682
21
-1.48037
0
LINE
8
BLACK
6
CONTINUOUS
10
4.14682
20
-1.48037
11
4.14532
21
-1.47914
0
LINE
8
BLACK
6
CONTINUOUS
10
4.14532
20
-1.47914
11
4.1441
21
-1.47765
0
LINE
8
BLACK
6
CONTINUOUS
10
4.1441
20
-1.47765
11
4.14319
21
-1.47595
0
LINE
8
BLACK
6
CONTINUOUS
10
4.14319
20
-1.47595
11
4.14263
21
-1.47411
0
LINE
8
BLACK
6
CONTINUOUS
10
4.14263
20
-1.47411
11
4.14244
21
-1.47219
0
LINE
8
BLACK
6
CONTINUOUS
10
4.14244
20
-1.47219
11
4.14244
21
-1.45152
0
LINE
8
BLACK
6
CONTINUOUS
10
4.14244
20
-1.45152
11
4.14263
21
-1.4496
0
LINE
8
BLACK
6
CONTINUOUS
10
4.14263
20
-1.4496
11
4.14319
21
-1.44775
0
LINE
8
BLACK
6
CONTINUOUS
10
4.14319
20
-1.44775
11
4.1441
21
-1.44605
0
LINE
8
BLACK
6
CONTINUOUS
10
4.1441
20
-1.44605
11
4.14532
21
-1.44456
0
LINE
8
BLACK
6
CONTINUOUS
10
4.14532
20
-1.44456
11
4.14682
21
-1.44333
0
LINE
8
BLACK
6
CONTINUOUS
10
4.14682
20
-1.44333
11
4.14852
21
-1.44242
0
LINE
8
BLACK
6
CONTINUOUS
10
4.14852
20
-1.44242
11
4.15036
21
-1.44186
0
LINE
8
BLACK
6
CONTINUOUS
10
4.15036
20
-1.44186
11
4.15228
21
-1.44167
0
LINE
8
BLACK
6
CONTINUOUS
10
4.15228
20
-1.44167
11
4.18772
21
-1.44167
0
LINE
8
BLACK
6
CONTINUOUS
10
4.18772
20
-1.44167
11
4.18964
21
-1.44186
0
LINE
8
BLACK
6
CONTINUOUS
10
4.37543
20
-1.47047
11
4.30457
21
-1.47047
0
LINE
8
BLACK
6
CONTINUOUS
10
4.30457
20
-1.47047
11
4.30457
21
-1.37205
0
LINE
8
BLACK
6
CONTINUOUS
10
4.30457
20
-1.37205
11
4.37543
21
-1.37205
0
LINE
8
BLACK
6
CONTINUOUS
10
4.37543
20
-1.37205
11
4.37543
21
-1.47047
0
LINE
8
BLACK
6
CONTINUOUS
10
5.10208
20
-1.33442
11
5.11118
21
-1.33819
0
LINE
8
BLACK
6
CONTINUOUS
10
5.11118
20
-1.33819
11
5.11937
21
-1.34366
0
LINE
8
BLACK
6
CONTINUOUS
10
5.11937
20
-1.34366
11
5.12634
21
-1.35063
0
LINE
8
BLACK
6
CONTINUOUS
10
5.12634
20
-1.35063
11
5.13181
21
-1.35882
0
LINE
8
BLACK
6
CONTINUOUS
10
5.13181
20
-1.35882
11
5.13558
21
-1.36792
0
LINE
8
BLACK
6
CONTINUOUS
10
5.13558
20
-1.36792
11
5.1375
21
-1.37758
0
LINE
8
BLACK
6
CONTINUOUS
10
5.1375
20
-1.37758
11
5.1375
21
-1.38742
0
LINE
8
BLACK
6
CONTINUOUS
10
5.1375
20
-1.38742
11
5.13558
21
-1.39708
0
LINE
8
BLACK
6
CONTINUOUS
10
5.13558
20
-1.39708
11
5.13181
21
-1.40618
0
LINE
8
BLACK
6
CONTINUOUS
10
5.13181
20
-1.40618
11
5.12634
21
-1.41437
0
LINE
8
BLACK
6
CONTINUOUS
10
5.12634
20
-1.41437
11
5.11937
21
-1.42134
0
LINE
8
BLACK
6
CONTINUOUS
10
5.11937
20
-1.42134
11
5.11118
21
-1.42681
0
LINE
8
BLACK
6
CONTINUOUS
10
5.11118
20
-1.42681
11
5.10208
21
-1.43058
0
LINE
8
BLACK
6
CONTINUOUS
10
5.10208
20
-1.43058
11
5.09242
21
-1.4325
0
LINE
8
BLACK
6
CONTINUOUS
10
5.09242
20
-1.4325
11
5.08258
21
-1.4325
0
LINE
8
BLACK
6
CONTINUOUS
10
5.08258
20
-1.4325
11
5.07292
21
-1.43058
0
LINE
8
BLACK
6
CONTINUOUS
10
5.07292
20
-1.43058
11
5.06382
21
-1.42681
0
LINE
8
BLACK
6
CONTINUOUS
10
5.06382
20
-1.42681
11
5.05563
21
-1.42134
0
LINE
8
BLACK
6
CONTINUOUS
10
5.05563
20
-1.42134
11
5.04866
21
-1.41437
0
LINE
8
BLACK
6
CONTINUOUS
10
5.04866
20
-1.41437
11
5.04319
21
-1.40618
0
LINE
8
BLACK
6
CONTINUOUS
10
5.04319
20
-1.40618
11
5.03942
21
-1.39708
0
LINE
8
BLACK
6
CONTINUOUS
10
5.03942
20
-1.39708
11
5.0375
21
-1.38742
0
LINE
8
BLACK
6
CONTINUOUS
10
5.0375
20
-1.38742
11
5.0375
21
-1.37758
0
LINE
8
BLACK
6
CONTINUOUS
10
5.0375
20
-1.37758
11
5.03942
21
-1.36792
0
LINE
8
BLACK
6
CONTINUOUS
10
5.03942
20
-1.36792
11
5.04319
21
-1.35882
0
LINE
8
BLACK
6
CONTINUOUS
10
5.04319
20
-1.35882
11
5.04866
21
-1.35063
0
LINE
8
BLACK
6
CONTINUOUS
10
5.04866
20
-1.35063
11
5.05563
21
-1.34366
0
LINE
8
BLACK
6
CONTINUOUS
10
5.05563
20
-1.34366
11
5.06382
21
-1.33819
0
LINE
8
BLACK
6
CONTINUOUS
10
5.06382
20
-1.33819
11
5.07292
21
-1.33442
0
LINE
8
BLACK
6
CONTINUOUS
10
5.07292
20
-1.33442
11
5.08258
21
-1.3325
0
LINE
8
BLACK
6
CONTINUOUS
10
5.08258
20
-1.3325
11
5.09242
21
-1.3325
0
LINE
8
BLACK
6
CONTINUOUS
10
5.09242
20
-1.3325
11
5.10208
21
-1.33442
0
LINE
8
BLACK
6
CONTINUOUS
10
3.31795
20
-1.42898
11
3.16205
21
-1.42898
0
LINE
8
BLACK
6
CONTINUOUS
10
3.16205
20
-1.42898
11
3.16205
21
-1.35102
0
LINE
8
BLACK
6
CONTINUOUS
10
3.16205
20
-1.35102
11
3.31795
21
-1.35102
0
LINE
8
BLACK
6
CONTINUOUS
10
3.31795
20
-1.35102
11
3.31795
21
-1.42898
0
LINE
8
BLACK
6
CONTINUOUS
10
4.18964
20
-1.37001
11
4.19148
21
-1.37057
0
LINE
8
BLACK
6
CONTINUOUS
10
4.19148
20
-1.37057
11
4.19318
21
-1.37148
0
LINE
8
BLACK
6
CONTINUOUS
10
4.19318
20
-1.37148
11
4.19468
21
-1.37271
0
LINE
8
BLACK
6
CONTINUOUS
10
4.19468
20
-1.37271
11
4.1959
21
-1.3742
0
LINE
8
BLACK
6
CONTINUOUS
10
4.1959
20
-1.3742
11
4.19681
21
-1.3759
0
LINE
8
BLACK
6
CONTINUOUS
10
4.19681
20
-1.3759
11
4.19737
21
-1.37775
0
LINE
8
BLACK
6
CONTINUOUS
10
4.19737
20
-1.37775
11
4.19756
21
-1.37967
0
LINE
8
BLACK
6
CONTINUOUS
10
4.19756
20
-1.37967
11
4.19756
21
-1.40033
0
LINE
8
BLACK
6
CONTINUOUS
10
4.19756
20
-1.40033
11
4.19737
21
-1.40225
0
LINE
8
BLACK
6
CONTINUOUS
10
4.19737
20
-1.40225
11
4.19681
21
-1.4041
0
LINE
8
BLACK
6
CONTINUOUS
10
4.19681
20
-1.4041
11
4.1959
21
-1.4058
0
LINE
8
BLACK
6
CONTINUOUS
10
4.1959
20
-1.4058
11
4.19468
21
-1.40729
0
LINE
8
BLACK
6
CONTINUOUS
10
4.19468
20
-1.40729
11
4.19318
21
-1.40852
0
LINE
8
BLACK
6
CONTINUOUS
10
4.19318
20
-1.40852
11
4.19148
21
-1.40943
0
LINE
8
BLACK
6
CONTINUOUS
10
4.19148
20
-1.40943
11
4.18964
21
-1.40999
0
LINE
8
BLACK
6
CONTINUOUS
10
4.18964
20
-1.40999
11
4.18772
21
-1.41018
0
LINE
8
BLACK
6
CONTINUOUS
10
4.18772
20
-1.41018
11
4.15228
21
-1.41018
0
LINE
8
BLACK
6
CONTINUOUS
10
4.15228
20
-1.41018
11
4.15036
21
-1.40999
0
LINE
8
BLACK
6
CONTINUOUS
10
4.15036
20
-1.40999
11
4.14852
21
-1.40943
0
LINE
8
BLACK
6
CONTINUOUS
10
4.14852
20
-1.40943
11
4.14682
21
-1.40852
0
LINE
8
BLACK
6
CONTINUOUS
10
4.14682
20
-1.40852
11
4.14532
21
-1.40729
0
LINE
8
BLACK
6
CONTINUOUS
10
4.14532
20
-1.40729
11
4.1441
21
-1.4058
0
LINE
8
BLACK
6
CONTINUOUS
10
4.1441
20
-1.4058
11
4.14319
21
-1.4041
0
LINE
8
BLACK
6
CONTINUOUS
10
4.14319
20
-1.4041
11
4.14263
21
-1.40225
0
LINE
8
BLACK
6
CONTINUOUS
10
4.14263
20
-1.40225
11
4.14244
21
-1.40033
0
LINE
8
BLACK
6
CONTINUOUS
10
4.14244
20
-1.40033
11
4.14244
21
-1.37967
0
LINE
8
BLACK
6
CONTINUOUS
10
4.14244
20
-1.37967
11
4.14263
21
-1.37775
0
LINE
8
BLACK
6
CONTINUOUS
10
4.14263
20
-1.37775
11
4.14319
21
-1.3759
0
LINE
8
BLACK
6
CONTINUOUS
10
4.14319
20
-1.3759
11
4.1441
21
-1.3742
0
LINE
8
BLACK
6
CONTINUOUS
10
4.1441
20
-1.3742
11
4.14532
21
-1.37271
0
LINE
8
BLACK
6
CONTINUOUS
10
4.14532
20
-1.37271
11
4.14682
21
-1.37148
0
LINE
8
BLACK
6
CONTINUOUS
10
4.14682
20
-1.37148
11
4.14852
21
-1.37057
0
LINE
8
BLACK
6
CONTINUOUS
10
4.14852
20
-1.37057
11
4.15036
21
-1.37001
0
LINE
8
BLACK
6
CONTINUOUS
10
4.15036
20
-1.37001
11
4.15228
21
-1.36982
0
LINE
8
BLACK
6
CONTINUOUS
10
4.15228
20
-1.36982
11
4.18772
21
-1.36982
0
LINE
8
BLACK
6
CONTINUOUS
10
4.18772
20
-1.36982
11
4.18964
21
-1.37001
0
LINE
8
BLACK
6
CONTINUOUS
10
4.53062
20
-1.35531
11
4.53247
21
-1.35587
0
LINE
8
BLACK
6
CONTINUOUS
10
4.53247
20
-1.35587
11
4.53417
21
-1.35678
0
LINE
8
BLACK
6
CONTINUOUS
10
4.53417
20
-1.35678
11
4.53566
21
-1.358
0
LINE
8
BLACK
6
CONTINUOUS
10
4.53566
20
-1.358
11
4.53688
21
-1.35949
0
LINE
8
BLACK
6
CONTINUOUS
10
4.53688
20
-1.35949
11
4.53779
21
-1.36119
0
LINE
8
BLACK
6
CONTINUOUS
10
4.53779
20
-1.36119
11
4.53835
21
-1.36304
0
LINE
8
BLACK
6
CONTINUOUS
10
4.53835
20
-1.36304
11
4.53854
21
-1.36496
0
LINE
8
BLACK
6
CONTINUOUS
10
4.53854
20
-1.36496
11
4.53854
21
-1.38465
0
LINE
8
BLACK
6
CONTINUOUS
10
4.53854
20
-1.38465
11
4.53835
21
-1.38657
0
LINE
8
BLACK
6
CONTINUOUS
10
4.53835
20
-1.38657
11
4.53779
21
-1.38841
0
LINE
8
BLACK
6
CONTINUOUS
10
4.53779
20
-1.38841
11
4.53688
21
-1.39011
0
LINE
8
BLACK
6
CONTINUOUS
10
4.53688
20
-1.39011
11
4.53566
21
-1.39161
0
LINE
8
BLACK
6
CONTINUOUS
10
4.53566
20
-1.39161
11
4.53417
21
-1.39283
0
LINE
8
BLACK
6
CONTINUOUS
10
4.53417
20
-1.39283
11
4.53247
21
-1.39374
0
LINE
8
BLACK
6
CONTINUOUS
10
4.53247
20
-1.39374
11
4.53062
21
-1.3943
0
LINE
8
BLACK
6
CONTINUOUS
10
4.53062
20
-1.3943
11
4.5287
21
-1.39449
0
LINE
8
BLACK
6
CONTINUOUS
10
4.5287
20
-1.39449
11
4.4913
21
-1.39449
0
LINE
8
BLACK
6
CONTINUOUS
10
4.4913
20
-1.39449
11
4.48938
21
-1.3943
0
LINE
8
BLACK
6
CONTINUOUS
10
4.48938
20
-1.3943
11
4.48753
21
-1.39374
0
LINE
8
BLACK
6
CONTINUOUS
10
4.48753
20
-1.39374
11
4.48583
21
-1.39283
0
LINE
8
BLACK
6
CONTINUOUS
10
4.48583
20
-1.39283
11
4.48434
21
-1.39161
0
LINE
8
BLACK
6
CONTINUOUS
10
4.48434
20
-1.39161
11
4.48312
21
-1.39011
0
LINE
8
BLACK
6
CONTINUOUS
10
4.48312
20
-1.39011
11
4.48221
21
-1.38841
0
LINE
8
BLACK
6
CONTINUOUS
10
4.48221
20
-1.38841
11
4.48165
21
-1.38657
0
LINE
8
BLACK
6
CONTINUOUS
10
4.48165
20
-1.38657
11
4.48146
21
-1.38465
0
LINE
8
BLACK
6
CONTINUOUS
10
4.48146
20
-1.38465
11
4.48146
21
-1.36496
0
LINE
8
BLACK
6
CONTINUOUS
10
4.48146
20
-1.36496
11
4.48165
21
-1.36304
0
LINE
8
BLACK
6
CONTINUOUS
10
4.48165
20
-1.36304
11
4.48221
21
-1.36119
0
LINE
8
BLACK
6
CONTINUOUS
10
4.48221
20
-1.36119
11
4.48312
21
-1.35949
0
LINE
8
BLACK
6
CONTINUOUS
10
4.48312
20
-1.35949
11
4.48434
21
-1.358
0
LINE
8
BLACK
6
CONTINUOUS
10
4.48434
20
-1.358
11
4.48583
21
-1.35678
0
LINE
8
BLACK
6
CONTINUOUS
10
4.48583
20
-1.35678
11
4.48753
21
-1.35587
0
LINE
8
BLACK
6
CONTINUOUS
10
4.48753
20
-1.35587
11
4.48938
21
-1.35531
0
LINE
8
BLACK
6
CONTINUOUS
10
4.48938
20
-1.35531
11
4.4913
21
-1.35512
0
LINE
8
BLACK
6
CONTINUOUS
10
4.4913
20
-1.35512
11
4.5287
21
-1.35512
0
LINE
8
BLACK
6
CONTINUOUS
10
4.5287
20
-1.35512
11
4.53062
21
-1.35531
0
LINE
8
BLACK
6
CONTINUOUS
10
4.53062
20
-1.2805
11
4.53247
21
-1.28106
0
LINE
8
BLACK
6
CONTINUOUS
10
4.53247
20
-1.28106
11
4.53417
21
-1.28197
0
LINE
8
BLACK
6
CONTINUOUS
10
4.53417
20
-1.28197
11
4.53566
21
-1.2832
0
LINE
8
BLACK
6
CONTINUOUS
10
4.53566
20
-1.2832
11
4.53688
21
-1.28469
0
LINE
8
BLACK
6
CONTINUOUS
10
4.53688
20
-1.28469
11
4.53779
21
-1.28639
0
LINE
8
BLACK
6
CONTINUOUS
10
4.53779
20
-1.28639
11
4.53835
21
-1.28824
0
LINE
8
BLACK
6
CONTINUOUS
10
4.53835
20
-1.28824
11
4.53854
21
-1.29016
0
LINE
8
BLACK
6
CONTINUOUS
10
4.53854
20
-1.29016
11
4.53854
21
-1.30984
0
LINE
8
BLACK
6
CONTINUOUS
10
4.53854
20
-1.30984
11
4.53835
21
-1.31176
0
LINE
8
BLACK
6
CONTINUOUS
10
4.53835
20
-1.31176
11
4.53779
21
-1.31361
0
LINE
8
BLACK
6
CONTINUOUS
10
4.53779
20
-1.31361
11
4.53688
21
-1.31531
0
LINE
8
BLACK
6
CONTINUOUS
10
4.53688
20
-1.31531
11
4.53566
21
-1.3168
0
LINE
8
BLACK
6
CONTINUOUS
10
4.53566
20
-1.3168
11
4.53417
21
-1.31803
0
LINE
8
BLACK
6
CONTINUOUS
10
4.53417
20
-1.31803
11
4.53247
21
-1.31894
0
LINE
8
BLACK
6
CONTINUOUS
10
4.53247
20
-1.31894
11
4.53062
21
-1.3195
0
LINE
8
BLACK
6
CONTINUOUS
10
4.53062
20
-1.3195
11
4.5287
21
-1.31969
0
LINE
8
BLACK
6
CONTINUOUS
10
4.5287
20
-1.31969
11
4.4913
21
-1.31969
0
LINE
8
BLACK
6
CONTINUOUS
10
4.4913
20
-1.31969
11
4.48938
21
-1.3195
0
LINE
8
BLACK
6
CONTINUOUS
10
4.48938
20
-1.3195
11
4.48753
21
-1.31894
0
LINE
8
BLACK
6
CONTINUOUS
10
4.48753
20
-1.31894
11
4.48583
21
-1.31803
0
LINE
8
BLACK
6
CONTINUOUS
10
4.48583
20
-1.31803
11
4.48434
21
-1.3168
0
LINE
8
BLACK
6
CONTINUOUS
10
4.48434
20
-1.3168
11
4.48312
21
-1.31531
0
LINE
8
BLACK
6
CONTINUOUS
10
4.48312
20
-1.31531
11
4.48221
21
-1.31361
0
LINE
8
BLACK
6
CONTINUOUS
10
4.48221
20
-1.31361
11
4.48165
21
-1.31176
0
LINE
8
BLACK
6
CONTINUOUS
10
4.48165
20
-1.31176
11
4.48146
21
-1.30984
0
LINE
8
BLACK
6
CONTINUOUS
10
4.48146
20
-1.30984
11
4.48146
21
-1.29016
0
LINE
8
BLACK
6
CONTINUOUS
10
4.48146
20
-1.29016
11
4.48165
21
-1.28824
0
LINE
8
BLACK
6
CONTINUOUS
10
4.48165
20
-1.28824
11
4.48221
21
-1.28639
0
LINE
8
BLACK
6
CONTINUOUS
10
4.48221
20
-1.28639
11
4.48312
21
-1.28469
0
LINE
8
BLACK
6
CONTINUOUS
10
4.48312
20
-1.28469
11
4.48434
21
-1.2832
0
LINE
8
BLACK
6
CONTINUOUS
10
4.48434
20
-1.2832
11
4.48583
21
-1.28197
0
LINE
8
BLACK
6
CONTINUOUS
10
4.48583
20
-1.28197
11
4.48753
21
-1.28106
0
LINE
8
BLACK
6
CONTINUOUS
10
4.48753
20
-1.28106
11
4.48938
21
-1.2805
0
LINE
8
BLACK
6
CONTINUOUS
10
4.48938
20
-1.2805
11
4.4913
21
-1.28031
0
LINE
8
BLACK
6
CONTINUOUS
10
4.4913
20
-1.28031
11
4.5287
21
-1.28031
0
LINE
8
BLACK
6
CONTINUOUS
10
4.5287
20
-1.28031
11
4.53062
21
-1.2805
0
LINE
8
BLACK
6
CONTINUOUS
10
4.60208
20
-1.21442
11
4.61118
21
-1.21819
0
LINE
8
BLACK
6
CONTINUOUS
10
4.61118
20
-1.21819
11
4.61937
21
-1.22366
0
LINE
8
BLACK
6
CONTINUOUS
10
4.61937
20
-1.22366
11
4.62634
21
-1.23063
0
LINE
8
BLACK
6
CONTINUOUS
10
4.62634
20
-1.23063
11
4.63181
21
-1.23882
0
LINE
8
BLACK
6
CONTINUOUS
10
4.63181
20
-1.23882
11
4.63558
21
-1.24792
0
LINE
8
BLACK
6
CONTINUOUS
10
4.63558
20
-1.24792
11
4.6375
21
-1.25758
0
LINE
8
BLACK
6
CONTINUOUS
10
4.6375
20
-1.25758
11
4.6375
21
-1.26742
0
LINE
8
BLACK
6
CONTINUOUS
10
4.6375
20
-1.26742
11
4.63558
21
-1.27708
0
LINE
8
BLACK
6
CONTINUOUS
10
4.63558
20
-1.27708
11
4.63181
21
-1.28618
0
LINE
8
BLACK
6
CONTINUOUS
10
4.63181
20
-1.28618
11
4.62634
21
-1.29437
0
LINE
8
BLACK
6
CONTINUOUS
10
4.62634
20
-1.29437
11
4.61937
21
-1.30134
0
LINE
8
BLACK
6
CONTINUOUS
10
4.61937
20
-1.30134
11
4.61118
21
-1.30681
0
LINE
8
BLACK
6
CONTINUOUS
10
4.61118
20
-1.30681
11
4.60208
21
-1.31058
0
LINE
8
BLACK
6
CONTINUOUS
10
4.60208
20
-1.31058
11
4.59242
21
-1.3125
0
LINE
8
BLACK
6
CONTINUOUS
10
4.59242
20
-1.3125
11
4.58258
21
-1.3125
0
LINE
8
BLACK
6
CONTINUOUS
10
4.58258
20
-1.3125
11
4.57292
21
-1.31058
0
LINE
8
BLACK
6
CONTINUOUS
10
4.57292
20
-1.31058
11
4.56382
21
-1.30681
0
LINE
8
BLACK
6
CONTINUOUS
10
4.56382
20
-1.30681
11
4.55563
21
-1.30134
0
LINE
8
BLACK
6
CONTINUOUS
10
4.55563
20
-1.30134
11
4.54866
21
-1.29437
0
LINE
8
BLACK
6
CONTINUOUS
10
4.54866
20
-1.29437
11
4.54319
21
-1.28618
0
LINE
8
BLACK
6
CONTINUOUS
10
4.54319
20
-1.28618
11
4.53942
21
-1.27708
0
LINE
8
BLACK
6
CONTINUOUS
10
4.53942
20
-1.27708
11
4.5375
21
-1.26742
0
LINE
8
BLACK
6
CONTINUOUS
10
4.5375
20
-1.26742
11
4.5375
21
-1.25758
0
LINE
8
BLACK
6
CONTINUOUS
10
4.5375
20
-1.25758
11
4.53942
21
-1.24792
0
LINE
8
BLACK
6
CONTINUOUS
10
4.53942
20
-1.24792
11
4.54319
21
-1.23882
0
LINE
8
BLACK
6
CONTINUOUS
10
4.54319
20
-1.23882
11
4.54866
21
-1.23063
0
LINE
8
BLACK
6
CONTINUOUS
10
4.54866
20
-1.23063
11
4.55563
21
-1.22366
0
LINE
8
BLACK
6
CONTINUOUS
10
4.55563
20
-1.22366
11
4.56382
21
-1.21819
0
LINE
8
BLACK
6
CONTINUOUS
10
4.56382
20
-1.21819
11
4.57292
21
-1.21442
0
LINE
8
BLACK
6
CONTINUOUS
10
4.57292
20
-1.21442
11
4.58258
21
-1.2125
0
LINE
8
BLACK
6
CONTINUOUS
10
4.58258
20
-1.2125
11
4.59242
21
-1.2125
0
LINE
8
BLACK
6
CONTINUOUS
10
4.59242
20
-1.2125
11
4.60208
21
-1.21442
0
LINE
8
BLACK
6
CONTINUOUS
10
4.46528
20
-1.26921
11
4.37472
21
-1.26921
0
LINE
8
BLACK
6
CONTINUOUS
10
4.37472
20
-1.26921
11
4.37472
21
-1.17079
0
LINE
8
BLACK
6
CONTINUOUS
10
4.37472
20
-1.17079
11
4.46528
21
-1.17079
0
LINE
8
BLACK
6
CONTINUOUS
10
4.46528
20
-1.17079
11
4.46528
21
-1.26921
0
LINE
8
BLACK
6
CONTINUOUS
10
3.16128
20
-0.960778
11
3.18063
21
-0.968791
0
LINE
8
BLACK
6
CONTINUOUS
10
3.18063
20
-0.968791
11
3.19804
21
-0.980424
0
LINE
8
BLACK
6
CONTINUOUS
10
3.19804
20
-0.980424
11
3.21284
21
-0.99523
0
LINE
8
BLACK
6
CONTINUOUS
10
3.21284
20
-0.99523
11
3.22448
21
-1.01264
0
LINE
8
BLACK
6
CONTINUOUS
10
3.22448
20
-1.01264
11
3.23249
21
-1.03199
0
LINE
8
BLACK
6
CONTINUOUS
10
3.23249
20
-1.03199
11
3.23657
21
-1.05252
0
LINE
8
BLACK
6
CONTINUOUS
10
3.23657
20
-1.05252
11
3.23657
21
-1.07346
0
LINE
8
BLACK
6
CONTINUOUS
10
3.23657
20
-1.07346
11
3.23249
21
-1.094
0
LINE
8
BLACK
6
CONTINUOUS
10
3.23249
20
-1.094
11
3.22448
21
-1.11334
0
LINE
8
BLACK
6
CONTINUOUS
10
3.22448
20
-1.11334
11
3.21284
21
-1.13075
0
LINE
8
BLACK
6
CONTINUOUS
10
3.21284
20
-1.13075
11
3.19804
21
-1.14556
0
LINE
8
BLACK
6
CONTINUOUS
10
3.19804
20
-1.14556
11
3.18063
21
-1.15719
0
LINE
8
BLACK
6
CONTINUOUS
10
3.18063
20
-1.15719
11
3.16128
21
-1.16521
0
LINE
8
BLACK
6
CONTINUOUS
10
3.16128
20
-1.16521
11
3.14075
21
-1.16929
0
LINE
8
BLACK
6
CONTINUOUS
10
3.14075
20
-1.16929
11
3.11981
21
-1.16929
0
LINE
8
BLACK
6
CONTINUOUS
10
3.11981
20
-1.16929
11
3.09927
21
-1.16521
0
LINE
8
BLACK
6
CONTINUOUS
10
3.09927
20
-1.16521
11
3.07992
21
-1.15719
0
LINE
8
BLACK
6
CONTINUOUS
10
3.07992
20
-1.15719
11
3.06251
21
-1.14556
0
LINE
8
BLACK
6
CONTINUOUS
10
3.06251
20
-1.14556
11
3.04771
21
-1.13075
0
LINE
8
BLACK
6
CONTINUOUS
10
3.04771
20
-1.13075
11
3.03607
21
-1.11334
0
LINE
8
BLACK
6
CONTINUOUS
10
3.03607
20
-1.11334
11
3.02806
21
-1.094
0
LINE
8
BLACK
6
CONTINUOUS
10
3.02806
20
-1.094
11
3.02398
21
-1.07346
0
LINE
8
BLACK
6
CONTINUOUS
10
3.02398
20
-1.07346
11
3.02398
21
-1.05252
0
LINE
8
BLACK
6
CONTINUOUS
10
3.02398
20
-1.05252
11
3.02806
21
-1.03199
0
LINE
8
BLACK
6
CONTINUOUS
10
3.02806
20
-1.03199
11
3.03607
21
-1.01264
0
LINE
8
BLACK
6
CONTINUOUS
10
3.03607
20
-1.01264
11
3.04771
21
-0.99523
0
LINE
8
BLACK
6
CONTINUOUS
10
3.04771
20
-0.99523
11
3.06251
21
-0.980424
0
LINE
8
BLACK
6
CONTINUOUS
10
3.06251
20
-0.980424
11
3.07992
21
-0.968791
0
LINE
8
BLACK
6
CONTINUOUS
10
3.07992
20
-0.968791
11
3.09927
21
-0.960778
0
LINE
8
BLACK
6
CONTINUOUS
10
3.09927
20
-0.960778
11
3.11981
21
-0.956693
0
LINE
8
BLACK
6
CONTINUOUS
10
3.11981
20
-0.956693
11
3.14075
21
-0.956693
0
LINE
8
BLACK
6
CONTINUOUS
10
3.14075
20
-0.956693
11
3.16128
21
-0.960778
0
LINE
8
BLACK
6
CONTINUOUS
10
4.46528
20
-1.09992
11
4.37472
21
-1.09992
0
LINE
8
BLACK
6
CONTINUOUS
10
4.37472
20
-1.09992
11
4.37472
21
-1.0015
0
LINE
8
BLACK
6
CONTINUOUS
10
4.37472
20
-1.0015
11
4.46528
21
-1.0015
0
LINE
8
BLACK
6
CONTINUOUS
10
4.46528
20
-1.0015
11
4.46528
21
-1.09992
  0
ENDSEC
  0
EOF
