  0
SECTION
  2
HEADER
  9
$ANGBASE
  50
0.0
  9
$ANGDIR
  70
1
  9
$MEASUREMENT
  70
0
  0
ENDSEC
  0
SECTION
  2
TABLES
  0
TABLE
  2
LTYPE
  70
4
  0
LTYPE
  5
40F
  2
CONTINUOUS
  70
0
  3
Solid line
  72
65
  73
0
  40
0.0
  0
LTYPE
  5
410
  2
DASHDOT
 70
0
  3
Dash Dot ____ _ ____ _
 72
65
 73
4
 40
2.0
 49
1.25
 49
-0.25
 49
0.25
 49
-0.25
  0
LTYPE
  5
411
  2
DASHED
 70
0
  3
Dashed __ __ __ __ __
 72
65
 73
2
 40
0.75
 49
0.5
 49
-0.25
  0
LTYPE
  5
43B
  2
DOTTED
 70
0
  3
Dotted .  .  .  .
 72
65
 73
2
 40
0.2
 49
0.0
 49
-0.2
  0
ENDTAB
  0
TABLE
  2
STYLE
  70
4
  0
STYLE
  2
KICAD
  70
0
  40
0
  41
1
  42
1
  50
0
  71
0
  3
isocp.shx
  0
STYLE
  2
KICADB
  70
0
  40
0
  41
1
  42
1
  50
0
  71
0
  3
isocp.shx
  0
STYLE
  2
KICADI
  70
0
  40
0
  41
1
  42
1
  50
15
  71
0
  3
isocp.shx
  0
STYLE
  2
KICADBI
  70
0
  40
0
  41
1
  42
1
  50
15
  71
0
  3
isocp.shx
  0
ENDTAB
  0
TABLE
  2
LAYER
  70
1
  0
LAYER
  2
BLACK
  70
0
  62
7
  6
CONTINUOUS
  0
ENDTAB
  0
ENDSEC
  0
SECTION
  2
ENTITIES
0
LINE
8
BLACK
6
CONTINUOUS
10
4.06558
20
-1.70607
11
4.06743
21
-1.70664
0
LINE
8
BLACK
6
CONTINUOUS
10
4.06743
20
-1.70664
11
4.06913
21
-1.70754
0
LINE
8
BLACK
6
CONTINUOUS
10
4.06913
20
-1.70754
11
4.07062
21
-1.70877
0
LINE
8
BLACK
6
CONTINUOUS
10
4.07062
20
-1.70877
11
4.07185
21
-1.71026
0
LINE
8
BLACK
6
CONTINUOUS
10
4.07185
20
-1.71026
11
4.07275
21
-1.71196
0
LINE
8
BLACK
6
CONTINUOUS
10
4.07275
20
-1.71196
11
4.07331
21
-1.71381
0
LINE
8
BLACK
6
CONTINUOUS
10
4.07331
20
-1.71381
11
4.0735
21
-1.71573
0
LINE
8
BLACK
6
CONTINUOUS
10
4.0735
20
-1.71573
11
4.0735
21
-1.74427
0
LINE
8
BLACK
6
CONTINUOUS
10
4.0735
20
-1.74427
11
4.07331
21
-1.74619
0
LINE
8
BLACK
6
CONTINUOUS
10
4.07331
20
-1.74619
11
4.07275
21
-1.74804
0
LINE
8
BLACK
6
CONTINUOUS
10
4.07275
20
-1.74804
11
4.07185
21
-1.74974
0
LINE
8
BLACK
6
CONTINUOUS
10
4.07185
20
-1.74974
11
4.07062
21
-1.75123
0
LINE
8
BLACK
6
CONTINUOUS
10
4.07062
20
-1.75123
11
4.06913
21
-1.75246
0
LINE
8
BLACK
6
CONTINUOUS
10
4.06913
20
-1.75246
11
4.06743
21
-1.75336
0
LINE
8
BLACK
6
CONTINUOUS
10
4.06743
20
-1.75336
11
4.06558
21
-1.75393
0
LINE
8
BLACK
6
CONTINUOUS
10
4.06558
20
-1.75393
11
4.06366
21
-1.75411
0
LINE
8
BLACK
6
CONTINUOUS
10
4.06366
20
-1.75411
11
3.89634
21
-1.75411
0
LINE
8
BLACK
6
CONTINUOUS
10
3.89634
20
-1.75411
11
3.89442
21
-1.75393
0
LINE
8
BLACK
6
CONTINUOUS
10
3.89442
20
-1.75393
11
3.89257
21
-1.75336
0
LINE
8
BLACK
6
CONTINUOUS
10
3.89257
20
-1.75336
11
3.89087
21
-1.75246
0
LINE
8
BLACK
6
CONTINUOUS
10
3.89087
20
-1.75246
11
3.88938
21
-1.75123
0
LINE
8
BLACK
6
CONTINUOUS
10
3.88938
20
-1.75123
11
3.88815
21
-1.74974
0
LINE
8
BLACK
6
CONTINUOUS
10
3.88815
20
-1.74974
11
3.88725
21
-1.74804
0
LINE
8
BLACK
6
CONTINUOUS
10
3.88725
20
-1.74804
11
3.88669
21
-1.74619
0
LINE
8
BLACK
6
CONTINUOUS
10
3.88669
20
-1.74619
11
3.8865
21
-1.74427
0
LINE
8
BLACK
6
CONTINUOUS
10
3.8865
20
-1.74427
11
3.8865
21
-1.71573
0
LINE
8
BLACK
6
CONTINUOUS
10
3.8865
20
-1.71573
11
3.88669
21
-1.71381
0
LINE
8
BLACK
6
CONTINUOUS
10
3.88669
20
-1.71381
11
3.88725
21
-1.71196
0
LINE
8
BLACK
6
CONTINUOUS
10
3.88725
20
-1.71196
11
3.88815
21
-1.71026
0
LINE
8
BLACK
6
CONTINUOUS
10
3.88815
20
-1.71026
11
3.88938
21
-1.70877
0
LINE
8
BLACK
6
CONTINUOUS
10
3.88938
20
-1.70877
11
3.89087
21
-1.70754
0
LINE
8
BLACK
6
CONTINUOUS
10
3.89087
20
-1.70754
11
3.89257
21
-1.70664
0
LINE
8
BLACK
6
CONTINUOUS
10
3.89257
20
-1.70664
11
3.89442
21
-1.70607
0
LINE
8
BLACK
6
CONTINUOUS
10
3.89442
20
-1.70607
11
3.89634
21
-1.70589
0
LINE
8
BLACK
6
CONTINUOUS
10
3.89634
20
-1.70589
11
4.06366
21
-1.70589
0
LINE
8
BLACK
6
CONTINUOUS
10
4.06366
20
-1.70589
11
4.06558
21
-1.70607
0
LINE
8
BLACK
6
CONTINUOUS
10
4.06558
20
-1.58304
11
4.06743
21
-1.5836
0
LINE
8
BLACK
6
CONTINUOUS
10
4.06743
20
-1.5836
11
4.06913
21
-1.58451
0
LINE
8
BLACK
6
CONTINUOUS
10
4.06913
20
-1.58451
11
4.07062
21
-1.58574
0
LINE
8
BLACK
6
CONTINUOUS
10
4.07062
20
-1.58574
11
4.07185
21
-1.58723
0
LINE
8
BLACK
6
CONTINUOUS
10
4.07185
20
-1.58723
11
4.07275
21
-1.58893
0
LINE
8
BLACK
6
CONTINUOUS
10
4.07275
20
-1.58893
11
4.07331
21
-1.59078
0
LINE
8
BLACK
6
CONTINUOUS
10
4.07331
20
-1.59078
11
4.0735
21
-1.5927
0
LINE
8
BLACK
6
CONTINUOUS
10
4.0735
20
-1.5927
11
4.0735
21
-1.62124
0
LINE
8
BLACK
6
CONTINUOUS
10
4.0735
20
-1.62124
11
4.07331
21
-1.62316
0
LINE
8
BLACK
6
CONTINUOUS
10
4.07331
20
-1.62316
11
4.07275
21
-1.62501
0
LINE
8
BLACK
6
CONTINUOUS
10
4.07275
20
-1.62501
11
4.07185
21
-1.62671
0
LINE
8
BLACK
6
CONTINUOUS
10
4.07185
20
-1.62671
11
4.07062
21
-1.6282
0
LINE
8
BLACK
6
CONTINUOUS
10
4.07062
20
-1.6282
11
4.06913
21
-1.62942
0
LINE
8
BLACK
6
CONTINUOUS
10
4.06913
20
-1.62942
11
4.06743
21
-1.63033
0
LINE
8
BLACK
6
CONTINUOUS
10
4.06743
20
-1.63033
11
4.06558
21
-1.63089
0
LINE
8
BLACK
6
CONTINUOUS
10
4.06558
20
-1.63089
11
4.06366
21
-1.63108
0
LINE
8
BLACK
6
CONTINUOUS
10
4.06366
20
-1.63108
11
3.89634
21
-1.63108
0
LINE
8
BLACK
6
CONTINUOUS
10
3.89634
20
-1.63108
11
3.89442
21
-1.63089
0
LINE
8
BLACK
6
CONTINUOUS
10
3.89442
20
-1.63089
11
3.89257
21
-1.63033
0
LINE
8
BLACK
6
CONTINUOUS
10
3.89257
20
-1.63033
11
3.89087
21
-1.62942
0
LINE
8
BLACK
6
CONTINUOUS
10
3.89087
20
-1.62942
11
3.88938
21
-1.6282
0
LINE
8
BLACK
6
CONTINUOUS
10
3.88938
20
-1.6282
11
3.88815
21
-1.62671
0
LINE
8
BLACK
6
CONTINUOUS
10
3.88815
20
-1.62671
11
3.88725
21
-1.62501
0
LINE
8
BLACK
6
CONTINUOUS
10
3.88725
20
-1.62501
11
3.88669
21
-1.62316
0
LINE
8
BLACK
6
CONTINUOUS
10
3.88669
20
-1.62316
11
3.8865
21
-1.62124
0
LINE
8
BLACK
6
CONTINUOUS
10
3.8865
20
-1.62124
11
3.8865
21
-1.5927
0
LINE
8
BLACK
6
CONTINUOUS
10
3.8865
20
-1.5927
11
3.88669
21
-1.59078
0
LINE
8
BLACK
6
CONTINUOUS
10
3.88669
20
-1.59078
11
3.88725
21
-1.58893
0
LINE
8
BLACK
6
CONTINUOUS
10
3.88725
20
-1.58893
11
3.88815
21
-1.58723
0
LINE
8
BLACK
6
CONTINUOUS
10
3.88815
20
-1.58723
11
3.88938
21
-1.58574
0
LINE
8
BLACK
6
CONTINUOUS
10
3.88938
20
-1.58574
11
3.89087
21
-1.58451
0
LINE
8
BLACK
6
CONTINUOUS
10
3.89087
20
-1.58451
11
3.89257
21
-1.5836
0
LINE
8
BLACK
6
CONTINUOUS
10
3.89257
20
-1.5836
11
3.89442
21
-1.58304
0
LINE
8
BLACK
6
CONTINUOUS
10
3.89442
20
-1.58304
11
3.89634
21
-1.58285
0
LINE
8
BLACK
6
CONTINUOUS
10
3.89634
20
-1.58285
11
4.06366
21
-1.58285
0
LINE
8
BLACK
6
CONTINUOUS
10
4.06366
20
-1.58285
11
4.06558
21
-1.58304
0
LINE
8
BLACK
6
CONTINUOUS
10
4.37543
20
-1.62795
11
4.30457
21
-1.62795
0
LINE
8
BLACK
6
CONTINUOUS
10
4.30457
20
-1.62795
11
4.30457
21
-1.52953
0
LINE
8
BLACK
6
CONTINUOUS
10
4.30457
20
-1.52953
11
4.37543
21
-1.52953
0
LINE
8
BLACK
6
CONTINUOUS
10
4.37543
20
-1.52953
11
4.37543
21
-1.62795
0
LINE
8
BLACK
6
CONTINUOUS
10
4.19062
20
-1.58791
11
4.19247
21
-1.58847
0
LINE
8
BLACK
6
CONTINUOUS
10
4.19247
20
-1.58847
11
4.19417
21
-1.58938
0
LINE
8
BLACK
6
CONTINUOUS
10
4.19417
20
-1.58938
11
4.19566
21
-1.5906
0
LINE
8
BLACK
6
CONTINUOUS
10
4.19566
20
-1.5906
11
4.19688
21
-1.59209
0
LINE
8
BLACK
6
CONTINUOUS
10
4.19688
20
-1.59209
11
4.19779
21
-1.59379
0
LINE
8
BLACK
6
CONTINUOUS
10
4.19779
20
-1.59379
11
4.19835
21
-1.59564
0
LINE
8
BLACK
6
CONTINUOUS
10
4.19835
20
-1.59564
11
4.19854
21
-1.59756
0
LINE
8
BLACK
6
CONTINUOUS
10
4.19854
20
-1.59756
11
4.19854
21
-1.61724
0
LINE
8
BLACK
6
CONTINUOUS
10
4.19854
20
-1.61724
11
4.19835
21
-1.61916
0
LINE
8
BLACK
6
CONTINUOUS
10
4.19835
20
-1.61916
11
4.19779
21
-1.62101
0
LINE
8
BLACK
6
CONTINUOUS
10
4.19779
20
-1.62101
11
4.19688
21
-1.62271
0
LINE
8
BLACK
6
CONTINUOUS
10
4.19688
20
-1.62271
11
4.19566
21
-1.6242
0
LINE
8
BLACK
6
CONTINUOUS
10
4.19566
20
-1.6242
11
4.19417
21
-1.62543
0
LINE
8
BLACK
6
CONTINUOUS
10
4.19417
20
-1.62543
11
4.19247
21
-1.62634
0
LINE
8
BLACK
6
CONTINUOUS
10
4.19247
20
-1.62634
11
4.19062
21
-1.6269
0
LINE
8
BLACK
6
CONTINUOUS
10
4.19062
20
-1.6269
11
4.1887
21
-1.62709
0
LINE
8
BLACK
6
CONTINUOUS
10
4.1887
20
-1.62709
11
4.1513
21
-1.62709
0
LINE
8
BLACK
6
CONTINUOUS
10
4.1513
20
-1.62709
11
4.14938
21
-1.6269
0
LINE
8
BLACK
6
CONTINUOUS
10
4.14938
20
-1.6269
11
4.14753
21
-1.62634
0
LINE
8
BLACK
6
CONTINUOUS
10
4.14753
20
-1.62634
11
4.14583
21
-1.62543
0
LINE
8
BLACK
6
CONTINUOUS
10
4.14583
20
-1.62543
11
4.14434
21
-1.6242
0
LINE
8
BLACK
6
CONTINUOUS
10
4.14434
20
-1.6242
11
4.14312
21
-1.62271
0
LINE
8
BLACK
6
CONTINUOUS
10
4.14312
20
-1.62271
11
4.14221
21
-1.62101
0
LINE
8
BLACK
6
CONTINUOUS
10
4.14221
20
-1.62101
11
4.14165
21
-1.61916
0
LINE
8
BLACK
6
CONTINUOUS
10
4.14165
20
-1.61916
11
4.14146
21
-1.61724
0
LINE
8
BLACK
6
CONTINUOUS
10
4.14146
20
-1.61724
11
4.14146
21
-1.59756
0
LINE
8
BLACK
6
CONTINUOUS
10
4.14146
20
-1.59756
11
4.14165
21
-1.59564
0
LINE
8
BLACK
6
CONTINUOUS
10
4.14165
20
-1.59564
11
4.14221
21
-1.59379
0
LINE
8
BLACK
6
CONTINUOUS
10
4.14221
20
-1.59379
11
4.14312
21
-1.59209
0
LINE
8
BLACK
6
CONTINUOUS
10
4.14312
20
-1.59209
11
4.14434
21
-1.5906
0
LINE
8
BLACK
6
CONTINUOUS
10
4.14434
20
-1.5906
11
4.14583
21
-1.58938
0
LINE
8
BLACK
6
CONTINUOUS
10
4.14583
20
-1.58938
11
4.14753
21
-1.58847
0
LINE
8
BLACK
6
CONTINUOUS
10
4.14753
20
-1.58847
11
4.14938
21
-1.58791
0
LINE
8
BLACK
6
CONTINUOUS
10
4.14938
20
-1.58791
11
4.1513
21
-1.58772
0
LINE
8
BLACK
6
CONTINUOUS
10
4.1513
20
-1.58772
11
4.1887
21
-1.58772
0
LINE
8
BLACK
6
CONTINUOUS
10
4.1887
20
-1.58772
11
4.19062
21
-1.58791
0
LINE
8
BLACK
6
CONTINUOUS
10
4.19062
20
-1.5131
11
4.19247
21
-1.51366
0
LINE
8
BLACK
6
CONTINUOUS
10
4.19247
20
-1.51366
11
4.19417
21
-1.51457
0
LINE
8
BLACK
6
CONTINUOUS
10
4.19417
20
-1.51457
11
4.19566
21
-1.5158
0
LINE
8
BLACK
6
CONTINUOUS
10
4.19566
20
-1.5158
11
4.19688
21
-1.51729
0
LINE
8
BLACK
6
CONTINUOUS
10
4.19688
20
-1.51729
11
4.19779
21
-1.51899
0
LINE
8
BLACK
6
CONTINUOUS
10
4.19779
20
-1.51899
11
4.19835
21
-1.52084
0
LINE
8
BLACK
6
CONTINUOUS
10
4.19835
20
-1.52084
11
4.19854
21
-1.52276
0
LINE
8
BLACK
6
CONTINUOUS
10
4.19854
20
-1.52276
11
4.19854
21
-1.54244
0
LINE
8
BLACK
6
CONTINUOUS
10
4.19854
20
-1.54244
11
4.19835
21
-1.54436
0
LINE
8
BLACK
6
CONTINUOUS
10
4.19835
20
-1.54436
11
4.19779
21
-1.54621
0
LINE
8
BLACK
6
CONTINUOUS
10
4.19779
20
-1.54621
11
4.19688
21
-1.54791
0
LINE
8
BLACK
6
CONTINUOUS
10
4.19688
20
-1.54791
11
4.19566
21
-1.5494
0
LINE
8
BLACK
6
CONTINUOUS
10
4.19566
20
-1.5494
11
4.19417
21
-1.55062
0
LINE
8
BLACK
6
CONTINUOUS
10
4.19417
20
-1.55062
11
4.19247
21
-1.55153
0
LINE
8
BLACK
6
CONTINUOUS
10
4.19247
20
-1.55153
11
4.19062
21
-1.55209
0
LINE
8
BLACK
6
CONTINUOUS
10
4.19062
20
-1.55209
11
4.1887
21
-1.55228
0
LINE
8
BLACK
6
CONTINUOUS
10
4.1887
20
-1.55228
11
4.1513
21
-1.55228
0
LINE
8
BLACK
6
CONTINUOUS
10
4.1513
20
-1.55228
11
4.14938
21
-1.55209
0
LINE
8
BLACK
6
CONTINUOUS
10
4.14938
20
-1.55209
11
4.14753
21
-1.55153
0
LINE
8
BLACK
6
CONTINUOUS
10
4.14753
20
-1.55153
11
4.14583
21
-1.55062
0
LINE
8
BLACK
6
CONTINUOUS
10
4.14583
20
-1.55062
11
4.14434
21
-1.5494
0
LINE
8
BLACK
6
CONTINUOUS
10
4.14434
20
-1.5494
11
4.14312
21
-1.54791
0
LINE
8
BLACK
6
CONTINUOUS
10
4.14312
20
-1.54791
11
4.14221
21
-1.54621
0
LINE
8
BLACK
6
CONTINUOUS
10
4.14221
20
-1.54621
11
4.14165
21
-1.54436
0
LINE
8
BLACK
6
CONTINUOUS
10
4.14165
20
-1.54436
11
4.14146
21
-1.54244
0
LINE
8
BLACK
6
CONTINUOUS
10
4.14146
20
-1.54244
11
4.14146
21
-1.52276
0
LINE
8
BLACK
6
CONTINUOUS
10
4.14146
20
-1.52276
11
4.14165
21
-1.52084
0
LINE
8
BLACK
6
CONTINUOUS
10
4.14165
20
-1.52084
11
4.14221
21
-1.51899
0
LINE
8
BLACK
6
CONTINUOUS
10
4.14221
20
-1.51899
11
4.14312
21
-1.51729
0
LINE
8
BLACK
6
CONTINUOUS
10
4.14312
20
-1.51729
11
4.14434
21
-1.5158
0
LINE
8
BLACK
6
CONTINUOUS
10
4.14434
20
-1.5158
11
4.14583
21
-1.51457
0
LINE
8
BLACK
6
CONTINUOUS
10
4.14583
20
-1.51457
11
4.14753
21
-1.51366
0
LINE
8
BLACK
6
CONTINUOUS
10
4.14753
20
-1.51366
11
4.14938
21
-1.5131
0
LINE
8
BLACK
6
CONTINUOUS
10
4.14938
20
-1.5131
11
4.1513
21
-1.51291
0
LINE
8
BLACK
6
CONTINUOUS
10
4.1513
20
-1.51291
11
4.1887
21
-1.51291
0
LINE
8
BLACK
6
CONTINUOUS
10
4.1887
20
-1.51291
11
4.19062
21
-1.5131
0
LINE
8
BLACK
6
CONTINUOUS
10
4.18964
20
-1.44186
11
4.19148
21
-1.44242
0
LINE
8
BLACK
6
CONTINUOUS
10
4.19148
20
-1.44242
11
4.19318
21
-1.44333
0
LINE
8
BLACK
6
CONTINUOUS
10
4.19318
20
-1.44333
11
4.19468
21
-1.44456
0
LINE
8
BLACK
6
CONTINUOUS
10
4.19468
20
-1.44456
11
4.1959
21
-1.44605
0
LINE
8
BLACK
6
CONTINUOUS
10
4.1959
20
-1.44605
11
4.19681
21
-1.44775
0
LINE
8
BLACK
6
CONTINUOUS
10
4.19681
20
-1.44775
11
4.19737
21
-1.4496
0
LINE
8
BLACK
6
CONTINUOUS
10
4.19737
20
-1.4496
11
4.19756
21
-1.45152
0
LINE
8
BLACK
6
CONTINUOUS
10
4.19756
20
-1.45152
11
4.19756
21
-1.47219
0
LINE
8
BLACK
6
CONTINUOUS
10
4.19756
20
-1.47219
11
4.19737
21
-1.47411
0
LINE
8
BLACK
6
CONTINUOUS
10
4.19737
20
-1.47411
11
4.19681
21
-1.47595
0
LINE
8
BLACK
6
CONTINUOUS
10
4.19681
20
-1.47595
11
4.1959
21
-1.47765
0
LINE
8
BLACK
6
CONTINUOUS
10
4.1959
20
-1.47765
11
4.19468
21
-1.47914
0
LINE
8
BLACK
6
CONTINUOUS
10
4.19468
20
-1.47914
11
4.19318
21
-1.48037
0
LINE
8
BLACK
6
CONTINUOUS
10
4.19318
20
-1.48037
11
4.19148
21
-1.48128
0
LINE
8
BLACK
6
CONTINUOUS
10
4.19148
20
-1.48128
11
4.18964
21
-1.48184
0
LINE
8
BLACK
6
CONTINUOUS
10
4.18964
20
-1.48184
11
4.18772
21
-1.48203
0
LINE
8
BLACK
6
CONTINUOUS
10
4.18772
20
-1.48203
11
4.15228
21
-1.48203
0
LINE
8
BLACK
6
CONTINUOUS
10
4.15228
20
-1.48203
11
4.15036
21
-1.48184
0
LINE
8
BLACK
6
CONTINUOUS
10
4.15036
20
-1.48184
11
4.14852
21
-1.48128
0
LINE
8
BLACK
6
CONTINUOUS
10
4.14852
20
-1.48128
11
4.14682
21
-1.48037
0
LINE
8
BLACK
6
CONTINUOUS
10
4.14682
20
-1.48037
11
4.14532
21
-1.47914
0
LINE
8
BLACK
6
CONTINUOUS
10
4.14532
20
-1.47914
11
4.1441
21
-1.47765
0
LINE
8
BLACK
6
CONTINUOUS
10
4.1441
20
-1.47765
11
4.14319
21
-1.47595
0
LINE
8
BLACK
6
CONTINUOUS
10
4.14319
20
-1.47595
11
4.14263
21
-1.47411
0
LINE
8
BLACK
6
CONTINUOUS
10
4.14263
20
-1.47411
11
4.14244
21
-1.47219
0
LINE
8
BLACK
6
CONTINUOUS
10
4.14244
20
-1.47219
11
4.14244
21
-1.45152
0
LINE
8
BLACK
6
CONTINUOUS
10
4.14244
20
-1.45152
11
4.14263
21
-1.4496
0
LINE
8
BLACK
6
CONTINUOUS
10
4.14263
20
-1.4496
11
4.14319
21
-1.44775
0
LINE
8
BLACK
6
CONTINUOUS
10
4.14319
20
-1.44775
11
4.1441
21
-1.44605
0
LINE
8
BLACK
6
CONTINUOUS
10
4.1441
20
-1.44605
11
4.14532
21
-1.44456
0
LINE
8
BLACK
6
CONTINUOUS
10
4.14532
20
-1.44456
11
4.14682
21
-1.44333
0
LINE
8
BLACK
6
CONTINUOUS
10
4.14682
20
-1.44333
11
4.14852
21
-1.44242
0
LINE
8
BLACK
6
CONTINUOUS
10
4.14852
20
-1.44242
11
4.15036
21
-1.44186
0
LINE
8
BLACK
6
CONTINUOUS
10
4.15036
20
-1.44186
11
4.15228
21
-1.44167
0
LINE
8
BLACK
6
CONTINUOUS
10
4.15228
20
-1.44167
11
4.18772
21
-1.44167
0
LINE
8
BLACK
6
CONTINUOUS
10
4.18772
20
-1.44167
11
4.18964
21
-1.44186
0
LINE
8
BLACK
6
CONTINUOUS
10
4.37543
20
-1.47047
11
4.30457
21
-1.47047
0
LINE
8
BLACK
6
CONTINUOUS
10
4.30457
20
-1.47047
11
4.30457
21
-1.37205
0
LINE
8
BLACK
6
CONTINUOUS
10
4.30457
20
-1.37205
11
4.37543
21
-1.37205
0
LINE
8
BLACK
6
CONTINUOUS
10
4.37543
20
-1.37205
11
4.37543
21
-1.47047
0
LINE
8
BLACK
6
CONTINUOUS
10
4.18964
20
-1.37001
11
4.19148
21
-1.37057
0
LINE
8
BLACK
6
CONTINUOUS
10
4.19148
20
-1.37057
11
4.19318
21
-1.37148
0
LINE
8
BLACK
6
CONTINUOUS
10
4.19318
20
-1.37148
11
4.19468
21
-1.37271
0
LINE
8
BLACK
6
CONTINUOUS
10
4.19468
20
-1.37271
11
4.1959
21
-1.3742
0
LINE
8
BLACK
6
CONTINUOUS
10
4.1959
20
-1.3742
11
4.19681
21
-1.3759
0
LINE
8
BLACK
6
CONTINUOUS
10
4.19681
20
-1.3759
11
4.19737
21
-1.37775
0
LINE
8
BLACK
6
CONTINUOUS
10
4.19737
20
-1.37775
11
4.19756
21
-1.37967
0
LINE
8
BLACK
6
CONTINUOUS
10
4.19756
20
-1.37967
11
4.19756
21
-1.40033
0
LINE
8
BLACK
6
CONTINUOUS
10
4.19756
20
-1.40033
11
4.19737
21
-1.40225
0
LINE
8
BLACK
6
CONTINUOUS
10
4.19737
20
-1.40225
11
4.19681
21
-1.4041
0
LINE
8
BLACK
6
CONTINUOUS
10
4.19681
20
-1.4041
11
4.1959
21
-1.4058
0
LINE
8
BLACK
6
CONTINUOUS
10
4.1959
20
-1.4058
11
4.19468
21
-1.40729
0
LINE
8
BLACK
6
CONTINUOUS
10
4.19468
20
-1.40729
11
4.19318
21
-1.40852
0
LINE
8
BLACK
6
CONTINUOUS
10
4.19318
20
-1.40852
11
4.19148
21
-1.40943
0
LINE
8
BLACK
6
CONTINUOUS
10
4.19148
20
-1.40943
11
4.18964
21
-1.40999
0
LINE
8
BLACK
6
CONTINUOUS
10
4.18964
20
-1.40999
11
4.18772
21
-1.41018
0
LINE
8
BLACK
6
CONTINUOUS
10
4.18772
20
-1.41018
11
4.15228
21
-1.41018
0
LINE
8
BLACK
6
CONTINUOUS
10
4.15228
20
-1.41018
11
4.15036
21
-1.40999
0
LINE
8
BLACK
6
CONTINUOUS
10
4.15036
20
-1.40999
11
4.14852
21
-1.40943
0
LINE
8
BLACK
6
CONTINUOUS
10
4.14852
20
-1.40943
11
4.14682
21
-1.40852
0
LINE
8
BLACK
6
CONTINUOUS
10
4.14682
20
-1.40852
11
4.14532
21
-1.40729
0
LINE
8
BLACK
6
CONTINUOUS
10
4.14532
20
-1.40729
11
4.1441
21
-1.4058
0
LINE
8
BLACK
6
CONTINUOUS
10
4.1441
20
-1.4058
11
4.14319
21
-1.4041
0
LINE
8
BLACK
6
CONTINUOUS
10
4.14319
20
-1.4041
11
4.14263
21
-1.40225
0
LINE
8
BLACK
6
CONTINUOUS
10
4.14263
20
-1.40225
11
4.14244
21
-1.40033
0
LINE
8
BLACK
6
CONTINUOUS
10
4.14244
20
-1.40033
11
4.14244
21
-1.37967
0
LINE
8
BLACK
6
CONTINUOUS
10
4.14244
20
-1.37967
11
4.14263
21
-1.37775
0
LINE
8
BLACK
6
CONTINUOUS
10
4.14263
20
-1.37775
11
4.14319
21
-1.3759
0
LINE
8
BLACK
6
CONTINUOUS
10
4.14319
20
-1.3759
11
4.1441
21
-1.3742
0
LINE
8
BLACK
6
CONTINUOUS
10
4.1441
20
-1.3742
11
4.14532
21
-1.37271
0
LINE
8
BLACK
6
CONTINUOUS
10
4.14532
20
-1.37271
11
4.14682
21
-1.37148
0
LINE
8
BLACK
6
CONTINUOUS
10
4.14682
20
-1.37148
11
4.14852
21
-1.37057
0
LINE
8
BLACK
6
CONTINUOUS
10
4.14852
20
-1.37057
11
4.15036
21
-1.37001
0
LINE
8
BLACK
6
CONTINUOUS
10
4.15036
20
-1.37001
11
4.15228
21
-1.36982
0
LINE
8
BLACK
6
CONTINUOUS
10
4.15228
20
-1.36982
11
4.18772
21
-1.36982
0
LINE
8
BLACK
6
CONTINUOUS
10
4.18772
20
-1.36982
11
4.18964
21
-1.37001
0
LINE
8
BLACK
6
CONTINUOUS
10
4.53062
20
-1.35531
11
4.53247
21
-1.35587
0
LINE
8
BLACK
6
CONTINUOUS
10
4.53247
20
-1.35587
11
4.53417
21
-1.35678
0
LINE
8
BLACK
6
CONTINUOUS
10
4.53417
20
-1.35678
11
4.53566
21
-1.358
0
LINE
8
BLACK
6
CONTINUOUS
10
4.53566
20
-1.358
11
4.53688
21
-1.35949
0
LINE
8
BLACK
6
CONTINUOUS
10
4.53688
20
-1.35949
11
4.53779
21
-1.36119
0
LINE
8
BLACK
6
CONTINUOUS
10
4.53779
20
-1.36119
11
4.53835
21
-1.36304
0
LINE
8
BLACK
6
CONTINUOUS
10
4.53835
20
-1.36304
11
4.53854
21
-1.36496
0
LINE
8
BLACK
6
CONTINUOUS
10
4.53854
20
-1.36496
11
4.53854
21
-1.38465
0
LINE
8
BLACK
6
CONTINUOUS
10
4.53854
20
-1.38465
11
4.53835
21
-1.38657
0
LINE
8
BLACK
6
CONTINUOUS
10
4.53835
20
-1.38657
11
4.53779
21
-1.38841
0
LINE
8
BLACK
6
CONTINUOUS
10
4.53779
20
-1.38841
11
4.53688
21
-1.39011
0
LINE
8
BLACK
6
CONTINUOUS
10
4.53688
20
-1.39011
11
4.53566
21
-1.39161
0
LINE
8
BLACK
6
CONTINUOUS
10
4.53566
20
-1.39161
11
4.53417
21
-1.39283
0
LINE
8
BLACK
6
CONTINUOUS
10
4.53417
20
-1.39283
11
4.53247
21
-1.39374
0
LINE
8
BLACK
6
CONTINUOUS
10
4.53247
20
-1.39374
11
4.53062
21
-1.3943
0
LINE
8
BLACK
6
CONTINUOUS
10
4.53062
20
-1.3943
11
4.5287
21
-1.39449
0
LINE
8
BLACK
6
CONTINUOUS
10
4.5287
20
-1.39449
11
4.4913
21
-1.39449
0
LINE
8
BLACK
6
CONTINUOUS
10
4.4913
20
-1.39449
11
4.48938
21
-1.3943
0
LINE
8
BLACK
6
CONTINUOUS
10
4.48938
20
-1.3943
11
4.48753
21
-1.39374
0
LINE
8
BLACK
6
CONTINUOUS
10
4.48753
20
-1.39374
11
4.48583
21
-1.39283
0
LINE
8
BLACK
6
CONTINUOUS
10
4.48583
20
-1.39283
11
4.48434
21
-1.39161
0
LINE
8
BLACK
6
CONTINUOUS
10
4.48434
20
-1.39161
11
4.48312
21
-1.39011
0
LINE
8
BLACK
6
CONTINUOUS
10
4.48312
20
-1.39011
11
4.48221
21
-1.38841
0
LINE
8
BLACK
6
CONTINUOUS
10
4.48221
20
-1.38841
11
4.48165
21
-1.38657
0
LINE
8
BLACK
6
CONTINUOUS
10
4.48165
20
-1.38657
11
4.48146
21
-1.38465
0
LINE
8
BLACK
6
CONTINUOUS
10
4.48146
20
-1.38465
11
4.48146
21
-1.36496
0
LINE
8
BLACK
6
CONTINUOUS
10
4.48146
20
-1.36496
11
4.48165
21
-1.36304
0
LINE
8
BLACK
6
CONTINUOUS
10
4.48165
20
-1.36304
11
4.48221
21
-1.36119
0
LINE
8
BLACK
6
CONTINUOUS
10
4.48221
20
-1.36119
11
4.48312
21
-1.35949
0
LINE
8
BLACK
6
CONTINUOUS
10
4.48312
20
-1.35949
11
4.48434
21
-1.358
0
LINE
8
BLACK
6
CONTINUOUS
10
4.48434
20
-1.358
11
4.48583
21
-1.35678
0
LINE
8
BLACK
6
CONTINUOUS
10
4.48583
20
-1.35678
11
4.48753
21
-1.35587
0
LINE
8
BLACK
6
CONTINUOUS
10
4.48753
20
-1.35587
11
4.48938
21
-1.35531
0
LINE
8
BLACK
6
CONTINUOUS
10
4.48938
20
-1.35531
11
4.4913
21
-1.35512
0
LINE
8
BLACK
6
CONTINUOUS
10
4.4913
20
-1.35512
11
4.5287
21
-1.35512
0
LINE
8
BLACK
6
CONTINUOUS
10
4.5287
20
-1.35512
11
4.53062
21
-1.35531
0
LINE
8
BLACK
6
CONTINUOUS
10
4.53062
20
-1.2805
11
4.53247
21
-1.28106
0
LINE
8
BLACK
6
CONTINUOUS
10
4.53247
20
-1.28106
11
4.53417
21
-1.28197
0
LINE
8
BLACK
6
CONTINUOUS
10
4.53417
20
-1.28197
11
4.53566
21
-1.2832
0
LINE
8
BLACK
6
CONTINUOUS
10
4.53566
20
-1.2832
11
4.53688
21
-1.28469
0
LINE
8
BLACK
6
CONTINUOUS
10
4.53688
20
-1.28469
11
4.53779
21
-1.28639
0
LINE
8
BLACK
6
CONTINUOUS
10
4.53779
20
-1.28639
11
4.53835
21
-1.28824
0
LINE
8
BLACK
6
CONTINUOUS
10
4.53835
20
-1.28824
11
4.53854
21
-1.29016
0
LINE
8
BLACK
6
CONTINUOUS
10
4.53854
20
-1.29016
11
4.53854
21
-1.30984
0
LINE
8
BLACK
6
CONTINUOUS
10
4.53854
20
-1.30984
11
4.53835
21
-1.31176
0
LINE
8
BLACK
6
CONTINUOUS
10
4.53835
20
-1.31176
11
4.53779
21
-1.31361
0
LINE
8
BLACK
6
CONTINUOUS
10
4.53779
20
-1.31361
11
4.53688
21
-1.31531
0
LINE
8
BLACK
6
CONTINUOUS
10
4.53688
20
-1.31531
11
4.53566
21
-1.3168
0
LINE
8
BLACK
6
CONTINUOUS
10
4.53566
20
-1.3168
11
4.53417
21
-1.31803
0
LINE
8
BLACK
6
CONTINUOUS
10
4.53417
20
-1.31803
11
4.53247
21
-1.31894
0
LINE
8
BLACK
6
CONTINUOUS
10
4.53247
20
-1.31894
11
4.53062
21
-1.3195
0
LINE
8
BLACK
6
CONTINUOUS
10
4.53062
20
-1.3195
11
4.5287
21
-1.31969
0
LINE
8
BLACK
6
CONTINUOUS
10
4.5287
20
-1.31969
11
4.4913
21
-1.31969
0
LINE
8
BLACK
6
CONTINUOUS
10
4.4913
20
-1.31969
11
4.48938
21
-1.3195
0
LINE
8
BLACK
6
CONTINUOUS
10
4.48938
20
-1.3195
11
4.48753
21
-1.31894
0
LINE
8
BLACK
6
CONTINUOUS
10
4.48753
20
-1.31894
11
4.48583
21
-1.31803
0
LINE
8
BLACK
6
CONTINUOUS
10
4.48583
20
-1.31803
11
4.48434
21
-1.3168
0
LINE
8
BLACK
6
CONTINUOUS
10
4.48434
20
-1.3168
11
4.48312
21
-1.31531
0
LINE
8
BLACK
6
CONTINUOUS
10
4.48312
20
-1.31531
11
4.48221
21
-1.31361
0
LINE
8
BLACK
6
CONTINUOUS
10
4.48221
20
-1.31361
11
4.48165
21
-1.31176
0
LINE
8
BLACK
6
CONTINUOUS
10
4.48165
20
-1.31176
11
4.48146
21
-1.30984
0
LINE
8
BLACK
6
CONTINUOUS
10
4.48146
20
-1.30984
11
4.48146
21
-1.29016
0
LINE
8
BLACK
6
CONTINUOUS
10
4.48146
20
-1.29016
11
4.48165
21
-1.28824
0
LINE
8
BLACK
6
CONTINUOUS
10
4.48165
20
-1.28824
11
4.48221
21
-1.28639
0
LINE
8
BLACK
6
CONTINUOUS
10
4.48221
20
-1.28639
11
4.48312
21
-1.28469
0
LINE
8
BLACK
6
CONTINUOUS
10
4.48312
20
-1.28469
11
4.48434
21
-1.2832
0
LINE
8
BLACK
6
CONTINUOUS
10
4.48434
20
-1.2832
11
4.48583
21
-1.28197
0
LINE
8
BLACK
6
CONTINUOUS
10
4.48583
20
-1.28197
11
4.48753
21
-1.28106
0
LINE
8
BLACK
6
CONTINUOUS
10
4.48753
20
-1.28106
11
4.48938
21
-1.2805
0
LINE
8
BLACK
6
CONTINUOUS
10
4.48938
20
-1.2805
11
4.4913
21
-1.28031
0
LINE
8
BLACK
6
CONTINUOUS
10
4.4913
20
-1.28031
11
4.5287
21
-1.28031
0
LINE
8
BLACK
6
CONTINUOUS
10
4.5287
20
-1.28031
11
4.53062
21
-1.2805
0
LINE
8
BLACK
6
CONTINUOUS
10
4.46528
20
-1.26921
11
4.37472
21
-1.26921
0
LINE
8
BLACK
6
CONTINUOUS
10
4.37472
20
-1.26921
11
4.37472
21
-1.17079
0
LINE
8
BLACK
6
CONTINUOUS
10
4.37472
20
-1.17079
11
4.46528
21
-1.17079
0
LINE
8
BLACK
6
CONTINUOUS
10
4.46528
20
-1.17079
11
4.46528
21
-1.26921
0
LINE
8
BLACK
6
CONTINUOUS
10
4.46528
20
-1.09992
11
4.37472
21
-1.09992
0
LINE
8
BLACK
6
CONTINUOUS
10
4.37472
20
-1.09992
11
4.37472
21
-1.0015
0
LINE
8
BLACK
6
CONTINUOUS
10
4.37472
20
-1.0015
11
4.46528
21
-1.0015
0
LINE
8
BLACK
6
CONTINUOUS
10
4.46528
20
-1.0015
11
4.46528
21
-1.09992
  0
ENDSEC
  0
EOF
